<?xml version="1.0" encoding="UTF-8"?>
<svg xmlns="http://www.w3.org/2000/svg" xmlns:xlink="http://www.w3.org/1999/xlink" viewBox="0 0 80 80" width="80px" height="80px">
<g id="surface36600053">
<path style=" stroke:none;fill-rule:nonzero;fill:rgb(60.784316%,34.901962%,71.372551%);fill-opacity:1;" d="M 40 80 C 17.910156 80 0 62.089844 0 40 C 0 17.910156 17.910156 0 40 0 C 62.089844 0 80 17.910156 80 40 C 80 62.089844 62.089844 80 40 80 Z M 40 80 "/>
<path style=" stroke:none;fill-rule:nonzero;fill:rgb(18.039216%,80.000001%,44.313726%);fill-opacity:1;" d="M 16.671875 18.28125 C 14.902344 18.28125 13.453125 19.730469 13.453125 21.496094 L 13.453125 61.71875 L 66.546875 61.71875 L 66.546875 21.496094 C 66.546875 19.730469 65.097656 18.28125 63.328125 18.28125 Z M 16.671875 19.890625 L 63.328125 19.890625 C 64.226562 19.890625 64.9375 20.597656 64.9375 21.496094 L 64.9375 31.152344 L 15.0625 31.152344 L 15.0625 21.496094 C 15.0625 20.597656 15.773438 19.890625 16.671875 19.890625 Z M 20.691406 22.300781 C 18.925781 22.300781 17.476562 23.753906 17.476562 25.519531 C 17.476562 27.289062 18.925781 28.738281 20.691406 28.738281 C 21.65625 28.738281 22.515625 28.296875 23.105469 27.621094 C 23.699219 28.296875 24.558594 28.738281 25.519531 28.738281 C 27.289062 28.738281 28.738281 27.289062 28.738281 25.519531 C 28.738281 23.753906 27.289062 22.300781 25.519531 22.300781 C 24.558594 22.300781 23.699219 22.742188 23.105469 23.417969 C 22.515625 22.742188 21.65625 22.300781 20.691406 22.300781 Z M 31.152344 22.300781 L 31.152344 28.738281 L 62.523438 28.738281 L 62.523438 22.300781 Z M 20.691406 23.910156 C 21.589844 23.910156 22.300781 24.621094 22.300781 25.519531 C 22.300781 26.417969 21.589844 27.128906 20.691406 27.128906 C 19.796875 27.128906 19.085938 26.417969 19.085938 25.519531 C 19.085938 24.621094 19.796875 23.910156 20.691406 23.910156 Z M 25.519531 23.910156 C 26.417969 23.910156 27.128906 24.621094 27.128906 25.519531 C 27.128906 26.417969 26.417969 27.128906 25.519531 27.128906 C 24.621094 27.128906 23.910156 26.417969 23.910156 25.519531 C 23.910156 24.621094 24.621094 23.910156 25.519531 23.910156 Z M 32.761719 23.910156 L 60.914062 23.910156 L 60.914062 27.128906 L 32.761719 27.128906 Z M 15.0625 32.761719 L 64.9375 32.761719 L 64.9375 60.109375 L 15.0625 60.109375 Z M 28.335938 36.78125 C 25.902344 36.78125 23.910156 38.773438 23.910156 41.207031 C 23.910156 42.582031 24.546875 43.816406 25.539062 44.628906 C 23.160156 45.703125 21.496094 48.089844 21.496094 50.859375 L 21.496094 51.261719 L 23.105469 51.261719 L 23.105469 50.859375 C 23.105469 47.960938 25.4375 45.632812 28.335938 45.632812 C 31.234375 45.632812 33.5625 47.960938 33.5625 50.859375 L 33.5625 51.261719 L 35.171875 51.261719 L 35.171875 50.859375 C 35.171875 48.089844 33.511719 45.703125 31.132812 44.628906 C 32.125 43.816406 32.761719 42.582031 32.761719 41.207031 L 32.761719 40.402344 L 32.597656 40.402344 C 32.203125 38.363281 30.484375 36.78125 28.335938 36.78125 Z M 40 37.585938 L 40 39.195312 L 58.503906 39.195312 L 58.503906 37.585938 Z M 28.335938 38.390625 C 29.902344 38.390625 31.152344 39.640625 31.152344 41.207031 C 31.152344 42.773438 29.902344 44.023438 28.335938 44.023438 C 26.769531 44.023438 25.519531 42.773438 25.519531 41.207031 C 25.519531 39.640625 26.769531 38.390625 28.335938 38.390625 Z M 40 41.609375 L 40 43.21875 L 55.285156 43.21875 L 55.285156 41.609375 Z M 40 45.632812 L 40 47.238281 L 58.503906 47.238281 L 58.503906 45.632812 Z M 40 49.652344 L 40 51.261719 L 55.285156 51.261719 L 55.285156 49.652344 Z M 19.085938 55.285156 C 18.640625 55.285156 18.28125 55.644531 18.28125 56.089844 C 18.28125 56.53125 18.640625 56.894531 19.085938 56.894531 C 19.527344 56.894531 19.890625 56.53125 19.890625 56.089844 C 19.890625 55.644531 19.527344 55.285156 19.085938 55.285156 Z M 22.300781 55.285156 C 21.859375 55.285156 21.496094 55.644531 21.496094 56.089844 C 21.496094 56.53125 21.859375 56.894531 22.300781 56.894531 C 22.746094 56.894531 23.105469 56.53125 23.105469 56.089844 C 23.105469 55.644531 22.746094 55.285156 22.300781 55.285156 Z M 25.519531 55.285156 C 25.078125 55.285156 24.714844 55.644531 24.714844 56.089844 C 24.714844 56.53125 25.078125 56.894531 25.519531 56.894531 C 25.964844 56.894531 26.324219 56.53125 26.324219 56.089844 C 26.324219 55.644531 25.964844 55.285156 25.519531 55.285156 Z M 28.738281 55.285156 C 28.292969 55.285156 27.933594 55.644531 27.933594 56.089844 C 27.933594 56.53125 28.292969 56.894531 28.738281 56.894531 C 29.179688 56.894531 29.542969 56.53125 29.542969 56.089844 C 29.542969 55.644531 29.179688 55.285156 28.738281 55.285156 Z M 31.957031 55.285156 C 31.511719 55.285156 31.152344 55.644531 31.152344 56.089844 C 31.152344 56.53125 31.511719 56.894531 31.957031 56.894531 C 32.398438 56.894531 32.761719 56.53125 32.761719 56.089844 C 32.761719 55.644531 32.398438 55.285156 31.957031 55.285156 Z M 35.171875 55.285156 C 34.730469 55.285156 34.367188 55.644531 34.367188 56.089844 C 34.367188 56.53125 34.730469 56.894531 35.171875 56.894531 C 35.617188 56.894531 35.976562 56.53125 35.976562 56.089844 C 35.976562 55.644531 35.617188 55.285156 35.171875 55.285156 Z M 38.390625 55.285156 C 37.949219 55.285156 37.585938 55.644531 37.585938 56.089844 C 37.585938 56.53125 37.949219 56.894531 38.390625 56.894531 C 38.835938 56.894531 39.195312 56.53125 39.195312 56.089844 C 39.195312 55.644531 38.835938 55.285156 38.390625 55.285156 Z M 41.609375 55.285156 C 41.164062 55.285156 40.804688 55.644531 40.804688 56.089844 C 40.804688 56.53125 41.164062 56.894531 41.609375 56.894531 C 42.050781 56.894531 42.414062 56.53125 42.414062 56.089844 C 42.414062 55.644531 42.050781 55.285156 41.609375 55.285156 Z M 44.828125 55.285156 C 44.382812 55.285156 44.023438 55.644531 44.023438 56.089844 C 44.023438 56.53125 44.382812 56.894531 44.828125 56.894531 C 45.269531 56.894531 45.632812 56.53125 45.632812 56.089844 C 45.632812 55.644531 45.269531 55.285156 44.828125 55.285156 Z M 48.042969 55.285156 C 47.601562 55.285156 47.238281 55.644531 47.238281 56.089844 C 47.238281 56.53125 47.601562 56.894531 48.042969 56.894531 C 48.488281 56.894531 48.847656 56.53125 48.847656 56.089844 C 48.847656 55.644531 48.488281 55.285156 48.042969 55.285156 Z M 51.261719 55.285156 C 50.820312 55.285156 50.457031 55.644531 50.457031 56.089844 C 50.457031 56.53125 50.820312 56.894531 51.261719 56.894531 C 51.707031 56.894531 52.066406 56.53125 52.066406 56.089844 C 52.066406 55.644531 51.707031 55.285156 51.261719 55.285156 Z M 54.480469 55.285156 C 54.035156 55.285156 53.675781 55.644531 53.675781 56.089844 C 53.675781 56.53125 54.035156 56.894531 54.480469 56.894531 C 54.921875 56.894531 55.285156 56.53125 55.285156 56.089844 C 55.285156 55.644531 54.921875 55.285156 54.480469 55.285156 Z M 57.699219 55.285156 C 57.253906 55.285156 56.894531 55.644531 56.894531 56.089844 C 56.894531 56.53125 57.253906 56.894531 57.699219 56.894531 C 58.140625 56.894531 58.503906 56.53125 58.503906 56.089844 C 58.503906 55.644531 58.140625 55.285156 57.699219 55.285156 Z M 60.914062 55.285156 C 60.472656 55.285156 60.109375 55.644531 60.109375 56.089844 C 60.109375 56.53125 60.472656 56.894531 60.914062 56.894531 C 61.359375 56.894531 61.71875 56.53125 61.71875 56.089844 C 61.71875 55.644531 61.359375 55.285156 60.914062 55.285156 Z M 60.914062 55.285156 "/>
</g>
</svg>
