<?xml version="1.0" encoding="iso-8859-1" ?>
<svg version="1.1" xmlns="http://www.w3.org/2000/svg" xmlns:xlink="http://www.w3.org/1999/xlink" 
    viewBox="0 0 1280 720" width="1280" height="720">
    
    
    <!-- ITEM 0 -->
    <g>
        <defs>
            <clipPath id="clip-path-id-viewbox-item-0">
                <rect x="0.0" y="0.0" width="412.0" height="412.0"/>
            </clipPath>
        </defs>
        <g transform="translate(783.0 392.0) rotate(0.0 137.5 137.5) scale(0.6674757281553398 0.6674757281553398)">
            <g clip-path="url(#clip-path-id-viewbox-item-0)" transform="translate(-0.0 -0.0)">
                

<g>
	<g>
		<path d="M409,206c0,112.114-90.886,203-203,203S3,318.114,3,206c0-16.596,1.991-32.727,5.749-48.166    C30.372,68.971,110.482,3,206,3C318.114,3,409,93.886,409,206z" style="fill:#575b62;"></path>
		<path d="M206,412C92.411,412,0,319.589,0,206c0-16.523,1.963-32.967,5.833-48.875    c10.722-44.061,36.278-83.971,71.962-112.379C114.566,15.473,158.899,0,206,0c113.589,0,206,92.411,206,206S319.589,412,206,412z     M206,6C113.433,6,33.519,68.728,11.664,158.543C7.905,173.988,6,189.954,6,206c0,110.28,89.72,200,200,200s200-89.72,200-200    S316.28,6,206,6z" style="fill:#222433;"></path>
	</g>
	<g>
		<path d="M228.493,353.449c-0.558,0-1.115-0.011-1.676-0.034c-2.422-0.107-4.84-0.43-7.197-0.961    c-10.481-2.368-19.411-8.675-25.146-17.758c-5.736-9.084-7.591-19.858-5.223-30.337l26.453-117.013    c4.386-19.388,21.99-32.874,41.848-32.076c2.913,0.125,5.814,0.556,8.629,1.283c18.787,4.854,38.02-6.483,42.873-25.27    l0.731-3.002c2.61-10.694,9.225-19.726,18.627-25.44c9.403-5.713,20.467-7.423,31.156-4.814c0.102,0.025,0.458,0.106,1.015,0.233    c11.938,2.722,19.799,4.705,23.367,5.894c1.572,0.524,2.421,2.223,1.897,3.795c-0.524,1.572-2.223,2.421-3.795,1.897    c-3.383-1.128-11.056-3.058-22.804-5.736c-0.605-0.138-0.993-0.227-1.103-0.254c-9.131-2.228-18.584-0.768-26.618,4.113    c-8.033,4.881-13.684,12.598-15.913,21.73l-0.751,3.08c-4.792,18.551-21.562,30.895-39.888,30.897    c-3.401,0-6.853-0.425-10.296-1.314c-2.408-0.622-4.891-0.991-7.377-1.097c-16.975-0.693-32,10.84-35.746,27.405l-26.45,117    c-2.018,8.928-0.439,18.095,4.441,25.824c4.88,7.729,12.478,13.094,21.394,15.109c2.009,0.453,4.073,0.728,6.131,0.819    c10.48,0.424,20.433-3.882,27.298-11.825l64.13-74.2c10.637-12.324,27.69-17.624,43.439-13.5l39.796,10.359    c1.604,0.417,2.565,2.056,2.147,3.659c-0.418,1.604-2.054,2.566-3.659,2.148l-39.8-10.36    c-13.557-3.549-28.229,1.011-37.383,11.617l-64.131,74.201C251.208,348.429,240.198,353.449,228.493,353.449z" style="fill:#222433;"></path>
	</g>
	<g>
		<path d="M214.111,91.006c-1.328,0-2.672-0.055-4.041-0.169c-22.657-1.886-41.717-16.78-60.149-31.184    c-15.88-12.41-30.88-24.131-46.221-25.668c-1.648-0.165-2.851-1.636-2.686-3.284c0.165-1.649,1.624-2.854,3.284-2.686    c17.068,1.71,32.732,13.951,49.316,26.911c17.738,13.862,36.081,28.195,56.953,29.932c17.123,1.425,31.346-8.038,46.401-18.057    c19.909-13.25,42.473-28.266,76.593-21.748c1.627,0.311,2.695,1.882,2.384,3.51c-0.311,1.628-1.879,2.695-3.51,2.384    c-31.707-6.058-52.265,7.621-72.143,20.849C245.48,81.655,231.427,91.006,214.111,91.006z" style="fill:#222433;"></path>
	</g>
	<g>
		<path d="M24.969,300.945c-0.229,0-0.462-0.027-0.695-0.082c-1.612-0.383-2.609-2-2.226-3.612    c2.814-11.854,3.386-25.605,3.938-38.904c0.564-13.581,1.148-27.625,4.095-40.04c1.531-6.451,5.514-10.999,9.366-15.397    c3.524-4.025,6.854-7.826,8.042-12.83c1.565-6.595,0.444-13.391-3.158-19.133c-3.602-5.743-9.231-9.71-15.851-11.172    l-19.035-4.203c-1.618-0.357-2.64-1.958-2.282-3.576c0.357-1.618,1.957-2.639,3.576-2.283l19.035,4.203    c8.202,1.811,15.177,6.727,19.64,13.843c4.463,7.115,5.853,15.535,3.913,23.707c-1.532,6.451-5.514,10.999-9.366,15.397    c-3.525,4.025-6.854,7.827-8.042,12.83c-2.814,11.854-3.386,25.605-3.938,38.904c-0.564,13.581-1.148,27.625-4.095,40.04    C27.558,300.016,26.328,300.945,24.969,300.945z" style="fill:#222433;"></path>
	</g>
</g>

            </g>
        </g>
    </g>
    
    <!-- ITEM 1 -->
    <g>
        <defs>
            <clipPath id="clip-path-id-viewbox-item-1">
                <rect x="0.0" y="0.0" width="46.638" height="84.255"/>
            </clipPath>
        </defs>
        <g transform="translate(845.0 47.0) rotate(-7.707200398015402 166.0 303.5) scale(7.1186586045713796 7.204320218384666)">
            <g clip-path="url(#clip-path-id-viewbox-item-1)" transform="translate(-0.0 -0.0)">
                <title>F_Yellow</title><g id="bbdc4ad0-b3fb-44ec-af8e-2befacf47563-i1" data-name="Alphabet"><path id="f58e7e3b-7f49-4bff-bfb0-df904b0c17c2-i1" data-name="F" d="M40.671,2.576Q24.515,2.848,8.415,4.191c-2.764,0-5.674.475-5.653,3.8q.228,36.236.455,72.471c.033,5.221,8.137,4.937,8.1-.28-.082-13.039-.164-31.079-.246-44.118q13.392-.858,26.747-2.178c5.166-.515,4.924-8.622-.28-8.1Q24.3,27.1,11.024,27.949c-.043-6.942-.087-8.883-.131-15.825Q25.9,10.951,40.951,10.68C46.171,10.592,45.891,2.488,40.671,2.576Z" fill="#1dcba0"></path></g>
            </g>
        </g>
    </g>
    
    <!-- ITEM 2 -->
    <g>
        <defs>
            <clipPath id="clip-path-id-viewbox-item-2">
                <rect x="0.0" y="0.0" width="395.016" height="843.602"/>
            </clipPath>
        </defs>
        <g transform="translate(690.0 96.0) rotate(0.0 132.0 282.0) scale(0.6683273588917917 0.6685617151215858)">
            <g clip-path="url(#clip-path-id-viewbox-item-2)" transform="translate(-0.0 -0.0)">
                

<g>
	<g>
		<path d="M330.012,236.592L72.924,818.832c-8.21,18.587-30.013,26.896-48.511,18.488l0,0    c-18.027-8.194-26.238-29.264-18.508-47.495L252.672,207.83" style="fill:#575b62;"></path>
		<path d="M39.504,843.616c-5.563,0-11.11-1.192-16.332-3.565c-19.662-8.937-28.46-31.514-20.028-51.397L249.91,206.659    c0.646-1.525,2.409-2.237,3.933-1.591c1.525,0.647,2.238,2.408,1.591,3.933L8.667,790.996    c-7.15,16.864,0.311,36.013,16.987,43.593c8.211,3.732,17.374,4.019,25.803,0.807c8.429-3.212,15.078-9.525,18.723-17.776    l257.088-582.239c0.669-1.515,2.438-2.203,3.956-1.533c1.516,0.669,2.202,2.44,1.532,3.956L75.668,820.044    c-4.297,9.728-12.136,17.171-22.074,20.959C49.017,842.747,44.255,843.616,39.504,843.616z" style="fill:#222433;"></path>
	</g>
	<g>
		<path d="M391.642,3c0,0-106.87,84.75-120.3,115.19c-7.011,15.89-6.592,33.171-0.273,47.976l-18.953,42.952    l54.74,24.155l-6.525,15.618c-2.427,5.642,0.142,12.187,5.76,14.67c5.656,2.504,12.271-0.052,14.775-5.708    c0.002-0.004,0.003-0.008,0.005-0.012l14-32.07l-0.147-0.075l11.621-26.336c15.184-5.316,28.219-16.65,35.226-32.529    C395.002,136.39,391.642,3,391.642,3z" style="fill:#575b62;"></path>
		<path d="M310.604,267.518c-1.917,0-3.864-0.39-5.727-1.215c-7.09-3.134-10.365-11.478-7.302-18.599l5.379-12.875    l-52.05-22.968c-0.729-0.321-1.299-0.918-1.586-1.66c-0.288-0.742-0.269-1.568,0.052-2.296l18.436-41.777    c-6.341-15.765-6.069-33.602,0.79-49.15C282.17,86.214,385.39,4.129,389.778,0.649c0.893-0.707,2.106-0.848,3.136-0.367    c1.03,0.482,1.699,1.505,1.728,2.642c0.138,5.474,3.221,134.415-10.324,165.116c-6.855,15.537-19.839,27.756-35.745,33.702    l-10.71,24.272c-0.026,0.322-0.104,0.644-0.241,0.955l-13.991,32.051c-0.006,0.015-0.013,0.03-0.02,0.045l0,0    C321.265,264.363,316.055,267.518,310.604,267.518z M256.072,207.584l51.996,22.944c1.495,0.659,2.187,2.394,1.558,3.901    l-6.525,15.618c-1.782,4.141,0.109,8.959,4.204,10.77c4.131,1.828,8.973-0.038,10.81-4.158c0.003-0.006,0.006-0.012,0.009-0.018    l13.61-31.178c0.025-0.329,0.106-0.66,0.246-0.978l11.621-26.336c0.336-0.759,0.971-1.346,1.754-1.62    c15.127-5.296,27.015-16.272,33.473-30.909c11.394-25.823,10.385-130.082,9.937-156.462    c-20.797,16.787-103.291,84.438-114.677,110.244c-6.463,14.647-6.555,30.837-0.259,45.587c0.326,0.764,0.321,1.629-0.014,2.389    L256.072,207.584z" style="fill:#222433;"></path>
	</g>
	<g>
		<path d="M285.602,189.77c-0.744,0-1.489-0.275-2.069-0.828c-6.458-6.155-11.578-13.404-15.219-21.547    c-0.677-1.513,0.001-3.287,1.514-3.963c1.513-0.676,3.287,0.002,3.963,1.514c3.321,7.427,7.991,14.039,13.881,19.653    c1.2,1.143,1.245,3.042,0.103,4.241C287.184,189.458,286.393,189.77,285.602,189.77z" style="fill:#222433;"></path>
	</g>
	<g>
		<path d="M366.374,132.01c-0.195,0-0.394-0.019-0.593-0.059c-1.624-0.326-2.678-1.906-2.352-3.531l12.72-63.45    c0.326-1.624,1.904-2.679,3.531-2.352c1.624,0.326,2.678,1.906,2.352,3.531l-12.72,63.45    C369.027,131.025,367.775,132.01,366.374,132.01z" style="fill:#222433;"></path>
	</g>
	<g>
		<path d="M342.97,105.881c-0.441,0-0.889-0.098-1.313-0.304c-1.489-0.726-2.108-2.521-1.383-4.011l48.67-99.88    c0.726-1.49,2.52-2.108,4.012-1.383c1.489,0.726,2.108,2.521,1.383,4.011l-48.67,99.88    C345.15,105.26,344.081,105.881,342.97,105.881z" style="fill:#222433;"></path>
	</g>
</g>

            </g>
        </g>
    </g>
    
    <!-- ITEM 3 -->
    <g>
        <defs>
            <clipPath id="clip-path-id-viewbox-item-3">
                <rect x="0.0" y="0.0" width="328.63" height="416.0"/>
            </clipPath>
        </defs>
        <g transform="translate(675.0 384.0) rotate(0.0 111.5 140.5) scale(0.678574688859812 0.6754807692307693)">
            <g clip-path="url(#clip-path-id-viewbox-item-3)" transform="translate(-0.0 -0.0)">
                

<g>
	<g>
		<polyline points="3,260 276.4,260.018 277,353 5,354   " style="fill:#0078ff;"></polyline>
		<path d="M5,357c-1.652,0-2.994-1.336-3-2.989c-0.006-1.657,1.332-3.005,2.989-3.011l268.991-0.989l-0.562-86.993    L3,263c-1.657,0-3-1.343-3-3c0-1.657,1.343-3,3-3l0,0l273.399,0.018c1.649,0,2.989,1.332,3,2.981L280,352.981    c0.005,0.797-0.308,1.563-0.868,2.13c-0.561,0.566-1.323,0.886-2.121,0.889l-272,1C5.007,357,5.004,357,5,357z" style="fill:#222433;"></path>
	</g>
	<g>
		<polygon points="65,183 65,244 276.4,244 276,183   " style="fill:#0078ff;"></polygon>
	</g>
	<g>
		<rect x="222.22" y="260.018" width="27.33" height="92.43" style="fill:#1dcba0;"></rect>
	</g>
	<g>
		<path d="M275.9,167.588L5,167v93l271.41,0.068v-17.86H67.9v-56.81l208.068,0.003L275.9,167.588z" style="fill:#ffbe55;"></path>
	</g>
	<g>
		<polygon points="5.63,76.158 69.952,76.158 69.952,170.612 5,171   " style="fill:#1dcba0;"></polygon>
	</g>
	<g>
		<polyline points="3,3 246.18,3.108 246.69,77.158 4.69,77.158   " style="fill:#0078ff;"></polyline>
		<path d="M246.689,80.158h-242c-1.657,0-3-1.343-3-3c0-1.657,1.343-3,3-3h238.979L243.2,6.106L2.999,6    C1.342,5.999-0.001,4.656,0,2.999C0.001,1.342,1.344,0,3,0c0.001,0,0.001,0,0.001,0l243.18,0.108    c1.648,0.001,2.987,1.331,2.999,2.979l0.51,74.05c0.006,0.799-0.309,1.568-0.871,2.135    C248.255,79.839,247.488,80.158,246.689,80.158z" style="fill:#222433;"></path>
	</g>
	<g>
		<rect x="67.9" y="77.158" width="250.98" height="90.43" style="fill:#0078ff;"></rect>
		<path d="M318.88,170.588H67.899c-1.657,0-3-1.343-3-3v-90.43c0-1.657,1.343-3,3-3h250.98c1.657,0,3,1.343,3,3v90.43    C321.88,169.244,320.537,170.588,318.88,170.588z M70.899,164.588h244.98v-84.43H70.899V164.588z" style="fill:#222433;"></path>
	</g>
	<g>
		<polygon points="4,349 328.63,349.448 328.63,415.168 4,415 4,401 223.94,400.878 223.94,368.068 4,368   " style="fill:#1dcba0;"></polygon>
	</g>
	<g>
		<path d="M3,416c-1.657,0-3-1.343-3-3V3c0-1.657,1.343-3,3-3s3,1.343,3,3v410C6,414.657,4.657,416,3,416z" style="fill:#222433;"></path>
	</g>
	<g>
		<polyline points="4,368 223.94,368.068 223.94,400.878 4,401   " style="fill:#0078ff;"></polyline>
		<path d="M4,404c-1.656,0-2.999-1.342-3-2.998c-0.001-1.657,1.342-3.001,2.998-3.002l216.941-0.121v-26.813L3.999,371    c-1.657,0-3-1.344-2.999-3.001C1.001,366.343,2.344,365,4,365h0.001l219.939,0.068c1.656,0,2.999,1.344,2.999,3v32.81    c0,1.656-1.342,2.999-2.998,3L4.002,404C4.001,404,4,404,4,404z" style="fill:#222433;"></path>
	</g>
	<g>
		<path d="M276,263H5c-1.657,0-3-1.343-3-3s1.343-3,3-3h271c1.657,0,3,1.343,3,3S277.657,263,276,263z" style="fill:#222433;"></path>
	</g>
</g>

            </g>
        </g>
    </g>
    
    <!-- ITEM 4 -->
    <g>
        <defs>
            <clipPath id="clip-path-id-crop-item-4">
                
          <rect transform="scale(1.490282401091405 1.486848673946958)" x="0.0" y="0.0" width="732.0" height="637.0" />
        
            </clipPath>
            
            <clipPath id="clip-path-id-viewbox-item-4">
                <rect x="0.0" y="0.0" width="1092.377" height="953.07"/>
            </clipPath>
        </defs>
        <g clip-path="url(#clip-path-id-crop-item-4)" transform="translate(124.0 28.0) rotate(0.0 366.5 320.5) scale(0.6710137617324422 0.6725634003798252)">
            <g clip-path="url(#clip-path-id-viewbox-item-4)" transform="translate(-0.0 -0.0)">
                

<g>
	<g>
		<path d="M212.381,739.385c-24.229,13.703-50.999,11.771-77.161-0.855c-32.2-15.54-57.88-30.61-57.88-30.61    C54.946,690.859,23.497,692.5,3,711.8l0,0l122,153.18l66.34,7.27l-37.58,29.14l37.13,46.69l126.825-100.634" style="fill:#575b62;"></path>
		<path d="M190.892,951.08c-0.883,0-1.758-0.388-2.35-1.133l-37.13-46.69c-0.499-0.628-0.726-1.429-0.63-2.225    c0.096-0.796,0.506-1.521,1.14-2.013l31.719-24.595l-58.967-6.462c-0.795-0.087-1.522-0.488-2.02-1.113l-122-153.18    c-0.972-1.221-0.846-2.983,0.29-4.053c21.613-20.35,54.415-22.103,78.066-4.195c2.169,1.265,27.072,15.715,57.514,30.407    c26.846,12.956,52.565,13.283,74.38,0.946c1.444-0.816,3.273-0.307,4.088,1.135c0.815,1.442,0.308,3.272-1.134,4.088    c-23.603,13.349-51.247,13.084-79.942-0.764c-31.94-15.415-57.837-30.573-58.095-30.725c-0.104-0.061-0.204-0.128-0.299-0.201    c-20.584-15.681-48.92-14.779-68.413,1.838l119.459,149.989l65.098,7.134c1.215,0.133,2.228,0.99,2.561,2.167    c0.332,1.177-0.083,2.437-1.049,3.186l-35.18,27.279l33.375,41.968l124.478-98.771c1.299-1.03,3.185-0.812,4.215,0.485    c1.03,1.298,0.813,3.185-0.485,4.215L192.755,950.43C192.204,950.867,191.545,951.08,190.892,951.08z" style="fill:#222433;"></path>
	</g>
	<g>
		<path d="M629.175,624.322L559.13,636.42L332.34,862.43L192.63,719.29L447.5,470.58    c0.603-0.589,1.213-1.17,1.829-1.742c17.861-16.586,41.625-25.332,65.998-25.138l383.513-0.207l-19,64l13,29" style="fill:#575b62;"></path>
		<path d="M332.34,865.43c-0.007,0-0.014,0-0.021,0c-0.801-0.006-1.566-0.331-2.126-0.905l-139.71-143.14    c-0.556-0.57-0.862-1.336-0.853-2.132c0.01-0.796,0.335-1.555,0.905-2.111l254.87-248.71c0.62-0.606,1.248-1.204,1.883-1.794    c18.232-16.931,42.429-26.123,68.063-25.939l383.487-0.207c0,0,0.001,0,0.001,0c0.947,0,1.837,0.447,2.404,1.205    c0.566,0.759,0.742,1.741,0.472,2.649l-18.684,62.934l12.545,27.985c0.678,1.512,0.002,3.287-1.51,3.965    c-1.512,0.679-3.287,0.001-3.965-1.51l-13-29c-0.293-0.655-0.342-1.393-0.138-2.081l17.855-60.144l-379.491,0.205    c-24.108-0.194-46.853,8.451-63.958,24.336c-0.599,0.556-1.189,1.119-1.774,1.69L196.873,719.342l135.497,138.823l224.643-223.87    c0.438-0.436,0.999-0.726,1.607-0.831l70.045-12.098c1.635-0.281,3.185,0.813,3.467,2.446c0.282,1.633-0.813,3.185-2.445,3.467    l-69.11,11.937l-226.118,225.34C333.895,865.115,333.133,865.43,332.34,865.43z" style="fill:#222433;"></path>
	</g>
	<g>
		<path d="M689.809,839.696c-7.055,22.563-19.775,42.238-38.919,48.894c-34.43,11.97-44.21,31.27-42.2,58.86    l143.88,1.798l31.16-47.578l-0.69,48.26l58,0.14l0.348-110.38" style="fill:#575b62;"></path>
		<path d="M841.04,953.07c-0.002,0-0.005,0-0.007,0l-58-0.14c-0.802-0.002-1.569-0.325-2.132-0.896    c-0.562-0.572-0.872-1.345-0.86-2.146l0.542-37.936l-25.502,38.94c-0.562,0.858-1.525,1.373-2.547,1.356l-143.88-1.798    c-1.558-0.02-2.841-1.228-2.955-2.782c-2.287-31.393,11.347-50.488,44.207-61.912c16.177-5.624,29.332-22.3,37.041-46.955    c0.495-1.582,2.177-2.462,3.759-1.968c1.581,0.494,2.462,2.177,1.968,3.759c-8.291,26.516-22.779,44.568-40.797,50.832    c-29.678,10.318-41.539,25.797-40.354,53.062l139.441,1.742l30.258-46.201c0.731-1.117,2.112-1.615,3.388-1.225    c1.276,0.391,2.141,1.577,2.122,2.912l-0.646,45.224l51.966,0.125l0.338-107.382c0.005-1.657,1.391-2.967,3.009-2.99    c1.657,0.005,2.996,1.353,2.991,3.01l-0.348,110.38C844.035,951.733,842.693,953.07,841.04,953.07z" style="fill:#222433;"></path>
	</g>
	<g>
		<path d="M904.93,539.92l-79.59,19l30.42,280.81l-201.96-0.55l-33.96-294.688c-2.669-23.388-7-47,11-62" style="fill:#575b62;"></path>
		<path d="M855.76,842.73c-0.003,0-0.005,0-0.008,0l-201.96-0.55c-1.521-0.004-2.798-1.146-2.972-2.656L616.86,544.835    c-0.19-1.666-0.388-3.33-0.586-4.991c-2.616-21.968-5.322-44.684,12.646-59.657c1.271-1.061,3.164-0.889,4.225,0.384    c1.061,1.273,0.889,3.165-0.384,4.225c-15.466,12.888-13.068,33.022-10.529,54.338c0.199,1.672,0.398,3.345,0.589,5.017    l33.654,292.035l195.941,0.534l-30.059-277.478c-0.163-1.502,0.816-2.89,2.286-3.241l79.59-19c1.612-0.385,3.23,0.61,3.615,2.221    c0.385,1.612-0.61,3.23-2.221,3.615l-77.02,18.386l30.135,278.183c0.092,0.848-0.182,1.696-0.752,2.33    C857.421,842.369,856.61,842.73,855.76,842.73z" style="fill:#222433;"></path>
	</g>
	<g>
		<path d="M825.357,561.92c-1.542,0-2.853-1.181-2.986-2.746l-2.3-27.02c-0.141-1.651,1.084-3.103,2.735-3.244    c1.645-0.141,3.103,1.084,3.244,2.735l2.3,27.02c0.141,1.651-1.084,3.103-2.735,3.244    C825.528,561.916,825.442,561.92,825.357,561.92z" style="fill:#222433;"></path>
	</g>
	<g>
		<path d="M758.578,221.074L746.14,220.8c-7.858-0.17-41.091-3.801-71.009,9.91l-191.984,79.066    c-21.509,8.858-39.19,25.039-49.915,45.68l-2.29,4.408c-15.802,30.411,14.645,82.538,48.899,83.629l229.907,0.902    c16.466,0.065,39.663-3.833,54.093,4.098l45.464,36.933c12.519,6.882,23.164,16.609,31.653,28.1    c11.859,16.051,30.968,26.41,52.473,26.395c1.08,0,2.16,0,3.25,0l129.34-3.32v0.07c35.898-0.92,64.254-30.766,63.335-66.665    c-0.292-11.408-3.515-22.049-8.916-31.236c-2.313-4.456-5.166-8.719-8.599-12.679l-152.4-175.8    c-0.328-0.387-0.66-0.771-0.997-1.15c-13.402-15.098-40.379-26.51-59.093-25.84l-23.773-0.525" style="fill:#575b62;"></path>
		<path d="M893.383,542.92c-21.565,0.001-42.062-10.319-54.838-27.612c-8.574-11.604-18.898-20.774-30.686-27.253    c-0.157-0.086-0.307-0.187-0.446-0.3l-45.249-36.758c-10.203-5.47-25.693-4.706-39.375-4.03    c-4.625,0.228-8.988,0.441-13.052,0.428l-229.908-0.902c-16.924-0.538-34.426-12.89-45.759-32.238    c-11.365-19.403-13.584-40.775-5.79-55.774l2.29-4.407c11.036-21.239,29.302-37.956,51.435-47.071l191.931-79.044    c27.254-12.469,57.468-10.9,68.847-10.31c1.419,0.074,2.573,0.134,3.422,0.153l12.439,0.275c1.656,0.037,2.969,1.409,2.933,3.065    c-0.037,1.656-1.408,2.969-3.066,2.933l-12.438-0.275c-0.893-0.019-2.107-0.082-3.602-0.159    c-10.986-0.57-40.162-2.085-66.091,9.797c-0.036,0.016-0.071,0.032-0.107,0.047L484.29,312.549    c-20.825,8.576-38.012,24.305-48.396,44.29l-2.29,4.407c-6.852,13.186-4.689,32.335,5.643,49.975    c10.3,17.584,25.891,28.801,40.689,29.272l229.824,0.9c3.904,0.018,8.189-0.197,12.733-0.421    c14.578-0.72,31.104-1.535,42.792,4.89c0.157,0.086,0.307,0.187,0.446,0.3l45.256,36.765    c12.453,6.892,23.347,16.586,32.382,28.814c11.65,15.767,30.345,25.177,50.015,25.177c0.015,0,0.028,0,0.043,0h3.252    l129.263-3.319c0.213-0.006,0.425,0.012,0.632,0.051c33.889-1.208,60.651-29.593,59.781-63.57    c-0.269-10.486-3.209-20.788-8.503-29.793c-0.027-0.045-0.052-0.092-0.077-0.138c-2.261-4.355-5.021-8.424-8.203-12.095    l-152.4-175.8c-0.336-0.396-0.653-0.761-0.974-1.123c-12.528-14.115-38.542-25.487-56.742-24.834    c-0.058,0.002-0.115,0.003-0.174,0.001l-23.773-0.525c-1.656-0.037-2.97-1.409-2.933-3.065c0.036-1.656,1.377-2.971,3.065-2.933    l23.688,0.523c20.095-0.674,47.597,11.35,61.355,26.85c0.353,0.397,0.701,0.798,1.043,1.204l152.377,175.773    c3.474,4.007,6.487,8.445,8.958,13.191c5.783,9.863,8.995,21.139,9.289,32.612c0.96,37.495-28.763,68.781-66.257,69.741    c-0.218,0.007-0.435-0.013-0.646-0.053l-128.693,3.303l-3.327,0.001C893.416,542.92,893.398,542.92,893.383,542.92z" style="fill:#222433;"></path>
	</g>
	<g>
		<path d="M874.69,416.73c28.286,8.482,44.341,38.288,35.859,66.575c-1.613,5.378-4.063,10.469-7.259,15.085l0,0    c-9.39,14.09-29,20.51-43,14.68c-21.55-9-41.36-31.83-73.82-14.38c-14.64,7.86-35.35,21.9-42.31,7.79    c-4.82-9.77,18.73-27.18,35.64-40.63c-30.19,7.36-69.74,16.95-73.86,3.51c-4.12-13.44,24-23.07,63.16-32.32    c-44.75,2.6-68,10.15-70.44-3.24c-4-22.07,87.34-32.81,119.89-28.07c24.87,3.63,39.66,6.55,45.26,7.72L874.69,416.73z" style="fill:#575b62;"></path>
		<path d="M871.686,518.25c-4.35,0-8.618-0.774-12.549-2.411c-5.304-2.215-10.543-5.261-15.611-8.206    c-15.912-9.248-32.364-18.811-55.636-6.301c-1.74,0.934-3.564,1.956-5.442,3.006c-11.197,6.266-23.888,13.369-33.071,10.517    c-3.472-1.079-6.133-3.45-7.908-7.048c-4.869-9.869,9.583-22.87,25.843-35.89c-34.534,8.022-60.148,11.672-64.24-1.678    c-0.987-3.22-0.612-6.38,1.114-9.391c3.684-6.423,13.389-12.045,31.718-17.947c-11.276,1.148-20.228,2.011-26.632,1.426    c-2.954-0.271-11.942-1.093-13.563-9.989c-0.473-2.608-0.197-6.582,3.798-10.719c17.069-17.671,91.544-24.925,119.475-20.858    c24.074,3.514,38.804,6.365,45.442,7.752c0.085,0.018,0.169,0.039,0.252,0.064l10.876,3.279    c14.448,4.332,26.344,14.032,33.497,27.312s8.707,28.55,4.374,42.998c-1.706,5.689-4.285,11.049-7.667,15.932    C898.204,511.432,884.592,518.25,871.686,518.25z M809.702,489.299c14.221,0,26.002,6.848,36.838,13.147    c5.126,2.979,9.968,5.793,14.906,7.855c12.853,5.353,30.875-0.863,39.347-13.575c3.052-4.408,5.357-9.198,6.882-14.283    c3.872-12.913,2.484-26.561-3.909-38.43s-17.025-20.538-29.938-24.41c-0.001,0-0.003-0.001-0.004-0.001l-10.755-3.242    c-6.631-1.383-21.191-4.193-44.953-7.662c-29.388-4.279-99.589,3.865-114.294,19.089c-1.815,1.879-2.538,3.671-2.211,5.477    c1.22,6.692,11.646,5.916,35.112,3.522c9.292-0.948,19.823-2.022,32.203-2.742c1.546-0.089,2.917,1.022,3.143,2.562    c0.225,1.539-0.765,2.995-2.279,3.353c-25.153,5.942-54.75,14.024-60.398,23.874c-0.893,1.556-1.078,3.033-0.583,4.647    c3.306,10.783,46.874,0.161,70.281-5.545c1.369-0.334,2.785,0.33,3.404,1.595c0.62,1.265,0.276,2.791-0.826,3.668    c-1.354,1.076-2.75,2.178-4.17,3.3c-12.719,10.04-34.007,26.843-30.647,33.655c1.047,2.123,2.416,3.385,4.307,3.973    c6.724,2.088,18.72-4.627,28.361-10.023c1.909-1.068,3.765-2.107,5.533-3.056C794.083,491.191,802.231,489.299,809.702,489.299z" style="fill:#222433;"></path>
	</g>
	<g>
		<path d="M867.467,417.553c-1.565,0-2.884-1.215-2.99-2.8c-0.111-1.653,1.14-3.083,2.792-3.194l94.98-6.364    c1.66-0.108,3.083,1.14,3.194,2.793s-1.14,3.083-2.792,3.194l-94.98,6.364C867.602,417.551,867.534,417.553,867.467,417.553z" style="fill:#222433;"></path>
	</g>
	<g>
		<path d="M867.391,90.49c-4.168-2.976-9.16-4.577-14.281-4.58v0.03c-5.133-0.004-10.137,1.601-14.31,4.59    c0.716-3.448,1.078-6.959,1.08-10.48c0.207-28.166-22.458-51.167-50.624-51.374S738.09,51.134,737.883,79.3    c-0.028,3.775,0.364,7.542,1.167,11.23c-11.046-7.92-26.42-5.386-34.341,5.659c-7.92,11.046-5.386,26.42,5.659,34.341    c8.573,6.147,20.109,6.147,28.681,0c-0.22,1-0.39,2.1-0.55,3.17c-13.602,25.947-5.179,57.589,18.585,73.568l2.315,21.402    c2.104,19.401,18.485,34.101,38,34.1c21.108,0.001,38.221-17.11,38.222-38.218c0-1.374-0.074-2.746-0.222-4.112l-2.618-24.158    c2.44-2.968,4.618-6.226,6.473-9.764c8.629-16.461,8.672-36.099,0.115-52.598c-0.16-1.14-0.34-2.28-0.57-3.39    c11.057,7.895,26.42,5.332,34.315-5.725C881.011,113.748,878.448,98.385,867.391,90.49z" style="fill:#575b62;"></path>
		<path d="M797.401,265.77c-0.001,0,0,0-0.001,0c-21.09,0.002-38.709-15.809-40.982-36.777l-2.168-20.036    c-23.156-16.362-31.505-46.541-20.45-72.354c-8.332,2.907-17.744,1.696-25.179-3.636c-12.373-8.871-15.221-26.154-6.35-38.527    c7.584-10.577,21.315-14.193,32.87-9.478c-0.186-1.889-0.272-3.788-0.259-5.685c0.219-29.775,24.655-53.816,54.396-53.602    c29.775,0.219,53.82,24.621,53.602,54.396c-0.001,1.635-0.077,3.277-0.226,4.914c3.161-1.297,6.544-1.992,10.021-2.043    c0.143-0.022,0.289-0.033,0.435-0.033c0.001,0,0.001,0,0.002,0c5.779,0.004,11.319,1.781,16.022,5.139l0,0    c12.385,8.844,15.267,26.115,6.423,38.5c-7.298,10.221-20.334,13.97-31.63,9.997c7.049,16.471,6.375,35.363-2.014,51.365    c-1.713,3.268-3.733,6.385-6.014,9.283l2.484,22.923c0.159,1.465,0.239,2.957,0.239,4.435    C838.621,247.279,820.128,265.77,797.401,265.77z M739.05,127.53c0.574,0,1.149,0.165,1.651,0.495    c1.038,0.684,1.546,1.937,1.279,3.15c-0.199,0.905-0.362,1.962-0.512,2.967c-0.05,0.332-0.154,0.653-0.31,0.95    c-12.783,24.385-5.216,54.344,17.601,69.686c0.735,0.494,1.213,1.287,1.309,2.167l2.315,21.402    c1.942,17.915,16.997,31.424,35.018,31.423c19.42,0.001,35.221-15.798,35.222-35.219c0-1.263-0.069-2.537-0.204-3.788    l-2.618-24.158c-0.087-0.802,0.153-1.605,0.665-2.229c2.35-2.858,4.413-5.97,6.133-9.252c8.168-15.581,8.209-34.207,0.109-49.823    c-0.157-0.302-0.261-0.628-0.308-0.965c-0.179-1.281-0.35-2.298-0.536-3.198c-0.25-1.209,0.265-2.448,1.3-3.122    c1.034-0.674,2.375-0.646,3.381,0.072c4.696,3.353,10.415,4.677,16.106,3.727c5.691-0.949,10.672-4.058,14.024-8.753    c6.921-9.693,4.666-23.209-5.026-30.131l0,0c-3.575-2.552-7.768-3.938-12.149-4.018c-0.129,0.018-0.226,0.021-0.391,0.026    c-0.006,0-0.012,0-0.018,0c-4.526,0-8.863,1.393-12.543,4.029c-1.005,0.719-2.348,0.749-3.384,0.075    c-1.036-0.674-1.552-1.915-1.301-3.125c0.673-3.24,1.016-6.561,1.018-9.871c0.195-26.487-21.179-48.177-47.646-48.372    c-0.12-0.001-0.239-0.001-0.358-0.001c-26.304,0-47.8,21.3-47.994,47.647c-0.026,3.549,0.344,7.105,1.099,10.57    c0.264,1.213-0.246,2.463-1.283,3.145c-1.037,0.682-2.388,0.655-3.396-0.069c-9.685-6.943-23.211-4.714-30.155,4.97    c-6.943,9.684-4.714,23.211,4.97,30.154c7.533,5.401,17.654,5.401,25.185,0C737.823,127.718,738.436,127.53,739.05,127.53z" style="fill:#222433;"></path>
	</g>
	<g>
		<path d="M846.277,26.192C840.549,14.294,828.574,6.71,815.25,6.71c-5.296,0-10.517,1.224-15.24,3.557    C793.552,3.714,784.746,0,775.49,0c-13.556,0-25.837,8.021-31.373,20.223c-2.015-0.42-4.073-0.633-6.146-0.633    c-16.531,0-29.98,13.449-29.98,29.98c0,15.521,11.856,28.325,26.987,29.832c-0.047,3.937,0.334,7.885,1.136,11.739    c0.224,1.077,1.019,1.944,2.071,2.262c1.053,0.316,2.195,0.032,2.976-0.74l8.824-8.734c6.375-6.274,16.725-6.251,23.071,0.05    c8.709,8.652,22.88,8.653,31.59-0.001c6.335-6.3,16.677-6.334,23.061-0.068l9,8.77c0.568,0.554,1.323,0.852,2.094,0.852    c0.293,0,0.588-0.043,0.877-0.131c1.047-0.32,1.837-1.186,2.06-2.259c0.417-2.012,0.721-4.085,0.907-6.192    c0.456,0.021,0.912,0.032,1.365,0.032c16.233,0,29.439-13.207,29.439-29.44C873.45,40.136,861.43,27.36,846.277,26.192z" style="fill:#1dcba0;"></path>
	</g>
	<g>
		<path d="M840.972,121.26c-0.886,0-1.763-0.39-2.355-1.139c-1.028-1.299-0.808-3.186,0.492-4.214l16.08-12.72    c1.3-1.028,3.186-0.808,4.214,0.492c1.028,1.299,0.808,3.186-0.492,4.214l-16.08,12.72    C842.28,121.048,841.624,121.26,840.972,121.26z" style="fill:#222433;"></path>
	</g>
	<g>
		<path d="M736.868,121.26c-0.652,0-1.309-0.211-1.86-0.648l-16.07-12.72c-1.299-1.028-1.519-2.915-0.491-4.214    c1.029-1.299,2.917-1.519,4.214-0.49l16.07,12.72c1.299,1.028,1.519,2.915,0.491,4.214    C738.63,120.87,737.753,121.26,736.868,121.26z" style="fill:#222433;"></path>
	</g>
	<g>
		<path d="M788.92,161.33c-0.371,0-0.742-0.068-1.097-0.208l-11.61-4.56c-1.542-0.606-2.301-2.347-1.696-3.889    c0.606-1.542,2.346-2.302,3.889-1.696l7.513,2.951V122.18c0-1.657,1.343-3,3-3s3,1.343,3,3v36.15c0,0.992-0.491,1.92-1.311,2.479    C790.105,161.153,789.514,161.33,788.92,161.33z" style="fill:#222433;"></path>
	</g>
	<g>
		<path d="M760.207,146.612c-11.057,0-20.053-8.995-20.053-20.052s8.996-20.052,20.053-20.052    c11.057,0,20.052,8.996,20.052,20.052S771.263,146.612,760.207,146.612z M760.207,112.507c-7.749,0-14.053,6.304-14.053,14.052    s6.304,14.052,14.053,14.052s14.052-6.304,14.052-14.052S767.955,112.507,760.207,112.507z" style="fill:#222433;"></path>
	</g>
	<g>
		<path d="M817.554,146.612c-11.057,0-20.053-8.995-20.053-20.052s8.996-20.052,20.053-20.052    c11.057,0,20.052,8.996,20.052,20.052S828.61,146.612,817.554,146.612z M817.554,112.507c-7.749,0-14.053,6.304-14.053,14.052    s6.304,14.052,14.053,14.052s14.052-6.304,14.052-14.052S825.302,112.507,817.554,112.507z" style="fill:#222433;"></path>
	</g>
	<g>
		<path d="M802.34,121.86h-25.081c-1.657,0-3-1.343-3-3s1.343-3,3-3h25.081c1.657,0,3,1.343,3,3    S803.997,121.86,802.34,121.86z" style="fill:#222433;"></path>
	</g>
	<g>
		<path d="M770.727,177.46c-1.525,0-2.83-1.158-2.982-2.707c-0.162-1.649,1.044-3.117,2.693-3.279l30.06-2.95    c1.65-0.164,3.116,1.044,3.279,2.693c0.162,1.649-1.044,3.117-2.693,3.279l-30.06,2.95    C770.923,177.455,770.824,177.46,770.727,177.46z" style="fill:#222433;"></path>
	</g>
	<g>
		<circle cx="817.49" cy="134.89" r="4.61" style="fill:#222433;"></circle>
	</g>
	<g>
		<circle cx="760.27" cy="134.89" r="4.61" style="fill:#222433;"></circle>
	</g>
	<g>
		<path d="M788.891,220.003c-3.557,0-7.115-0.317-10.65-0.95c-7.89-1.415-17.167-5.851-22.713-9.22    c-1.417-0.86-1.867-2.705-1.007-4.122c0.86-1.416,2.706-1.867,4.121-1.007c5.51,3.346,14.035,7.255,20.658,8.443    c6.538,1.171,13.164,1.14,19.692-0.095c1.631-0.306,3.198,0.762,3.505,2.39c0.308,1.628-0.762,3.197-2.39,3.505    C796.388,219.651,792.64,220.003,788.891,220.003z" style="fill:#222433;"></path>
	</g>
	<g>
		<path d="M435.49,421.121c20.407-9.47,31.585-22.732,63.487-7.261c14.348,7.001,34.861,19.73,41.105,5.838    c4.262-9.546-19.115-25.422-35.945-37.715c29.325,5.955,67.76,13.624,71.24,0.453c3.48-13.171-24.031-21.253-62.076-28.668    c43.203,0.814,65.83,7.086,67.66-5.817c2.964-21.376-83.793-33.068-114.899-27.3c-18.692,3.475-41.05,8.197-52.357,10.753    c-4.164,0.955-8.262,2.412-12.08,4.445l0,0c-20.601,10.721-32.584,34.965-24.599,56.895    C388.63,423.953,421.921,427.447,435.49,421.121z" style="fill:#575b62;"></path>
		<path d="M530.188,428.913c-8.19,0.001-18.224-5.11-27.271-9.717c-1.814-0.924-3.577-1.822-5.254-2.64    c-24.758-12.006-36.085-5.87-50.426,1.9c-3.301,1.788-6.715,3.638-10.478,5.384l0,0c-7.557,3.523-21.271,4.579-34.877-1.003    c-9.08-3.725-21.249-11.788-27.666-29.047c-8.215-22.562,2.977-48.607,26.026-60.602c3.873-2.063,8.186-3.651,12.793-4.708    c10.233-2.313,32.643-7.091,52.479-10.778c27.318-5.065,96.492,3.072,113.864,19.671c3.562,3.403,5.094,7.101,4.555,10.991    c-1.233,8.699-9.949,9.841-12.813,10.216c-5.949,0.78-14.238,0.358-24.63-0.272c17.331,4.905,26.64,9.868,30.35,15.786    c1.795,2.863,2.279,5.928,1.438,9.11c-3.474,13.152-28.064,10.723-61.376,4.365c16.056,11.84,30.226,23.709,25.92,33.353    c-1.609,3.581-4.125,5.992-7.481,7.174C533.735,428.661,532.006,428.913,530.188,428.913z M472.948,403.727    c7.498,0,16.251,2.056,27.339,7.434c1.713,0.836,3.507,1.749,5.353,2.689c9.489,4.832,21.299,10.845,27.708,8.586    c1.796-0.633,3.066-1.893,3.999-3.968c2.933-6.57-18.256-21.931-30.916-31.109c-1.383-1.003-2.743-1.989-4.063-2.953    c-1.139-0.832-1.544-2.344-0.975-3.634c0.569-1.29,1.958-2.01,3.342-1.729c13.88,2.819,31.155,6.326,44.937,7.347    c13.636,1.01,21.735-0.666,22.806-4.72c0.411-1.555,0.182-2.95-0.721-4.39c-5.737-9.151-34.56-15.798-59.028-20.567    c-1.527-0.298-2.574-1.714-2.41-3.261c0.165-1.547,1.463-2.693,3.04-2.683c11.854,0.223,21.971,0.844,30.896,1.391    c22.741,1.394,32.833,1.741,33.736-4.629c0.262-1.889-0.64-3.796-2.758-5.82c-15.767-15.064-82.514-22.951-108.624-18.11    c-19.751,3.672-42.064,8.428-52.242,10.729c-4.084,0.937-7.899,2.34-11.331,4.167c-20.413,10.623-30.372,33.497-23.19,53.221    c5.652,15.204,16.342,22.297,24.312,25.567c11.861,4.866,23.899,3.99,30.064,1.116c0.001-0.001,0.003-0.001,0.005-0.002    c3.596-1.669,6.928-3.474,10.15-5.219C453.472,408.253,461.828,403.727,472.948,403.727z" style="fill:#222433;"></path>
	</g>
	<g>
		<path d="M608.839,446.493c-0.393,0-0.792-0.077-1.175-0.241c-1.524-0.65-2.233-2.412-1.583-3.936l58-136    c0.65-1.524,2.413-2.233,3.937-1.583c1.524,0.65,2.233,2.412,1.583,3.936l-58,136    C611.114,445.809,610.005,446.493,608.839,446.493z" style="fill:#222433;"></path>
	</g>
</g>

            </g>
        </g>
    </g>
    
    <!-- ITEM 5 -->
    <g>
        <defs>
            <clipPath id="clip-path-id-viewbox-item-5">
                <rect x="0.0" y="0.0" width="360.48" height="291.619"/>
            </clipPath>
        </defs>
        <g transform="translate(465.0 203.0) rotate(0.0 121.5 98.5) scale(0.6741011984021305 0.6755389737980035)">
            <g clip-path="url(#clip-path-id-viewbox-item-5)" transform="translate(-0.0 -0.0)">
                
  
  <g>
    <path d="M180.245,50.121,0,0V55.518c28.655,2.564,60.145,9.664,71.092,20.123,3.565,3.407,5.1,7.109,4.559,11C74.416,95.351,65.692,96.5,62.825,96.87c-5.953.78-14.252.358-24.656-.273,17.349,4.91,26.667,9.879,30.381,15.8a11.193,11.193,0,0,1,1.44,9.119c-3.478,13.165-28.094,10.735-61.438,4.37C24.624,137.74,38.807,149.621,34.5,159.275a12.736,12.736,0,0,1-7.488,7.182,15.456,15.456,0,0,1-5.159.818c-6.582,0-14.354-3.3-21.85-6.985V241.5l180.245,50.121,153.044-42.56a17.545,17.545,0,0,0-.67-4.658c-15.051-8.658-30.912-16.4-52.8-4.632-1.743.935-3.571,1.958-5.45,3.01-11.207,6.272-23.907,13.38-33.1,10.526a12.988,12.988,0,0,1-7.916-7.055c-4.873-9.88,9.593-22.894,25.869-35.927-34.566,8.031-60.208,11.685-64.306-1.679a11.485,11.485,0,0,1,1.115-9.4c3.688-6.43,13.4-12.057,31.752-17.966-11.287,1.151-20.245,2.014-26.66,1.428-2.957-.271-11.955-1.095-13.578-10-.473-2.611-.2-6.589,3.8-10.73,17.086-17.688,91.632-24.95,119.6-20.879,24.088,3.516,38.839,6.371,45.487,7.76.086.018.171.039.254.064l3.8,1.145V0Z" style="         fill: #ffbe55;       "></path>
    <path d="M180.48,102.682a3,3,0,0,1-3-3v-50a3,3,0,1,1,6,0v50A3,3,0,0,1,180.48,102.682Z" style="         fill: #222433;       "></path>
  </g>

            </g>
        </g>
    </g>
    
    <!-- ITEM 6 -->
    <g>
        <defs>
            <clipPath id="clip-path-id-viewbox-item-6">
                <rect x="0.0" y="0.0" width="113.118" height="314.643"/>
            </clipPath>
        </defs>
        <g transform="translate(76.0 383.0) rotate(0.0 40.0 112.0) scale(0.7072260824979225 0.7119179514560947)">
            <g clip-path="url(#clip-path-id-viewbox-item-6)" transform="translate(-0.0 -0.0)">
                
  
  <g>
    <path d="M56.269,314.643a3,3,0,0,1-3-3V91.348a3,3,0,0,1,6,0V311.643A3,3,0,0,1,56.269,314.643Z" style="         fill: #222433;       "></path>
    <g>
      <path d="M99.057,3h0C93.182,3,88.384,8.312,88.384,14.816,88.384,8.312,83.586,3,77.711,3h0C71.836,3,67.038,8.312,67.038,14.816,67.038,8.312,62.24,3,56.365,3h0C50.49,3,45.692,8.312,45.692,14.816,45.692,8.312,40.894,3,35.019,3h0C29.144,3,24.346,8.312,24.346,14.816,24.346,8.312,19.548,3,13.673,3h0C7.8,3,3,8.312,3,14.816V64.464c0,32.737,23.989,59.3,53.559,59.3h0c29.57,0,53.559-26.558,53.559-59.3V14.816C109.828,8.312,105.03,3,99.057,3Z" style="         fill: #0078ff;       "></path>
      <path d="M56.559,126.764C25.372,126.764,0,98.816,0,64.464V14.816C0,6.646,6.134,0,13.673,0A13.292,13.292,0,0,1,24.346,5.565a13.017,13.017,0,0,1,21.346,0,13.017,13.017,0,0,1,21.346,0,13.017,13.017,0,0,1,21.346,0A13.292,13.292,0,0,1,99.057,0c7.516,0,13.691,6.449,14.058,14.682,0,.045,0,.089,0,.134V64.464C113.118,98.816,87.746,126.764,56.559,126.764ZM13.673,6C9.442,6,6,9.955,6,14.816V64.464c0,31.044,22.681,56.3,50.559,56.3s50.559-25.256,50.559-56.3V14.887C106.868,9.9,103.337,6,99.057,6c-4.231,0-7.673,3.955-7.673,8.816a3,3,0,1,1-6,0C85.384,9.955,81.941,6,77.711,6s-7.673,3.955-7.673,8.816a3,3,0,1,1-6,0C64.038,9.955,60.6,6,56.365,6s-7.673,3.955-7.673,8.816a3,3,0,0,1-6,0C42.692,9.955,39.25,6,35.019,6s-7.673,3.955-7.673,8.816a3,3,0,0,1-6,0C21.346,9.955,17.9,6,13.673,6Z" style="         fill: #222433;       "></path>
    </g>
    <path d="M88.385,63.562a3,3,0,0,1-3-3V13.949a3,3,0,1,1,6,0V60.562A3,3,0,0,1,88.385,63.562Z" style="         fill: #222433;       "></path>
    <path d="M66.941,63.562a3,3,0,0,1-3-3V13.949a3,3,0,1,1,6,0V60.562A3,3,0,0,1,66.941,63.562Z" style="         fill: #222433;       "></path>
    <path d="M45.5,63.562a3,3,0,0,1-3-3V13.949a3,3,0,1,1,6,0V60.562A3,3,0,0,1,45.5,63.562Z" style="         fill: #222433;       "></path>
    <path d="M24.153,63.562a3,3,0,0,1-3-3V13.949a3,3,0,1,1,6,0V60.562A3,3,0,0,1,24.153,63.562Z" style="         fill: #222433;       "></path>
  </g>

            </g>
        </g>
    </g>
    
    <!-- ITEM 7 -->
    <g>
        <defs>
            <clipPath id="clip-path-id-viewbox-item-7">
                <rect x="0.0" y="0.0" width="659.47" height="947.21"/>
            </clipPath>
        </defs>
        <g transform="translate(86.0 31.0) rotate(0.0 222.0 318.5) scale(0.6732679272749329 0.6725013460584242)">
            <g clip-path="url(#clip-path-id-viewbox-item-7)" transform="translate(-0.0 -0.0)">
                
  
  <g>
    <polygon points="86.441 745.14 0 947.21 117.76 947.21 162.504 840.643 86.441 745.14" style="         fill: #1dcba0;       "></polygon>
    <path d="M659.467,947.01h0L539.78,0l9.867,78.093L539.777.005H404.237l-257.07,602.22.041.05L109.454,690.73a60.549,60.549,0,0,1,27.893,11.695c2.169,1.265,27.071,15.716,57.514,30.408a113.125,113.125,0,0,0,10.949,4.6l13.37-31.853H518.154l13.7,112.794L547.46,947.21h112l-.029-.2h.036ZM280.217,560.775l171.6-407.9,49,407.9Z" style="         fill: #1dcba0;       "></path>
  </g>

            </g>
        </g>
    </g>
    
    <!-- ITEM 8 -->
    <g>
        <defs>
            <clipPath id="clip-path-id-viewbox-item-8">
                <rect x="0.0" y="0.0" width="109.38" height="537.58"/>
            </clipPath>
        </defs>
        <g transform="translate(1074.0 274.0) rotate(0.0 40.0 195.5) scale(0.7313951362223442 0.7273336061609434)">
            <g clip-path="url(#clip-path-id-viewbox-item-8)" transform="translate(-0.0 -0.0)">
                

<g>
	<g>
		<path d="M54.72,537.58c-1.657,0-3-1.343-3-3V81.45c0-1.657,1.343-3,3-3s3,1.343,3,3v453.13    C57.72,536.237,56.377,537.58,54.72,537.58z" style="fill:#ffbe55;"></path>
	</g>
	<g>
		<path d="M98.47,0L98.47,0c-6.036-0.006-10.934,4.884-10.94,10.92c0,0.003,0,0.007,0,0.01C87.53,4.894,82.636,0,76.6,0    c-0.003,0-0.007,0-0.01,0l0,0c-6.036,0-10.93,4.894-10.93,10.93C65.66,4.894,60.766,0,54.73,0c-0.003,0-0.007,0-0.01,0l0,0    c-6.036-0.006-10.934,4.884-10.94,10.92c0,0.003,0,0.007,0,0.01c0-6.029-4.881-10.919-10.91-10.93l0,0    c-6.036-0.039-10.961,4.823-11,10.86c0,0.023,0,0.047,0,0.07C21.87,4.894,16.976,0,10.94,0l0,0C4.904-0.005,0.006,4.884,0,10.92    c0,0.003,0,0.007,0,0.01V56.7c-0.005,30.199,24.471,54.684,54.67,54.69c0.007,0,0.013,0,0.02,0l0,0    c30.204,0,54.69-24.486,54.69-54.69l0,0V10.93C109.38,4.902,104.499,0.011,98.47,0z" style="fill:#82B1FF;"></path>
	</g>
	<g>
		<path d="M87.737,55.497c-1.657,0-3-1.343-3-3v-43c0-1.657,1.343-3,3-3s3,1.343,3,3v43    C90.737,54.154,89.393,55.497,87.737,55.497z" style="fill:#ffbe55;"></path>
	</g>
	<g>
		<path d="M65.737,55.497c-1.657,0-3-1.343-3-3v-43c0-1.657,1.343-3,3-3s3,1.343,3,3v43    C68.737,54.154,67.393,55.497,65.737,55.497z" style="fill:#ffbe55;"></path>
	</g>
	<g>
		<path d="M43.737,55.497c-1.657,0-3-1.343-3-3v-43c0-1.657,1.343-3,3-3s3,1.343,3,3v43    C46.737,54.154,45.393,55.497,43.737,55.497z" style="fill:#ffbe55;"></path>
	</g>
	<g>
		<path d="M21.737,55.497c-1.657,0-3-1.343-3-3v-43c0-1.657,1.343-3,3-3s3,1.343,3,3v43    C24.737,54.154,23.393,55.497,21.737,55.497z" style="fill:#ffbe55;"></path>
	</g>
</g>

            </g>
        </g>
    </g>
    
    <!-- ITEM 9 -->
    <g>
        <defs>
            <clipPath id="clip-path-id-viewbox-item-9">
                <rect x="0.0" y="0.0" width="158.729" height="309.907"/>
            </clipPath>
        </defs>
        <g transform="translate(1087.0 461.0) rotate(0.0 52.5 102.5) scale(0.6615048289852515 0.6614887692114086)">
            <g clip-path="url(#clip-path-id-viewbox-item-9)" transform="translate(-0.0 -0.0)">
                

<g>
	<g>
		<path d="M124.952,66.557l-94.45-5.32C14.433,60.331,2.141,46.571,3.047,30.502    C3.953,14.433,17.713,2.141,33.782,3.047l94.44,5.32c16.069,0.903,28.363,14.661,27.46,30.73    C154.779,55.166,141.021,67.46,124.952,66.557L124.952,66.557z M32.472,26.317c-3.218-0.122-5.925,2.387-6.047,5.604    c-0.119,3.137,2.267,5.805,5.397,6.036l94.44,5.32c3.218,0.122,5.925-2.387,6.047-5.604c0.119-3.137-2.267-5.805-5.397-6.036    L32.472,26.317z" style="fill:#0078ff;"></path>
		<path d="M126.607,69.604c-0.604,0-1.211-0.017-1.822-0.051h-0.002l-94.449-5.32    c-8.572-0.483-16.442-4.275-22.162-10.678c-5.719-6.403-8.603-14.649-8.119-23.221C0.534,21.762,4.326,13.891,10.73,8.172    s14.647-8.605,23.221-8.12l94.44,5.32c8.571,0.482,16.441,4.273,22.162,10.674c5.721,6.402,8.606,14.648,8.124,23.22    C157.717,56.349,143.51,69.604,126.607,69.604z M125.119,63.562c14.408,0.816,26.758-10.241,27.567-24.633    c0.392-6.971-1.955-13.678-6.607-18.885c-4.652-5.207-11.055-8.29-18.025-8.682l-94.441-5.32    c-6.968-0.397-13.678,1.952-18.886,6.604C9.52,17.298,6.435,23.699,6.042,30.671C5.65,37.642,7.994,44.35,12.646,49.557    c4.652,5.208,11.054,8.292,18.025,8.685L125.119,63.562L125.119,63.562z M126.491,46.281c-0.114,0-0.229-0.002-0.344-0.007    l-94.495-5.323c-4.816-0.355-8.406-4.37-8.226-9.145c0.09-2.357,1.092-4.538,2.821-6.141c1.729-1.603,3.965-2.441,6.338-2.347    c0.018,0.001,0.036,0.001,0.055,0.002l94.439,5.32c4.817,0.355,8.407,4.37,8.227,9.145c-0.09,2.357-1.092,4.538-2.821,6.141    C130.84,45.453,128.723,46.281,126.491,46.281z M32.248,29.313c-0.716,0-1.394,0.265-1.921,0.754    c-0.555,0.514-0.876,1.213-0.904,1.968c-0.059,1.531,1.092,2.817,2.619,2.93l94.389,5.317c0.704,0.029,1.422-0.241,1.976-0.755    c0.555-0.514,0.876-1.213,0.904-1.968c0.059-1.53-1.093-2.817-2.62-2.93l-94.355-5.315C32.306,29.313,32.277,29.313,32.248,29.313    z" style="fill:#222433;"></path>
	</g>
	<g>
		<path d="M114.642,144.297c-10.74-0.6-40.22-21.78-40.22-21.78s31.67-17.73,42.42-17.12    c10.742,0.607,18.958,9.808,18.35,20.55C134.585,136.689,125.384,144.904,114.642,144.297L114.642,144.297z" style="fill:#1dcba0;"></path>
	</g>
	<g>
		<path d="M32.012,139.647c10.74,0.6,42.41-17.13,42.41-17.13s-29.47-21.17-40.22-21.78    c-10.732-0.828-20.104,7.2-20.932,17.932s7.2,20.104,17.932,20.932C31.472,139.622,31.742,139.637,32.012,139.647L32.012,139.647z    " style="fill:#1dcba0;"></path>
	</g>
	<g>
		<path d="M64.045,309.907c-0.057,0-0.114-0.001-0.172-0.005c-1.654-0.093-2.92-1.51-2.826-3.164l13.682-243.01    c0.094-1.654,1.508-2.916,3.164-2.827c1.654,0.093,2.92,1.51,2.826,3.164l-13.682,243.01    C66.948,308.672,65.624,309.907,64.045,309.907z" style="fill:#222433;"></path>
	</g>
</g>

            </g>
        </g>
    </g>
    
    <!-- ITEM 10 -->
    <g>
        <defs>
            <clipPath id="clip-path-id-viewbox-item-10">
                <rect x="0.0" y="0.0" width="83.66" height="83.66"/>
            </clipPath>
        </defs>
        <g transform="translate(144.0 177.0) rotate(0.0 27.5 27.5) scale(0.6574229022232847 0.6574229022232847)">
            <g clip-path="url(#clip-path-id-viewbox-item-10)" transform="translate(-0.0 -0.0)">
                

<g>
	<g>
		<path d="M41.83,83.66c-1.657,0-3-1.343-3-3V3c0-1.657,1.343-3,3-3s3,1.343,3,3v77.66    C44.83,82.317,43.487,83.66,41.83,83.66z" style="fill:#222433;"></path>
	</g>
	<g>
		<path d="M80.66,44.83H3c-1.657,0-3-1.343-3-3s1.343-3,3-3h77.66c1.657,0,3,1.343,3,3S82.317,44.83,80.66,44.83z" style="fill:#222433;"></path>
	</g>
	<g>
		<path d="M14.37,72.29c-0.768,0-1.536-0.293-2.121-0.879c-1.172-1.172-1.172-3.071,0-4.243l54.92-54.91    c1.172-1.171,3.072-1.171,4.242,0c1.172,1.172,1.172,3.071,0,4.243l-54.92,54.91C15.905,71.997,15.138,72.29,14.37,72.29z" style="fill:#222433;"></path>
	</g>
	<g>
		<path d="M69.29,72.29c-0.768,0-1.535-0.293-2.121-0.878l-54.92-54.91c-1.172-1.172-1.172-3.071,0-4.243    c1.17-1.172,3.07-1.172,4.242,0l54.92,54.91c1.172,1.172,1.172,3.071,0,4.243C70.826,71.997,70.058,72.29,69.29,72.29z" style="fill:#222433;"></path>
	</g>
</g>

            </g>
        </g>
    </g>
    
    <!-- ITEM 11 -->
    <g>
        <defs>
            <clipPath id="clip-path-id-viewbox-item-11">
                <rect x="0.0" y="0.0" width="83.66" height="83.66"/>
            </clipPath>
        </defs>
        <g transform="translate(961.0 294.0) rotate(0.0 27.0 27.0) scale(0.6454697585464978 0.6454697585464978)">
            <g clip-path="url(#clip-path-id-viewbox-item-11)" transform="translate(-0.0 -0.0)">
                

<g>
	<g>
		<path d="M41.83,83.66c-1.657,0-3-1.343-3-3V3c0-1.657,1.343-3,3-3s3,1.343,3,3v77.66    C44.83,82.317,43.487,83.66,41.83,83.66z" style="fill:#222433;"></path>
	</g>
	<g>
		<path d="M80.66,44.83H3c-1.657,0-3-1.343-3-3s1.343-3,3-3h77.66c1.657,0,3,1.343,3,3S82.317,44.83,80.66,44.83z" style="fill:#222433;"></path>
	</g>
	<g>
		<path d="M14.37,72.29c-0.768,0-1.536-0.293-2.121-0.879c-1.172-1.172-1.172-3.071,0-4.243l54.92-54.91    c1.172-1.171,3.072-1.171,4.242,0c1.172,1.172,1.172,3.071,0,4.243l-54.92,54.91C15.905,71.997,15.138,72.29,14.37,72.29z" style="fill:#222433;"></path>
	</g>
	<g>
		<path d="M69.29,72.29c-0.768,0-1.535-0.293-2.121-0.878l-54.92-54.91c-1.172-1.172-1.172-3.071,0-4.243    c1.17-1.172,3.07-1.172,4.242,0l54.92,54.91c1.172,1.172,1.172,3.071,0,4.243C70.826,71.997,70.058,72.29,69.29,72.29z" style="fill:#222433;"></path>
	</g>
</g>

            </g>
        </g>
    </g>
    
    <!-- ITEM 12 -->
    <g>
        <defs>
            <clipPath id="clip-path-id-viewbox-item-12">
                <rect x="0.0" y="0.0" width="36.2" height="23.67"/>
            </clipPath>
        </defs>
        <g transform="translate(296.0 647.0) rotate(0.0 13.5 9.0) scale(0.7458563535911602 0.7604562737642585)">
            <g clip-path="url(#clip-path-id-viewbox-item-12)" transform="translate(-0.0 -0.0)">
                
  
  <g>
    <path d="M9.842,23.671a3,3,0,0,1-2.714-1.718L.288,7.493A3,3,0,0,1,5.712,4.927l6.84,14.46a3,3,0,0,1-2.71,4.284Z" style="         fill: #222433;       "></path>
    <path d="M26.358,23.671a3,3,0,0,1-2.71-4.284l6.84-14.46a3,3,0,1,1,5.424,2.566l-6.84,14.46A3,3,0,0,1,26.358,23.671Z" style="         fill: #222433;       "></path>
    <path d="M18.1,23.67a3,3,0,0,1-3-3V3a3,3,0,1,1,6,0V20.67A3,3,0,0,1,18.1,23.67Z" style="         fill: #222433;       "></path>
  </g>

            </g>
        </g>
    </g>
    
    <!-- ITEM 13 -->
    <g>
        <defs>
            <clipPath id="clip-path-id-viewbox-item-13">
                <rect x="0.0" y="0.0" width="36.2" height="23.67"/>
            </clipPath>
        </defs>
        <g transform="translate(1043.0 650.0) rotate(0.0 13.0 8.5) scale(0.718232044198895 0.7182087029995775)">
            <g clip-path="url(#clip-path-id-viewbox-item-13)" transform="translate(-0.0 -0.0)">
                
  
  <g>
    <path d="M9.842,23.671a3,3,0,0,1-2.714-1.718L.288,7.493A3,3,0,0,1,5.712,4.927l6.84,14.46a3,3,0,0,1-2.71,4.284Z" style="         fill: #222433;       "></path>
    <path d="M26.358,23.671a3,3,0,0,1-2.71-4.284l6.84-14.46a3,3,0,1,1,5.424,2.566l-6.84,14.46A3,3,0,0,1,26.358,23.671Z" style="         fill: #222433;       "></path>
    <path d="M18.1,23.67a3,3,0,0,1-3-3V3a3,3,0,1,1,6,0V20.67A3,3,0,0,1,18.1,23.67Z" style="         fill: #222433;       "></path>
  </g>

            </g>
        </g>
    </g>
    
    <!-- ITEM 14 -->
    <g>
        <defs>
            <clipPath id="clip-path-id-viewbox-item-14">
                <rect x="0.0" y="0.0" width="1626.4" height="11.4"/>
            </clipPath>
        </defs>
        <g transform="translate(61.0 662.0) rotate(0.0 555.5 4.0) scale(0.6831037875061485 0.7017543859649122)">
            <g clip-path="url(#clip-path-id-viewbox-item-14)" transform="translate(-0.0 -0.0)">
                

<path d="M1623.4,8.8H3c-1.7,0-3-1.3-3-3s1.3-3,3-3h1620.4c1.7,0,3,1.3,3,3S1625.1,8.8,1623.4,8.8z" style="fill:#222433;"></path>

            </g>
        </g>
    </g>
    
</svg>