<?xml version="1.0" encoding="iso-8859-1" ?>
<svg version="1.1" xmlns="http://www.w3.org/2000/svg" xmlns:xlink="http://www.w3.org/1999/xlink" 
    viewBox="0 0 1600 1200" width="1600" height="1200">
    
    
    <!-- ITEM 0 -->
    <g>
        <defs>
            <clipPath id="clip-path-id-crop-item-0">
                
          <rect transform="scale(2.616248366013072 3.576230769230769)" x="0.0" y="0.0" width="78.0" height="14.0" />
        
            </clipPath>
            
            <clipPath id="clip-path-id-viewbox-item-0">
                <rect x="0.0" y="0.0" width="400.286" height="46.491"/>
            </clipPath>
        </defs>
        <g clip-path="url(#clip-path-id-crop-item-0)" transform="translate(1601.0 306.0) rotate(-90.00000000000013 76.5 6.5) scale(0.3822267079038488 0.27962401324987635)">
            <g clip-path="url(#clip-path-id-viewbox-item-0)" transform="translate(-0.0 -0.0)">
                
<g>
	<g>
		<g>
			<rect style="fill:#262103;" width="400.286" height="46.491"></rect>
		</g>
	</g>
</g>

            </g>
        </g>
    </g>
    
    <!-- ITEM 1 -->
    <g>
        <defs>
            <clipPath id="clip-path-id-crop-item-1">
                
          <rect transform="scale(0.45249999999999996 0.4483550295857988)" x="0.0" y="0.0" width="542.0" height="845.0" />
        
            </clipPath>
            
            <clipPath id="clip-path-id-viewbox-item-1">
                <rect x="0.0" y="0.0" width="240.73" height="378.86"/>
            </clipPath>
        </defs>
        <g clip-path="url(#clip-path-id-crop-item-1)" transform="translate(709.0 154.0) rotate(0.0 266.0 422.5) scale(2.2099447513812156 2.2303753365359236)">
            <g clip-path="url(#clip-path-id-viewbox-item-1)" transform="translate(-0.0 -0.0)">
                <g id="Smartphone-i2"><path d="M163.12,378.86H52.92c-32.66,0-52.14-17-52.14-49.69v-251C.78,46,20.44,25,52.57,25H164.7c32.12,0,50.56,20.47,50.56,52.6V328.69C215.26,361.35,195.78,378.86,163.12,378.86Z" style="fill:#ffcc51;"></path><rect x="18.86" y="41.21" width="178.32" height="324.87" rx="44.22" style="fill:#2654a4;"></rect><path d="M240.67,99.56H228.06V86.75c0-44.77-28.77-73.7-73.29-73.7V.45c51.38,0,85.9,34.68,85.9,86.3Z" style="fill:#262103;"></path><path d="M61.27,35.15h93.51a0,0,0,0,1,0,0V43a18.23,18.23,0,0,1-18.23,18.23h-57A18.23,18.23,0,0,1,61.27,43V35.15A0,0,0,0,1,61.27,35.15Z" style="fill:#ffcc51;"></path></g>
            </g>
        </g>
    </g>
    
    <!-- ITEM 2 -->
    <g>
        <defs>
            <clipPath id="clip-path-id-viewbox-item-2">
                <rect x="0.0" y="0.0" width="1154.773" height="12.0"/>
            </clipPath>
        </defs>
        <g transform="translate(134.0 1012.0) rotate(0.0 682.5 5.0) scale(1.18205049823645 0.8333333333333334)">
            <g clip-path="url(#clip-path-id-viewbox-item-2)" transform="translate(-0.0 -0.0)">
                
<g>
	<g>
		<g>
			<rect x="0" y="0" style="fill:#262103;" width="1154.773" height="12"></rect>
		</g>
	</g>
</g>

            </g>
        </g>
    </g>
    
    <!-- ITEM 3 -->
    <g>
        <defs>
            <clipPath id="clip-path-id-viewbox-item-3">
                <rect x="0.0" y="0.0" width="183.0" height="183.0"/>
            </clipPath>
        </defs>
        <g transform="translate(753.0 413.0) rotate(0.0 91.5 91.5) scale(1.0 1.0)">
            <g clip-path="url(#clip-path-id-viewbox-item-3)" transform="translate(-0.0 -0.0)">
                <circle cx="91.5" cy="91.5" r="86.5" fill="#f6e049"></circle><path d="M91.5,183A91.5,91.5,0,1,1,183,91.5,91.608,91.608,0,0,1,91.5,183Zm0-173.1A81.5,81.5,0,1,0,173,91.4,81.578,81.578,0,0,0,91.5,9.9Z" fill="#383a48"></path><circle cx="91.5" cy="67.5" r="22.6" fill="#f3f6e6"></circle><path d="M91.5,95.1a27.6,27.6,0,1,1,27.6-27.6A27.655,27.655,0,0,1,91.5,95.1Zm0-45.1a17.6,17.6,0,1,0,17.6,17.6A17.626,17.626,0,0,0,91.5,50Z" fill="#383a48"></path><path d="M127.1,134.1h-71v-8.5A35.508,35.508,0,0,1,91.6,90.1h0a35.508,35.508,0,0,1,35.5,35.5Z" fill="#f3f6e6"></path><path d="M127.1,139.1h-71a4.951,4.951,0,0,1-5-5v-8.5a40.5,40.5,0,0,1,81,0v8.5A5.015,5.015,0,0,1,127.1,139.1ZM61,129.1h61v-3.5a30.5,30.5,0,0,0-61,0Z" fill="#383a48"></path>
            </g>
        </g>
    </g>
    
    <!-- ITEM 4 -->
    <g>
        <defs>
            <clipPath id="clip-path-id-viewbox-item-4">
                <rect x="0.0" y="0.0" width="248.0" height="600.0"/>
            </clipPath>
        </defs>
        <g transform="translate(545.0 270.0) rotate(0.0 -153.5 371.5) scale(-1.2379032258064515 1.2383333333333333)">
            <g clip-path="url(#clip-path-id-viewbox-item-4)" transform="translate(-0.0 -0.0)">
                
<linearGradient id="R_shoe_1_-i12" gradientUnits="userSpaceOnUse" x1="6376.3135" y1="9280.0176" x2="4682.6567" y2="8218.9297" gradientTransform="matrix(0.0741 0 0 0.0741 -230.5491 -49.4972)">
	<stop offset="0.1291" style="stop-color:#428DFC"></stop>
	<stop offset="0.9987" style="stop-color:#1D72D8"></stop>
</linearGradient>
<path id="R_shoe-i12" fill="url(#R_shoe_1_-i12)" d="M195.148,550.192h-38.444c0,0-20.036,18.868-41.526,28.07  c-21.49,9.2-27.937,21.622-27.937,21.622l125.728-0.004l-17.809-49.626"></path>
<path id="L_shoe-i12" fill="#428DFC" d="M116.954,550.192l-40.475-0.004c0,0-17.41,18.99-38.902,28.191  C16.087,587.578,9.641,600,9.641,600l125.728-0.004L116.954,550.192"></path>
<linearGradient id="R_hand_1_-i12" gradientUnits="userSpaceOnUse" x1="-4149.6216" y1="1658.4377" x2="-4031.4214" y2="2281.6724" gradientTransform="matrix(-0.0741 0 0 0.0741 -237.6964 -49.4972)">
	<stop offset="0" style="stop-color:#FFBEB6"></stop>
	<stop offset="1" style="stop-color:#F2A19C"></stop>
</linearGradient>
<path id="R_hand-i12" fill="url(#R_hand_1_-i12)" d="M70.604,141.81c0,0-11.769-6.099-13.07-12.682  c-1.102-5.571-11.659-11.262-11.659-11.262l8.797,17.534l4.636,9.821C59.308,145.219,73.581,163.788,70.604,141.81z"></path>
<path id="phone-i12" fill="#23286B" d="M32.585,140.425l22.349-5.086c1.324-0.301,2.153-1.617,1.851-2.939  c-0.078-0.342-0.228-0.664-0.441-0.942L26.895,92.836c-0.594-0.779-1.595-1.131-2.547-0.896L1.867,97.51  c-1.318,0.327-2.121,1.658-1.794,2.975c0.082,0.332,0.233,0.642,0.442,0.913l29.579,38.138  C30.681,140.29,31.652,140.636,32.585,140.425z"></path>
<linearGradient id="L_hand_1_-i12" gradientUnits="userSpaceOnUse" x1="-3710.6526" y1="2461.6775" x2="-4061.5891" y2="2808.113" gradientTransform="matrix(-0.0741 -7.542857e-004 -7.542857e-004 0.0741 -236.7857 -49.4683)">
	<stop offset="0" style="stop-color:#FFBEB6"></stop>
	<stop offset="1" style="stop-color:#F2A19C"></stop>
</linearGradient>
<path id="L_hand-i12" fill="url(#L_hand_1_-i12)" d="M64.498,144.076c0,0-7.087-4.01-9.826-8.676c0,0-4.198,0.973-6.817,1.397  c0,0-0.342-6.654-13.491-7.778c-11.856-1.014-10.293-3.588-17.629-5.984s-10.327-0.234-10.741,2.213c0,0,7.72,2.787,9.498,5.643  c1.778,2.856,3.902,9.842,10.336,12.102c6.433,2.259,29.072,5.03,33.699,19.911l0,0L64.498,144.076"></path>
<linearGradient id="R_sleeve_1_-i12" gradientUnits="userSpaceOnUse" x1="-5136.7646" y1="1800.3082" x2="-4802.5239" y2="3105.9412" gradientTransform="matrix(-0.0741 0 0 0.0741 -237.6964 -49.4972)">
	<stop offset="0" style="stop-color:#23286B"></stop>
	<stop offset="0.361" style="stop-color:#1E2361"></stop>
	<stop offset="1" style="stop-color:#151A4F"></stop>
</linearGradient>
<path id="R_sleeve-i12" fill="url(#R_sleeve_1_-i12)" d="M60.472,182.348c0,0,4.529,9.368,20.373,10.016  c15.843,0.648,19.406,3.228,31.049,10.665c11.644,7.437,33.632,10.335,55.635-23.911c20.193-31.458,27.031-66.172,23.48-84.646  c-1.658-11.076-2.135-15.084-3.8-18.565c-0.227-0.474-7.112,4.137-8.922,5.348c-2.789,1.864-11.199,8.464-13.272,8.587  c-3.743,12.363-10.106,64.167-39.098,64.232c-30.474,0.069-54.133-16.956-54.133-16.956L60.472,182.348z"></path>
<linearGradient id="R_trousers_1_-i12" gradientUnits="userSpaceOnUse" x1="1324.656" y1="3980.6438" x2="6463.1831" y2="6363.728" gradientTransform="matrix(0.0741 0 0 0.0741 -230.5491 -49.4972)">
	<stop offset="0" style="stop-color:#A1C3FC"></stop>
	<stop offset="0.6955" style="stop-color:#81AEF2"></stop>
	<stop offset="1" style="stop-color:#78A9EF"></stop>
</linearGradient>
<path id="R_trousers-i12" fill="url(#R_trousers_1_-i12)" d="M151.387,239.04c0,0-43.443,90.734-53.301,130.354  c-8.374,33.652,42.782,180.797,42.782,180.797h54.281c0,0,9.579-22.441-0.639-43.601c-10.218-21.159-4.47-26.289-5.109-42.96  c-0.639-16.672-1.916-42.317-14.688-70.53c-12.773-28.212,26.821-58.989,37.039-78.225c10.218-19.236,25.544-58.347,17.879-79.506  c0,0-38.216,2.033-40.771,2.675C186.307,238.687,151.387,239.038,151.387,239.04"></path>
<path id="L_trousers-i12" fill="#A1C3FC" d="M242.365,216.923c-0.761,0.411-3.206,1.626-6.234,3.114  c-10.677,5.252-22.675,7.217-34.472,5.647l-45.114-6.018c-1.412,20.224-22.04,79.811-22.04,79.811  c-9.03,22.797-19.575,65.683-29.372,98.604c-10.079,33.868-32.689,136.538-36.457,152.111h48.275  c20.729-17.328,26.019-38.958,37.506-73.568c14.064-42.367,16.853-26.707,26.248-68.185c9.392-41.464,8.135-33.001,37.746-87.574  C247.302,267.688,243.376,219.013,242.365,216.923z"></path>
<path id="texture-i12" opacity="0.86" fill="#FFFFFF" enable-background="new    " d="M209.229,254.869  c-0.163-0.065-0.346,0.015-0.41,0.179l0,0c-0.071,0.152-0.004,0.333,0.148,0.403c0.004,0.001,0.006,0.002,0.01,0.004  c0.163,0.065,0.346-0.015,0.41-0.179c0,0,0,0,0-0.001C209.45,255.121,209.382,254.942,209.229,254.869z M202.211,251.993  c-0.163-0.064-0.346,0.016-0.41,0.179c-0.065,0.161,0.016,0.346,0.179,0.41c0.163,0.064,0.346-0.016,0.41-0.179  C202.448,252.241,202.369,252.062,202.211,251.993z M195.213,249.119c-0.163-0.064-0.346,0.016-0.41,0.179s0.016,0.346,0.179,0.41  c0.152,0.061,0.323-0.013,0.385-0.164c0.002-0.005,0.004-0.011,0.006-0.016c0.075-0.142,0.02-0.316-0.12-0.391  C195.238,249.129,195.225,249.124,195.213,249.119L195.213,249.119z M188.194,246.243c-0.168-0.053-0.346,0.039-0.399,0.207  c-0.048,0.152,0.023,0.315,0.168,0.382c0.163,0.064,0.346-0.016,0.41-0.179C188.436,246.492,188.357,246.307,188.194,246.243z   M181.195,243.37c-0.163-0.064-0.346,0.016-0.41,0.179c-0.064,0.162,0.016,0.346,0.179,0.41c0.163,0.064,0.346-0.016,0.41-0.179  C181.439,243.618,181.358,243.434,181.195,243.37L181.195,243.37L181.195,243.37z M186.91,277.633  c-0.067-0.157-0.248-0.23-0.405-0.163c-0.157,0.067-0.23,0.248-0.164,0.405c0.067,0.157,0.248,0.23,0.405,0.163l0,0  C186.904,277.971,186.977,277.791,186.91,277.633L186.91,277.633L186.91,277.633z M183.996,270.654  c-0.055-0.152-0.222-0.232-0.374-0.177c-0.011,0.004-0.022,0.009-0.033,0.013c-0.16,0.061-0.243,0.24-0.184,0.403  c0.077,0.157,0.263,0.229,0.427,0.165C183.99,270.994,184.063,270.812,183.996,270.654L183.996,270.654L183.996,270.654z   M181.084,263.677c-0.074-0.16-0.256-0.241-0.425-0.187c-0.157,0.077-0.229,0.263-0.166,0.426c0.067,0.157,0.248,0.23,0.405,0.163  l0,0C181.059,264.018,181.141,263.84,181.084,263.677L181.084,263.677z M178.151,256.677c-0.067-0.157-0.248-0.23-0.405-0.163l0,0  c-0.159,0.076-0.232,0.263-0.166,0.426c0.067,0.157,0.248,0.23,0.405,0.163l0,0C178.144,257.027,178.217,256.84,178.151,256.677  L178.151,256.677z M154.849,277.547c-0.157-0.058-0.332,0.024-0.389,0.181c-0.075,0.142-0.02,0.316,0.12,0.391  c0.011,0.006,0.024,0.011,0.037,0.016c0.163,0.064,0.346-0.016,0.41-0.179C155.093,277.796,155.012,277.611,154.849,277.547  L154.849,277.547z M197.635,265.366c-0.12-0.118-0.312-0.115-0.43,0.005s-0.115,0.311,0.005,0.429  c0.12,0.118,0.312,0.115,0.43-0.005l0,0c0.118-0.108,0.125-0.291,0.017-0.408C197.651,265.381,197.643,265.372,197.635,265.366  L197.635,265.366z M192.266,260.02c-0.12-0.115-0.312-0.114-0.43,0.005c-0.047,0.049-0.078,0.113-0.088,0.18  c-0.016,0.1,0.017,0.2,0.092,0.27c0.013,0.018,0.037,0.029,0.06,0.029l0.022,0.002c0.11,0.074,0.257,0.059,0.349-0.038  c0.124-0.118,0.129-0.314,0.01-0.439C192.274,260.027,192.27,260.023,192.266,260.02L192.266,260.02z M186.894,254.694  c-0.12-0.116-0.312-0.115-0.43,0.005c-0.118,0.12-0.115,0.311,0.005,0.429c0.114,0.121,0.304,0.129,0.426,0.016  c0.124-0.118,0.129-0.314,0.01-0.439C186.901,254.702,186.898,254.698,186.894,254.694L186.894,254.694z M181.524,249.347  c-0.12-0.115-0.312-0.114-0.43,0.005c-0.124,0.118-0.129,0.314-0.01,0.439c0.004,0.004,0.007,0.007,0.011,0.011  c0.108,0.118,0.291,0.125,0.408,0.017c0.007-0.007,0.015-0.013,0.022-0.022c0.124-0.12,0.126-0.317,0.006-0.442  C181.529,249.352,181.527,249.35,181.524,249.347L181.524,249.347z M170.775,276.644c-0.177,0-0.321,0.145-0.321,0.322  c0,0.176,0.142,0.32,0.318,0.321c0.177,0,0.321-0.145,0.321-0.322C171.093,276.789,170.951,276.645,170.775,276.644z   M170.751,269.081c-0.176,0.004-0.318,0.145-0.323,0.32c-0.001,0.164,0.131,0.3,0.297,0.303c0.009,0,0.017,0,0.027-0.001  c0.171,0.006,0.315-0.128,0.32-0.298l0,0C171.062,269.23,170.923,269.093,170.751,269.081L170.751,269.081z M227.955,279.088  c-0.24-0.218-0.611-0.201-0.829,0.039c-0.005,0.005-0.01,0.01-0.013,0.016c-0.212,0.24-0.187,0.608,0.055,0.818  c0.001,0.001,0.002,0.002,0.004,0.004c0.24,0.218,0.611,0.201,0.829-0.039c0.005-0.005,0.01-0.01,0.013-0.016  c0.212-0.24,0.187-0.607-0.053-0.818C227.959,279.09,227.956,279.089,227.955,279.088L227.955,279.088z M217.106,269.664  c-0.241-0.212-0.609-0.187-0.819,0.054c-0.001,0.001-0.002,0.002-0.004,0.004c-0.218,0.248-0.194,0.626,0.055,0.842  c0.248,0.218,0.626,0.194,0.843-0.054C217.386,270.254,217.352,269.881,217.106,269.664L217.106,269.664z M206.275,260.264  c-0.248-0.218-0.626-0.192-0.844,0.054c-0.218,0.248-0.192,0.626,0.055,0.844c0.247,0.218,0.626,0.192,0.843-0.054l0,0  c0.218-0.239,0.202-0.61-0.038-0.828C206.286,260.275,206.28,260.269,206.275,260.264L206.275,260.264z M195.442,250.865  c-0.24-0.218-0.611-0.201-0.829,0.039c-0.005,0.005-0.008,0.01-0.013,0.016c-0.136,0.143-0.187,0.347-0.139,0.538l0.022,0.002  c0.023,0.116,0.083,0.223,0.172,0.303c0.057,0.05,0.127,0.083,0.202,0.092c0.299,0.118,0.639-0.029,0.757-0.329  C195.704,251.291,195.635,251.026,195.442,250.865L195.442,250.865z M184.284,315.304c-0.327,0.023-0.576,0.303-0.558,0.63  c0.016,0.315,0.286,0.556,0.601,0.539c0.01,0,0.022-0.001,0.032-0.002c0.327-0.023,0.576-0.303,0.558-0.63  C184.892,315.518,184.608,315.277,184.284,315.304C184.285,315.304,184.285,315.304,184.284,315.304L184.284,315.304z   M183.268,300.985c-0.323,0.027-0.564,0.309-0.538,0.632c0,0,0,0,0,0.001c0.02,0.328,0.301,0.577,0.63,0.558  c0.328-0.02,0.578-0.301,0.558-0.63l0,0C183.88,301.218,183.597,300.976,183.268,300.985L183.268,300.985z M182.27,286.67  c-0.328,0.038-0.573,0.321-0.562,0.651c0.016,0.315,0.286,0.556,0.601,0.539c0.01,0,0.022-0.001,0.032-0.002  c0.323-0.013,0.573-0.287,0.561-0.608c0-0.007-0.001-0.013-0.001-0.022C182.878,286.903,182.598,286.654,182.27,286.67  L182.27,286.67z M181.249,272.373c-0.323,0.027-0.564,0.309-0.538,0.632c0,0,0,0,0,0.001c0.023,0.328,0.306,0.575,0.634,0.554  c0.328-0.023,0.576-0.306,0.554-0.633c-0.023-0.328-0.306-0.576-0.634-0.554C181.261,272.373,181.255,272.373,181.249,272.373z   M180.253,258.059c-0.328,0.032-0.569,0.324-0.537,0.652c0.032,0.32,0.31,0.556,0.628,0.538c0.316-0.016,0.556-0.286,0.54-0.601  c0-0.01-0.001-0.022-0.002-0.032C180.86,258.291,180.58,258.043,180.253,258.059L180.253,258.059z M234.199,254.445  c-0.311-0.105-0.648,0.059-0.758,0.367c-0.108,0.31,0.057,0.649,0.367,0.757c0.311,0.108,0.65-0.057,0.758-0.367  C234.674,254.893,234.511,254.554,234.199,254.445L234.199,254.445z M220.573,249.906c-0.295-0.106-0.621,0.047-0.727,0.342  c-0.004,0.008-0.006,0.017-0.009,0.027c-0.113,0.301,0.042,0.637,0.344,0.75c0.301,0.113,0.638-0.042,0.751-0.343  c0.005-0.012,0.009-0.027,0.012-0.039c0.106-0.295-0.047-0.622-0.344-0.726C220.59,249.911,220.581,249.908,220.573,249.906z   M212.484,301.02c-0.141-0.303-0.5-0.434-0.802-0.293c-0.303,0.141-0.434,0.499-0.293,0.801s0.5,0.434,0.802,0.293  c0.004-0.001,0.007-0.004,0.011-0.005C212.496,301.67,212.62,301.318,212.484,301.02L212.484,301.02z M206.072,288.184  c-0.141-0.303-0.5-0.434-0.802-0.293c-0.303,0.141-0.434,0.499-0.293,0.801c0.141,0.303,0.5,0.434,0.802,0.293  c0.004-0.001,0.007-0.004,0.011-0.005C206.084,288.835,206.21,288.482,206.072,288.184L206.072,288.184z M199.661,275.349  c-0.16-0.291-0.521-0.405-0.822-0.263c-0.295,0.156-0.408,0.521-0.252,0.815c0.15,0.284,0.497,0.402,0.789,0.266  C199.67,276.009,199.796,275.653,199.661,275.349L199.661,275.349z M193.226,262.53c-0.136-0.295-0.485-0.424-0.781-0.289  c-0.295,0.136-0.425,0.485-0.289,0.78c0.004,0.009,0.009,0.017,0.012,0.025c0.142,0.291,0.493,0.41,0.784,0.268  c0.005-0.002,0.01-0.005,0.016-0.007c0.282-0.129,0.404-0.463,0.276-0.745C193.237,262.552,193.232,262.541,193.226,262.53  L193.226,262.53z M186.815,249.693c-0.151-0.289-0.507-0.4-0.795-0.25c-0.278,0.146-0.393,0.482-0.262,0.767  c0.147,0.293,0.498,0.416,0.797,0.282c0.292-0.145,0.41-0.497,0.266-0.789C186.819,249.701,186.816,249.698,186.815,249.693  L186.815,249.693z M157.345,305.026c-0.297-0.105-0.621,0.05-0.726,0.347c-0.005,0.013-0.01,0.029-0.013,0.044  c-0.103,0.303,0.06,0.632,0.363,0.735c0.002,0.001,0.004,0.001,0.006,0.003c0.311,0.105,0.648-0.059,0.758-0.367  C157.821,305.472,157.653,305.141,157.345,305.026z M161.908,291.437c-0.306-0.11-0.644,0.049-0.755,0.355  c-0.001,0.004-0.002,0.006-0.004,0.01c-0.105,0.31,0.059,0.647,0.366,0.757c0.316,0.087,0.645-0.081,0.761-0.387  c0.103-0.303-0.06-0.632-0.363-0.735C161.914,291.439,161.911,291.439,161.908,291.437z M166.453,277.825  c-0.311-0.105-0.648,0.059-0.758,0.367c-0.109,0.306,0.052,0.642,0.359,0.751c0.009,0.004,0.019,0.006,0.029,0.008  c0.295,0.106,0.622-0.047,0.727-0.342c0.004-0.008,0.006-0.017,0.008-0.027C166.924,278.271,166.761,277.935,166.453,277.825  L166.453,277.825z M170.997,264.211c-0.312-0.092-0.64,0.081-0.741,0.39c-0.106,0.295,0.047,0.622,0.342,0.726  c0.008,0.004,0.017,0.006,0.027,0.008c0.311,0.105,0.648-0.059,0.758-0.367C171.481,264.654,171.31,264.319,170.997,264.211  L170.997,264.211z M242.792,247.666c-0.065,0.059-0.113,0.134-0.137,0.217c-0.025,0.141,0.009,0.286,0.095,0.399  C242.758,248.068,242.767,247.855,242.792,247.666L242.792,247.666z M224.795,294.478c-0.153-0.247-0.479-0.323-0.726-0.17  c-0.247,0.153-0.323,0.479-0.17,0.725c0.001,0.003,0.003,0.004,0.004,0.006c0.157,0.245,0.482,0.316,0.729,0.159  C224.874,295.044,224.947,294.722,224.795,294.478z M218.002,283.623c-0.154-0.246-0.48-0.321-0.727-0.164  c-0.246,0.154-0.321,0.48-0.165,0.726c0.156,0.247,0.48,0.321,0.727,0.164l0,0c0.245-0.147,0.323-0.463,0.177-0.708  C218.01,283.635,218.007,283.629,218.002,283.623z M211.212,272.747c-0.04-0.091-0.115-0.163-0.208-0.2l-0.02-0.002  c-0.163-0.071-0.349-0.058-0.498,0.038c-0.252,0.158-0.329,0.49-0.171,0.744c0.001,0.001,0.002,0.004,0.002,0.005  c0.157,0.242,0.48,0.316,0.727,0.164c0.115-0.067,0.194-0.181,0.215-0.312C211.318,273.038,211.301,272.876,211.212,272.747  L211.212,272.747z M204.419,261.893c-0.157-0.245-0.48-0.317-0.727-0.164c-0.252,0.154-0.329,0.485-0.175,0.736  c0.154,0.251,0.482,0.329,0.734,0.176c0.252-0.158,0.329-0.491,0.171-0.744C204.422,261.895,204.421,261.894,204.419,261.893z   M197.647,251.04c-0.166-0.245-0.495-0.317-0.748-0.167c-0.248,0.162-0.318,0.492-0.156,0.741c0.154,0.238,0.469,0.312,0.715,0.172  C197.708,251.626,197.792,251.3,197.647,251.04L197.647,251.04z M171.267,303.117c-0.284-0.066-0.567,0.111-0.633,0.395  c-0.001,0.004-0.001,0.006-0.002,0.01c-0.074,0.272,0.088,0.554,0.362,0.626c0.007,0.002,0.015,0.004,0.023,0.005  c0.291,0.061,0.578-0.115,0.655-0.402C171.723,303.466,171.546,303.191,171.267,303.117z M174.153,290.645  c-0.284-0.066-0.568,0.111-0.633,0.395c-0.001,0.004-0.001,0.006-0.003,0.01c-0.074,0.272,0.088,0.554,0.363,0.626  c0.007,0.002,0.015,0.004,0.022,0.005c0.281,0.067,0.562-0.105,0.632-0.384C174.604,291.012,174.436,290.724,174.153,290.645  L174.153,290.645z M177.038,278.174c-0.284-0.066-0.568,0.111-0.633,0.395c-0.001,0.002-0.001,0.006-0.002,0.008  c-0.078,0.263,0.072,0.54,0.335,0.62c0.016,0.005,0.032,0.009,0.048,0.011c0.284,0.066,0.567-0.111,0.633-0.395  c0.001-0.004,0.001-0.006,0.002-0.01C177.483,278.525,177.314,278.249,177.038,278.174L177.038,278.174z M179.902,265.698  c-0.286-0.052-0.562,0.124-0.635,0.405c-0.063,0.288,0.121,0.571,0.41,0.633c0.278,0.06,0.552-0.109,0.627-0.382  C180.366,266.064,180.19,265.776,179.902,265.698L179.902,265.698z M182.808,253.23c-0.291-0.061-0.578,0.115-0.655,0.402  c-0.065,0.287,0.116,0.571,0.403,0.636c0.287,0.065,0.572-0.116,0.637-0.403c0-0.001,0-0.002,0.001-0.004  C183.245,253.584,183.08,253.311,182.808,253.23L182.808,253.23z M229.877,263.828c-0.236-0.171-0.565-0.119-0.736,0.116  c-0.004,0.005-0.007,0.01-0.011,0.015c-0.17,0.219-0.131,0.533,0.087,0.703c0.009,0.006,0.017,0.012,0.027,0.018  c0.227,0.176,0.554,0.136,0.73-0.092c0.005-0.006,0.01-0.012,0.013-0.018C230.156,264.333,230.108,264.006,229.877,263.828z   M219.438,256.387c-0.246-0.158-0.571-0.1-0.747,0.132c-0.169,0.242-0.109,0.576,0.132,0.746c0.248,0.16,0.582,0.089,0.744-0.158  C219.72,256.871,219.665,256.557,219.438,256.387z M208.997,248.97c-0.236-0.175-0.568-0.125-0.744,0.109  c0,0.001-0.001,0.001-0.001,0.002c-0.158,0.246-0.1,0.57,0.132,0.746c0.243,0.169,0.577,0.109,0.747-0.134  c0.165-0.228,0.114-0.546-0.113-0.71C209.011,248.978,209.004,248.973,208.997,248.97z M198.527,297.462  c-0.286,0.064-0.473,0.337-0.43,0.626c0.049,0.286,0.321,0.475,0.606,0.426c0.288-0.045,0.486-0.312,0.447-0.602  C199.1,297.618,198.822,297.418,198.527,297.462z M196.416,284.837c-0.286,0.064-0.473,0.337-0.43,0.626  c0.049,0.286,0.321,0.475,0.606,0.426c0.278-0.039,0.471-0.297,0.432-0.573c-0.001-0.01-0.004-0.02-0.005-0.032  C196.974,284.996,196.706,284.797,196.416,284.837z M194.305,272.23c-0.278,0.039-0.471,0.297-0.432,0.573  c0.001,0.01,0.004,0.022,0.005,0.032c0.05,0.286,0.322,0.475,0.608,0.424c0.284-0.049,0.474-0.32,0.426-0.603  c-0.039-0.277-0.297-0.471-0.574-0.433C194.326,272.226,194.315,272.228,194.305,272.23L194.305,272.23z M192.196,259.603  c-0.288,0.045-0.486,0.312-0.447,0.602c0.02,0.113,0.074,0.217,0.151,0.299l0.022,0.002c0.121,0.114,0.292,0.16,0.454,0.126  c0.286-0.048,0.476-0.32,0.429-0.604c-0.048-0.285-0.32-0.476-0.605-0.428C192.197,259.603,192.196,259.603,192.196,259.603z   M190.086,246.975c-0.094,0.01-0.182,0.05-0.252,0.115c-0.025,0.111-0.093,0.211-0.187,0.273c-0.012,0.07-0.016,0.142-0.007,0.213  c0.046,0.288,0.313,0.486,0.603,0.447c0.294-0.05,0.495-0.328,0.452-0.623C190.64,247.117,190.371,246.928,190.086,246.975  L190.086,246.975z M151.062,286.939c-0.239-0.168-0.565-0.119-0.745,0.111c-0.171,0.235-0.119,0.565,0.116,0.736  c0.005,0.004,0.01,0.007,0.015,0.01c0.218,0.17,0.534,0.13,0.703-0.087c0.006-0.009,0.012-0.017,0.019-0.027  c0.176-0.227,0.136-0.554-0.093-0.729C151.075,286.949,151.068,286.944,151.062,286.939L151.062,286.939z M158.488,276.508  c-0.248-0.16-0.582-0.089-0.744,0.159c-0.153,0.235-0.098,0.55,0.129,0.719c0.243,0.164,0.574,0.106,0.747-0.132  c0.172-0.23,0.124-0.557-0.106-0.728C158.505,276.52,158.496,276.515,158.488,276.508L158.488,276.508z M180.829,245.247  c-0.246-0.158-0.571-0.1-0.747,0.134c-0.169,0.243-0.109,0.576,0.134,0.746c0.248,0.16,0.582,0.089,0.743-0.159  C181.108,245.729,181.053,245.415,180.829,245.247z M223.813,263.032c-0.118-0.129-0.318-0.137-0.447-0.018  c-0.13,0.118-0.137,0.317-0.019,0.447c0.118,0.129,0.318,0.137,0.447,0.018l0,0C223.917,263.359,223.927,263.163,223.813,263.032  L223.813,263.032z M218.66,257.522c-0.118-0.129-0.318-0.137-0.447-0.018c-0.13,0.118-0.137,0.317-0.019,0.447  c0.118,0.129,0.318,0.137,0.447,0.018l0,0C218.764,257.849,218.773,257.653,218.66,257.522L218.66,257.522z M213.487,251.989  c-0.114-0.121-0.304-0.129-0.426-0.016c-0.129,0.098-0.152,0.282-0.055,0.409c0.01,0.013,0.023,0.027,0.035,0.038  c0.114,0.121,0.304,0.129,0.426,0.016c0.129-0.1,0.151-0.286,0.05-0.413C213.509,252.011,213.499,251.999,213.487,251.989  L213.487,251.989z M193.79,274.086c-0.171-0.006-0.315,0.128-0.32,0.299s0.129,0.314,0.299,0.32s0.315-0.128,0.32-0.299  C194.094,274.235,193.961,274.092,193.79,274.086L193.79,274.086L193.79,274.086z M194.043,266.541  c-0.164-0.012-0.306,0.11-0.32,0.275c0,0.007-0.001,0.015-0.001,0.024c-0.006,0.171,0.129,0.314,0.298,0.32l0,0  c0.175,0.008,0.324-0.121,0.34-0.295c0.002-0.175-0.137-0.32-0.312-0.323C194.048,266.541,194.045,266.541,194.043,266.541  L194.043,266.541z M194.315,258.996c-0.164-0.012-0.306,0.11-0.32,0.275c0,0.007-0.001,0.016-0.001,0.024  c-0.006,0.171,0.129,0.314,0.299,0.32c0.171,0.005,0.315-0.128,0.32-0.299C194.619,259.144,194.486,259.003,194.315,258.996  L194.315,258.996z M194.567,251.45c-0.029-0.007-0.06-0.004-0.087,0.008l-0.022-0.002c-0.121,0.047-0.206,0.16-0.212,0.293  c-0.006,0.171,0.129,0.314,0.298,0.32l0,0c0.137-0.004,0.257-0.087,0.309-0.215l0.011-0.083c0.012-0.163-0.11-0.306-0.276-0.32  C194.584,251.45,194.575,251.45,194.567,251.45L194.567,251.45z M181.623,245.55c-0.114-0.121-0.304-0.129-0.426-0.016  c-0.124,0.12-0.132,0.316-0.019,0.447c0.121,0.121,0.316,0.13,0.447,0.018c0.124-0.12,0.126-0.317,0.006-0.442  C181.628,245.555,181.625,245.552,181.623,245.55L181.623,245.55z M208.947,267.744c-0.049-0.157-0.218-0.245-0.375-0.195  c-0.009,0.002-0.019,0.006-0.028,0.01c-0.159,0.054-0.245,0.227-0.19,0.386c0.001,0.005,0.004,0.011,0.006,0.016  c0.07,0.153,0.242,0.232,0.403,0.184C208.924,268.086,209.006,267.906,208.947,267.744L208.947,267.744z M206.286,260.652  c-0.06-0.154-0.233-0.23-0.387-0.171c-0.006,0.002-0.012,0.005-0.019,0.007c-0.158,0.065-0.24,0.24-0.184,0.403  c0.07,0.153,0.242,0.232,0.403,0.184c0.166-0.059,0.252-0.238,0.195-0.404C206.291,260.664,206.288,260.658,206.286,260.652  L206.286,260.652z M203.641,253.584c-0.07-0.153-0.242-0.232-0.403-0.184c-0.16,0.061-0.243,0.24-0.184,0.403  c0.049,0.157,0.218,0.245,0.375,0.195c0.01-0.002,0.019-0.006,0.028-0.01c0.159-0.054,0.245-0.227,0.19-0.386  C203.646,253.593,203.644,253.588,203.641,253.584L203.641,253.584z M200.997,246.515c-0.07-0.153-0.242-0.232-0.403-0.184  c-0.16,0.063-0.243,0.24-0.184,0.403c0.049,0.157,0.218,0.245,0.375,0.195c0.01-0.002,0.019-0.006,0.028-0.01  C200.975,246.856,201.056,246.676,200.997,246.515L200.997,246.515z M179.857,266.806c-0.141-0.075-0.317-0.02-0.392,0.12  c-0.006,0.012-0.011,0.024-0.016,0.038c-0.069,0.156,0.001,0.338,0.158,0.408s0.338-0.001,0.408-0.158  C180.083,267.057,180.012,266.875,179.857,266.806z M182.995,259.937c-0.141-0.075-0.317-0.022-0.392,0.12  c-0.006,0.012-0.011,0.024-0.016,0.038c-0.075,0.148-0.013,0.329,0.135,0.403c0.001,0,0.001,0.001,0.002,0.001  c0.16,0.074,0.352,0.005,0.429-0.154c0.071-0.152,0.004-0.333-0.148-0.403C183.002,259.94,182.998,259.939,182.995,259.937  L182.995,259.937z M186.133,253.067c-0.154-0.076-0.342-0.016-0.426,0.135c-0.076,0.16-0.006,0.353,0.154,0.428  c0.16,0.076,0.354,0.006,0.429-0.154C186.354,253.319,186.284,253.141,186.133,253.067L186.133,253.067z M189.401,246.346  l0.003-0.022c-0.033-0.065-0.084-0.118-0.151-0.15c-0.156-0.063-0.334,0.006-0.408,0.158c-0.029,0.05-0.037,0.111-0.023,0.168  c0.011,0.111,0.078,0.21,0.179,0.26c0.152,0.071,0.332,0.004,0.403-0.148c0.001-0.004,0.002-0.006,0.005-0.01  C189.459,246.525,189.456,246.422,189.401,246.346L189.401,246.346z M229.299,270.473c-0.098-0.16-0.309-0.213-0.469-0.115  c-0.004,0.001-0.006,0.004-0.009,0.006c-0.166,0.096-0.223,0.309-0.126,0.476c0.005,0.007,0.009,0.015,0.013,0.023  c0.098,0.16,0.309,0.213,0.469,0.115c0.002-0.001,0.006-0.004,0.009-0.006C229.354,270.863,229.403,270.641,229.299,270.473  L229.299,270.473z M224.647,263.211c-0.098-0.16-0.309-0.213-0.469-0.115c-0.004,0.001-0.006,0.004-0.009,0.006  c-0.169,0.106-0.219,0.331-0.111,0.499s0.33,0.219,0.5,0.111c0.163-0.103,0.21-0.316,0.106-0.479  C224.657,263.226,224.652,263.219,224.647,263.211L224.647,263.211z M220.013,255.953c-0.106-0.169-0.329-0.221-0.498-0.114  c-0.169,0.106-0.221,0.329-0.114,0.497c0,0.001,0.001,0.001,0.001,0.002c-0.002,0.022,0.017,0.024,0.037,0.048  c0.121,0.124,0.312,0.151,0.463,0.065C220.067,256.344,220.117,256.123,220.013,255.953L220.013,255.953z M215.358,248.693  l-0.072-0.096c-0.022-0.002-0.039-0.027-0.081-0.033c-0.109-0.06-0.242-0.053-0.345,0.016c-0.169,0.106-0.218,0.33-0.111,0.499  c0.106,0.168,0.33,0.218,0.5,0.111C215.416,249.084,215.467,248.861,215.358,248.693L215.358,248.693z M193.324,276.677  c-0.192-0.025-0.374,0.096-0.425,0.284c-0.042,0.189,0.075,0.376,0.263,0.421c0.175,0.052,0.36-0.047,0.413-0.223  c0.004-0.012,0.007-0.027,0.009-0.04c0.05-0.194-0.065-0.391-0.258-0.442C193.325,276.678,193.325,276.678,193.324,276.677  L193.324,276.677z M195.176,268.26c-0.192-0.025-0.374,0.096-0.425,0.284c-0.042,0.189,0.075,0.376,0.262,0.421  c0.194,0.05,0.392-0.065,0.442-0.257c0-0.001,0-0.001,0.001-0.002C195.492,268.507,195.369,268.315,195.176,268.26L195.176,268.26z   M197.028,259.842c-0.192-0.025-0.374,0.096-0.425,0.284c-0.042,0.189,0.075,0.376,0.262,0.421c0.179,0.05,0.364-0.052,0.414-0.23  c0.005-0.017,0.008-0.035,0.01-0.053C197.334,260.075,197.217,259.888,197.028,259.842L197.028,259.842z M198.881,251.426  c-0.195-0.033-0.382,0.091-0.425,0.284c-0.043,0.189,0.075,0.376,0.262,0.421c0.177,0.05,0.364-0.052,0.414-0.23  c0.005-0.017,0.009-0.036,0.01-0.053C199.186,251.659,199.069,251.471,198.881,251.426z M238.937,254.607  c-0.157-0.118-0.38-0.086-0.497,0.071c-0.002,0.002-0.005,0.006-0.006,0.01c-0.106,0.163-0.072,0.381,0.08,0.504  c0.16,0.113,0.384,0.075,0.497-0.086c0.004-0.005,0.006-0.01,0.01-0.015C239.13,254.933,239.093,254.718,238.937,254.607  L238.937,254.607z M231.86,249.668c-0.163-0.113-0.386-0.077-0.505,0.08c-0.113,0.16-0.075,0.384,0.086,0.496  c0.005,0.004,0.01,0.006,0.015,0.01c0.157,0.109,0.373,0.072,0.482-0.083C232.054,250.009,232.019,249.787,231.86,249.668  L231.86,249.668z M211.413,272.84c-0.028-0.191-0.207-0.323-0.398-0.294c-0.004,0-0.007,0.001-0.012,0.002l-0.02-0.002  c-0.184,0.045-0.301,0.226-0.272,0.411c0.028,0.191,0.207,0.323,0.398,0.294c0.004,0,0.007-0.001,0.012-0.002  c0.049-0.013,0.096-0.037,0.139-0.067C211.378,273.113,211.441,272.975,211.413,272.84L211.413,272.84z M209.48,264.048  c-0.194,0.047-0.321,0.233-0.295,0.43c0.052,0.19,0.24,0.309,0.434,0.273c0.187-0.037,0.31-0.219,0.273-0.408  c0-0.001-0.001-0.004-0.001-0.005C209.857,264.148,209.675,264.017,209.48,264.048z M207.975,255.574  c-0.194,0.032-0.324,0.216-0.293,0.409c0.033,0.194,0.216,0.324,0.409,0.293c0.194-0.032,0.324-0.216,0.293-0.409l0,0  c-0.029-0.191-0.207-0.323-0.398-0.294C207.982,255.573,207.978,255.573,207.975,255.574L207.975,255.574z M206.447,247.097  c-0.187,0.038-0.31,0.221-0.273,0.408c0,0.001,0,0.002,0.001,0.005c0.027,0.181,0.195,0.305,0.376,0.278  c0.012-0.001,0.024-0.004,0.035-0.007c0.194-0.033,0.324-0.216,0.293-0.409c-0.043-0.195-0.236-0.317-0.431-0.275  C206.449,247.096,206.449,247.096,206.447,247.097L206.447,247.097z M178.947,265.78c-0.153-0.108-0.365-0.07-0.473,0.083  c-0.005,0.006-0.009,0.013-0.012,0.02c-0.109,0.157-0.072,0.371,0.083,0.482c0.157,0.118,0.38,0.086,0.497-0.071  c0.003-0.004,0.005-0.006,0.007-0.01C179.159,266.119,179.114,265.894,178.947,265.78L178.947,265.78z M183.892,258.713  c-0.169-0.11-0.394-0.065-0.507,0.101c-0.108,0.153-0.07,0.365,0.083,0.473c0.006,0.005,0.013,0.008,0.02,0.012  c0.145,0.113,0.353,0.086,0.465-0.059c0.006-0.007,0.012-0.016,0.017-0.025C184.088,259.055,184.054,258.83,183.892,258.713  C183.894,258.713,183.894,258.713,183.892,258.713L183.892,258.713z M188.839,251.643c-0.16-0.113-0.385-0.075-0.497,0.086  c-0.004,0.005-0.006,0.01-0.01,0.015c-0.109,0.163-0.065,0.385,0.099,0.494c0.16,0.106,0.377,0.067,0.488-0.091  C189.026,251.983,188.991,251.766,188.839,251.643L188.839,251.643z M241.914,249.836c-0.276-0.194-0.655-0.132-0.856,0.14  c-0.196,0.278-0.131,0.664,0.147,0.86c0.268,0.19,0.64,0.136,0.843-0.124C242.243,250.43,242.183,250.047,241.914,249.836  L241.914,249.836z M224.189,308.292c-0.335,0.052-0.569,0.363-0.527,0.698c0.057,0.332,0.369,0.557,0.702,0.504  c0.333-0.056,0.564-0.363,0.526-0.698C224.835,308.464,224.521,308.239,224.189,308.292L224.189,308.292z M221.882,293.689  c-0.333,0.054-0.558,0.369-0.505,0.702c0.055,0.333,0.369,0.558,0.702,0.504c0.333-0.054,0.558-0.369,0.505-0.702  C222.527,293.861,222.214,293.635,221.882,293.689L221.882,293.689z M219.595,279.089c-0.333,0.042-0.569,0.346-0.528,0.679  c0.041,0.333,0.346,0.568,0.68,0.527c0.009-0.001,0.016-0.002,0.025-0.004c0.335-0.052,0.569-0.363,0.527-0.698  C220.242,279.261,219.928,279.037,219.595,279.089L219.595,279.089z M217.287,264.485c-0.329,0.05-0.556,0.359-0.507,0.689  c0,0.004,0.001,0.009,0.002,0.012c0.055,0.333,0.369,0.558,0.702,0.504c0.333-0.054,0.558-0.369,0.505-0.702l0,0  c-0.05-0.329-0.359-0.556-0.69-0.507C217.296,264.484,217.292,264.485,217.287,264.485L217.287,264.485z M215.001,249.886  c-0.332,0.052-0.557,0.364-0.506,0.696c0.052,0.326,0.355,0.551,0.682,0.507c0.335-0.052,0.569-0.363,0.527-0.698  C215.648,250.056,215.334,249.832,215.001,249.886L215.001,249.886z M164.09,293.793c-0.279-0.196-0.664-0.13-0.861,0.147  c-0.19,0.268-0.136,0.639,0.124,0.842c0.282,0.194,0.667,0.135,0.876-0.136C164.418,294.373,164.357,293.997,164.09,293.793z   M172.798,281.849c-0.274-0.199-0.657-0.14-0.856,0.135c-0.2,0.273-0.14,0.656,0.135,0.855c0.001,0.001,0.004,0.002,0.005,0.004  c0.274,0.199,0.657,0.14,0.856-0.135c0.2-0.273,0.14-0.656-0.135-0.855C172.802,281.851,172.799,281.85,172.798,281.849z   M181.506,269.904c-0.261-0.204-0.639-0.157-0.843,0.105c-0.004,0.004-0.006,0.008-0.01,0.012c-0.194,0.281-0.135,0.666,0.136,0.875  c0.276,0.192,0.655,0.132,0.856-0.14c0.2-0.266,0.145-0.643-0.121-0.842C181.518,269.912,181.512,269.907,181.506,269.904z   M190.216,257.959c-0.261-0.204-0.639-0.157-0.843,0.105c-0.004,0.004-0.006,0.009-0.01,0.012c-0.191,0.283-0.132,0.664,0.136,0.875  c0.276,0.194,0.655,0.132,0.856-0.14c0.202-0.253,0.158-0.622-0.095-0.823C190.244,257.979,190.23,257.968,190.216,257.959z   M198.947,245.996c-0.276-0.192-0.655-0.132-0.856,0.14c-0.197,0.278-0.132,0.664,0.147,0.861c0.27,0.191,0.641,0.137,0.844-0.124  C199.277,246.589,199.217,246.205,198.947,245.996L198.947,245.996z M236.16,266.302c-0.179-0.292-0.561-0.381-0.851-0.202  c-0.292,0.179-0.382,0.56-0.203,0.85c0.179,0.292,0.558,0.381,0.851,0.202C236.242,266.969,236.332,266.593,236.16,266.302  L236.16,266.302z M228.451,253.693c-0.174-0.291-0.55-0.384-0.84-0.211c-0.004,0.002-0.007,0.004-0.01,0.006  c-0.287,0.182-0.375,0.558-0.203,0.85c0.186,0.287,0.569,0.368,0.856,0.181C228.53,254.342,228.617,253.979,228.451,253.693  L228.451,253.693z M195.341,300.492c-0.323-0.077-0.648,0.121-0.725,0.445c-0.001,0.004-0.001,0.007-0.002,0.011  c-0.082,0.324,0.11,0.654,0.432,0.745c0.329,0.065,0.653-0.132,0.75-0.453c0.081-0.332-0.12-0.667-0.453-0.748  C195.342,300.492,195.342,300.492,195.341,300.492L195.341,300.492z M198.811,286.131c-0.315-0.083-0.635,0.104-0.719,0.418  c-0.004,0.012-0.006,0.025-0.009,0.039c-0.08,0.321,0.114,0.643,0.435,0.724c0,0,0,0,0.001,0c0.332,0.081,0.667-0.12,0.748-0.452  v-0.001c0.083-0.314-0.104-0.634-0.417-0.718C198.835,286.136,198.823,286.133,198.811,286.131L198.811,286.131z M202.282,271.747  c-0.334-0.07-0.661,0.143-0.731,0.478c-0.069,0.326,0.135,0.647,0.458,0.726c0.323,0.077,0.648-0.121,0.725-0.445  c0.001-0.004,0.001-0.007,0.003-0.011C202.818,272.165,202.615,271.83,202.282,271.747  C202.283,271.747,202.282,271.747,202.282,271.747L202.282,271.747z M205.75,257.387c-0.327-0.072-0.651,0.13-0.727,0.456  c-0.075,0.328,0.132,0.653,0.459,0.726c0.318,0.072,0.638-0.12,0.722-0.436C206.287,257.804,206.083,257.469,205.75,257.387  C205.752,257.387,205.752,257.387,205.75,257.387z M187.568,244.722c-0.179-0.292-0.558-0.382-0.851-0.204  c-0.292,0.178-0.383,0.558-0.205,0.85c0.175,0.284,0.545,0.373,0.831,0.2c0.295-0.17,0.398-0.546,0.228-0.842  C187.57,244.725,187.569,244.724,187.568,244.722z M240.883,256.655c-0.174-0.272-0.536-0.351-0.807-0.177  c-0.009,0.006-0.019,0.012-0.028,0.018c-0.281,0.19-0.36,0.566-0.182,0.853c0.202,0.265,0.572,0.334,0.857,0.16  c0.281-0.186,0.356-0.565,0.169-0.845C240.889,256.661,240.885,256.657,240.883,256.655z M204.284,305.262  c-0.333-0.07-0.66,0.145-0.73,0.478c-0.07,0.333,0.145,0.66,0.478,0.729c0.333,0.07,0.659-0.143,0.729-0.476  C204.833,305.659,204.618,305.332,204.284,305.262L204.284,305.262z M207.144,290.816c-0.337-0.052-0.658,0.165-0.734,0.497  c-0.052,0.326,0.158,0.636,0.48,0.709c0.333,0.07,0.66-0.145,0.73-0.478C207.683,291.215,207.472,290.894,207.144,290.816  L207.144,290.816z M209.978,276.388c-0.328-0.064-0.646,0.152-0.71,0.48c-0.064,0.328,0.152,0.646,0.48,0.709  c0.333,0.07,0.66-0.145,0.73-0.478C210.53,276.767,210.309,276.454,209.978,276.388L209.978,276.388z M212.837,261.943  c-0.323-0.066-0.64,0.142-0.708,0.466c-0.001,0.005-0.003,0.01-0.003,0.013c-0.06,0.328,0.153,0.643,0.48,0.709  c0.316,0.072,0.63-0.126,0.702-0.442c0.002-0.012,0.005-0.025,0.007-0.038c0.066-0.324-0.142-0.639-0.466-0.707  C212.848,261.944,212.843,261.943,212.837,261.943z M177.515,254.768c-0.174-0.272-0.536-0.351-0.807-0.177  c-0.009,0.006-0.019,0.012-0.028,0.018c-0.278,0.181-0.359,0.552-0.18,0.832c0.19,0.28,0.567,0.36,0.854,0.182  c0.281-0.186,0.356-0.565,0.169-0.845C177.52,254.775,177.517,254.771,177.515,254.768z M189.756,246.566  c-0.08-0.121-0.211-0.202-0.355-0.221l0.003-0.022c-0.166-0.039-0.339-0.01-0.482,0.083c-0.042,0.018-0.077,0.052-0.099,0.093  c-0.239,0.233-0.242,0.614-0.01,0.853c0.208,0.213,0.54,0.241,0.782,0.069c0.024-0.017,0.048-0.037,0.05-0.058  c0.095-0.064,0.164-0.162,0.187-0.273C189.894,246.913,189.864,246.719,189.756,246.566z M231.808,282.855  c-0.332,0.07-0.549,0.391-0.486,0.725c0.073,0.328,0.399,0.535,0.729,0.464c0.327-0.06,0.544-0.373,0.484-0.699  c0-0.001,0-0.004-0.001-0.005C232.46,283.011,232.14,282.797,231.808,282.855z M228.922,268.407  c-0.329,0.074-0.544,0.392-0.486,0.725c0.063,0.329,0.382,0.546,0.711,0.482c0.329-0.064,0.546-0.381,0.482-0.71  c-0.001-0.005-0.002-0.01-0.002-0.015c-0.06-0.327-0.373-0.543-0.699-0.484C228.925,268.405,228.923,268.405,228.922,268.407  L228.922,268.407z M226.01,253.978c-0.332,0.07-0.549,0.391-0.486,0.725c0.077,0.332,0.409,0.538,0.742,0.461  c0.317-0.074,0.522-0.38,0.47-0.701C226.668,254.131,226.346,253.915,226.01,253.978L226.01,253.978z M179.728,286.92  c-0.273-0.184-0.643-0.111-0.826,0.16c-0.005,0.007-0.01,0.015-0.013,0.023c-0.185,0.276-0.113,0.649,0.163,0.836  c0.282,0.19,0.664,0.119,0.858-0.159c0.189-0.281,0.115-0.66-0.165-0.85C179.739,286.926,179.733,286.922,179.728,286.92  L179.728,286.92z M187.901,274.664c-0.273-0.184-0.643-0.111-0.826,0.16c-0.005,0.007-0.01,0.015-0.013,0.023  c-0.185,0.276-0.113,0.649,0.163,0.836c0.282,0.19,0.664,0.119,0.858-0.159c0.189-0.28,0.115-0.66-0.165-0.85  C187.912,274.67,187.906,274.667,187.901,274.664z M196.072,262.409c-0.283-0.179-0.658-0.096-0.84,0.184  c-0.185,0.276-0.113,0.649,0.163,0.836c0.282,0.19,0.664,0.119,0.858-0.159c0.189-0.28,0.115-0.66-0.165-0.85  C196.084,262.417,196.079,262.413,196.072,262.409z M204.244,250.154c-0.286-0.167-0.651-0.087-0.84,0.184  c-0.185,0.276-0.113,0.649,0.163,0.836c0.283,0.186,0.662,0.115,0.858-0.159c0.189-0.286,0.11-0.668-0.175-0.856  C204.249,250.157,204.246,250.156,204.244,250.154z M182.087,242.658c-0.098-0.238-0.369-0.352-0.608-0.256  c-0.239,0.097-0.353,0.369-0.256,0.607c0.098,0.238,0.369,0.352,0.608,0.256l0,0C182.066,243.165,182.18,242.896,182.087,242.658z   M238.823,249.859c-0.089-0.23-0.35-0.344-0.582-0.255c-0.001,0.001-0.004,0.001-0.005,0.002c-0.242,0.087-0.368,0.354-0.281,0.597  c0.087,0.241,0.355,0.368,0.598,0.28c0.242-0.087,0.368-0.354,0.281-0.597C238.83,249.877,238.826,249.868,238.823,249.859z   M204.207,279.981c-0.217-0.11-0.482-0.023-0.592,0.194c-0.007,0.013-0.013,0.028-0.019,0.043c-0.101,0.233,0.005,0.504,0.24,0.605  c0.233,0.101,0.505-0.005,0.606-0.239C204.542,280.353,204.437,280.085,204.207,279.981z M208.58,269.771  c-0.228-0.105-0.5-0.006-0.605,0.222c-0.003,0.005-0.005,0.01-0.006,0.015c-0.104,0.234,0.002,0.508,0.237,0.61  c0.234,0.104,0.508-0.002,0.611-0.236C208.921,270.147,208.815,269.874,208.58,269.771L208.58,269.771z M212.954,259.559  c-0.234-0.104-0.508,0.002-0.611,0.236c-0.104,0.234,0.002,0.508,0.237,0.61c0.234,0.104,0.508-0.002,0.611-0.236  C213.289,259.937,213.184,259.667,212.954,259.559L212.954,259.559z M217.327,249.35c-0.241-0.093-0.513,0.02-0.615,0.258  c-0.093,0.234,0.023,0.499,0.256,0.592c0.001,0,0.003,0.001,0.004,0.001c0.224,0.099,0.485-0.001,0.584-0.226  c0.002-0.005,0.004-0.009,0.006-0.013c0.105-0.228,0.006-0.499-0.222-0.604C217.337,249.353,217.332,249.352,217.327,249.35  L217.327,249.35z M227.562,278.991c-0.252-0.006-0.463,0.192-0.469,0.445c0,0.001,0,0.002,0,0.004  c0.006,0.248,0.202,0.452,0.45,0.468c0.252,0.002,0.46-0.197,0.469-0.45c0.013-0.245-0.172-0.453-0.416-0.469  C227.584,278.991,227.573,278.991,227.562,278.991L227.562,278.991z M227.685,267.893c-0.245-0.004-0.445,0.191-0.449,0.436  c0,0.005,0,0.011,0,0.016c-0.006,0.252,0.192,0.462,0.445,0.468c0.001,0,0.002,0,0.004,0c0.256-0.009,0.462-0.215,0.473-0.47  c-0.004-0.253-0.213-0.455-0.467-0.451C227.689,267.893,227.687,267.893,227.685,267.893z M227.832,256.777  c-0.256,0.009-0.463,0.215-0.473,0.47c-0.005,0.241,0.186,0.444,0.429,0.449c0.007,0,0.015,0,0.024,0  c0.245,0.013,0.454-0.172,0.469-0.415c0-0.011,0.001-0.022,0.001-0.033c0.006-0.252-0.192-0.462-0.445-0.468  C227.834,256.777,227.833,256.777,227.832,256.777L227.832,256.777z M188.653,262.732c-0.164-0.182-0.444-0.199-0.627-0.037  c-0.004,0.004-0.008,0.007-0.012,0.011c-0.185,0.167-0.2,0.452-0.032,0.637c0.007,0.009,0.016,0.017,0.025,0.025  c0.176,0.179,0.464,0.18,0.643,0.004C188.828,263.197,188.829,262.911,188.653,262.732z M196.611,254.967  c-0.186-0.172-0.474-0.175-0.664-0.006c-0.179,0.187-0.17,0.485,0.017,0.664c0.179,0.17,0.458,0.172,0.64,0.006  C196.777,255.444,196.78,255.156,196.611,254.967z M204.565,247.223c-0.17-0.185-0.457-0.197-0.641-0.028  c-0.007,0.007-0.015,0.013-0.023,0.022c-0.172,0.179-0.174,0.461-0.004,0.642c0.182,0.179,0.474,0.175,0.653-0.006  C204.722,247.679,204.728,247.402,204.565,247.223L204.565,247.223z M230.607,254.698c-0.137-0.032-0.274,0.056-0.305,0.192  c-0.032,0.137,0.057,0.273,0.192,0.305c0.007,0.001,0.013,0.002,0.022,0.004c0.14,0.017,0.266-0.078,0.288-0.218  C230.822,254.851,230.735,254.728,230.607,254.698L230.607,254.698z M231.65,248.718c-0.134-0.024-0.261,0.065-0.286,0.197  c-0.001,0.006-0.002,0.012-0.002,0.018c-0.032,0.121,0.04,0.246,0.163,0.277c0.011,0.002,0.023,0.005,0.034,0.006  c0.131,0.025,0.257-0.06,0.283-0.19c0-0.002,0.001-0.005,0.001-0.006C231.862,248.886,231.78,248.757,231.65,248.718L231.65,248.718  z M223.567,264.197c-0.179-0.118-0.42-0.07-0.538,0.109c-0.006,0.009-0.011,0.018-0.017,0.029c-0.123,0.168-0.086,0.405,0.082,0.529  c0.011,0.007,0.023,0.015,0.034,0.023c0.19,0.126,0.446,0.076,0.573-0.114l0,0c0.124-0.185,0.075-0.436-0.11-0.561  C223.583,264.206,223.574,264.201,223.567,264.197L223.567,264.197z M228.925,255.685c-0.196-0.12-0.453-0.06-0.576,0.135  c-0.124,0.185-0.075,0.436,0.11,0.561c0.007,0.005,0.016,0.01,0.024,0.015c0.179,0.118,0.42,0.07,0.538-0.109  c0.006-0.009,0.011-0.018,0.017-0.029c0.129-0.181,0.086-0.431-0.095-0.56C228.937,255.694,228.931,255.69,228.925,255.685  L228.925,255.685z"></path>
<linearGradient id="sweater_1_-i12" gradientUnits="userSpaceOnUse" x1="6193.4229" y1="2119.4363" x2="5413.5684" y2="4205.5449" gradientTransform="matrix(0.0741 0 0 0.0741 -230.5491 -49.4972)">
	<stop offset="0" style="stop-color:#23286B"></stop>
	<stop offset="0.361" style="stop-color:#1E2361"></stop>
	<stop offset="1" style="stop-color:#151A4F"></stop>
</linearGradient>
<path id="sweater-i12" fill="url(#sweater_1_-i12)" d="M187.354,73.447c-0.009-0.001-0.016-0.005-0.023-0.011  c-8.404,4.022-15.975,9.589-22.317,16.41l-18.273,132.367c47.139,34.491,90.337,25.33,98.811,23.056  c0.991-0.273,1.504-0.444,1.504-0.444C256.729,122.777,188.881,74.516,187.354,73.447z"></path>
<path id="L_sleeve-i12" fill="#23286B" d="M165.019,89.849c0,0-6.209,33.516-23.202,57.651c-10.289,14.615-23.261,17.926-46.995,8.57  c-21.481-8.469-29.816-13.658-29.816-13.658l-16.294,61.066c0,0,24.358,37.309,56.835,27.576  c26.691-7.999,42.159,11.819,56.023,10.544c30.853-2.839,37.614-10.303,47.092-54.341c9.479-44.038-5.683-93.677-21.328-113.817l0,0  "></path>
<linearGradient id="neck_1_-i12" gradientUnits="userSpaceOnUse" x1="5586.1631" y1="1699.3954" x2="5340.0386" y2="1631.4983" gradientTransform="matrix(0.0741 0 0 0.0741 -230.5491 -49.4972)">
	<stop offset="0" style="stop-color:#FFBEB6"></stop>
	<stop offset="1" style="stop-color:#F29B94"></stop>
</linearGradient>
<path id="neck-i12" fill="url(#neck_1_-i12)" d="M159.538,69.317c0,0,6.395,15.057,5.481,20.533c6.608-6.516,14.124-12.042,22.314-16.41  c0,0-10.667-14.389-10.667-17.355L159.538,69.317z"></path>
<path id="face-i12" fill="#FFBEB6" d="M148.994,70.781c-9.008-2.564-14.262-10.629-16.089-10.169c-1.836,0.449-5.977,0.478-6.662-1.417  c-0.665-1.89,2.468-8.962,0.931-16.158c-0.153-0.668-0.27-1.307-0.375-1.955c-0.005-0.032-0.012-0.043,0.002-0.072l-0.053-0.349  c-0.06-0.434-0.147-1.182-0.206-2.163c5.215,1.89,9.861,2.052,11.919,0.672c5.833-3.901,7.026,0.084,13.695,4.334  c6.689,4.251,11.788,0.835,19.667-2.042c7.888-2.864,9.115,5.238,6.324,8.403c-2.783,3.176-5.019,4.725-2.755,7.782  c0.365,0.665,0.864,1.246,1.467,1.705l-0.747,0.775c-0.236,0.246-0.482,0.479-0.744,0.701l-3.606,3.081  C165.264,69.403,157.437,73.198,148.994,70.781z"></path>
<path id="cap_bottom-i12" fill="#E94A47" d="M230.221,46.133l-105.147-13.06l0,0l0.482-3.882l0,0L228.24,41.946  c1.361,0.168,2.326,1.407,2.157,2.766l0,0L230.221,46.133L230.221,46.133z"></path>
<linearGradient id="cap_top_1_-i12" gradientUnits="userSpaceOnUse" x1="5272.7954" y1="1020.4263" x2="5616.8774" y2="1899.2291" gradientTransform="matrix(0.0741 0 0 0.0741 -230.5491 -49.4972)">
	<stop offset="0" style="stop-color:#E94A47"></stop>
	<stop offset="0.8467" style="stop-color:#A74A47"></stop>
</linearGradient>
<path id="cap_top-i12" fill="url(#cap_top_1_-i12)" d="M193.79,37.646l-68.24-8.476l0,0l0.937-7.527c1.684-13.53,14.03-23.135,27.574-21.452  l0,0l18.168,2.256c14.109,1.753,24.123,14.598,22.37,28.692l0,0L193.79,37.646L193.79,37.646z"></path>
<path id="hair-i12" fill="#23286B" d="M176.86,59.35c0,0,5.217,1.833,11.659-4.918c6.441-6.75,5.758-12.911,5.758-12.911  s-64.791-8.133-66.996-8.29c-2.205-0.157-1.405-0.348-9.012-7.185s-12.332,3.166-7.295,10.615c5.037,7.45,19.281,5.83,25.204,3.486  c5.923-2.343,8.303-3.034,12.915,1.925c4.613,4.959,13.735,5.347,20.734,0.351c7.001-4.996,12.684,2.493,7.068,8.163  C171.279,56.255,176.86,59.35,176.86,59.35z"></path>
<path id="eye-i12" fill="#1C2868" d="M133.039,47.265c-1.672,2.513-5.067,3.195-7.581,1.525c-0.91-0.605-1.619-1.469-2.033-2.479  c-0.321-0.767,0.819-1.411,1.145-0.633c0.79,2.158,3.181,3.267,5.34,2.478c0.814-0.298,1.515-0.841,2.006-1.557  C132.397,45.916,133.526,46.578,133.039,47.265z"></path>

            </g>
        </g>
    </g>
    
    <!-- ITEM 5 -->
    <g>
        <defs>
            <clipPath id="clip-path-id-viewbox-item-5">
                <rect x="0.0" y="0.0" width="199.9791015625" height="47.97"/>
            </clipPath>
        </defs>
        <g transform="translate(723.0 298.0) rotate(0.0 225.0 75.0) scale(2.250235131991331 3.1269543464665417)">
            <g clip-path="url(#clip-path-id-viewbox-item-5)" transform="translate(-0.0 -0.0)">
                <path fill="black" stroke="black" d="M13.60 83.08L13.60 83.08Q13.25 83.08 13.03 82.98Q12.80 82.88 12.67 82.72Q12.54 82.56 12.38 82.41Q12.22 82.25 11.87 82.15Q11.52 82.04 10.97 82.04L10.97 82.04Q10.80 82.04 10.56 82.07Q10.32 82.11 10.03 82.25Q9.75 82.39 9.75 82.61L9.75 82.61Q9.75 82.86 9.99 83.04Q10.23 83.21 10.53 83.29Q10.84 83.36 11.22 83.45Q11.61 83.55 11.76 83.63L11.76 83.63L13.68 84.10Q14.52 84.33 15.20 84.59Q15.88 84.85 16.64 85.30Q17.40 85.75 17.91 86.30Q18.41 86.84 18.75 87.67Q19.09 88.50 19.09 89.49L19.09 89.49Q19.09 90.68 18.78 91.62L18.78 91.62L18.78 91.59Q18.50 92.43 18.01 93.08Q17.52 93.74 16.84 94.18Q16.16 94.61 15.47 94.91Q14.78 95.20 13.88 95.37Q12.97 95.55 12.26 95.63Q11.56 95.72 10.63 95.78L10.63 95.78Q6.53 95.58 5.14 94.48L5.14 94.48L5.14 94.33Q3.96 93.44 3.39 92.40Q2.82 91.36 2.72 90.06L2.72 90.06Q2.72 89.75 3.01 89.75L3.01 89.75Q3.08 89.75 3.24 89.76Q3.40 89.77 3.47 89.77L3.47 89.77L4.80 89.77Q4.98 89.75 5.32 89.75L5.32 89.75L5.66 89.75Q5.76 89.75 5.84 89.77L5.84 89.77Q6.60 89.75 8.42 89.75L8.42 89.75L9.02 89.75Q9.28 89.75 9.42 89.90Q9.56 90.06 9.65 90.29Q9.73 90.51 9.84 90.74Q9.95 90.97 10.24 91.13Q10.53 91.28 11.00 91.28L11.00 91.28Q11.50 91.28 11.91 91.01Q12.32 90.75 12.32 90.24L12.32 90.24Q12.32 90.01 12.10 89.80Q11.88 89.59 11.44 89.42Q11.00 89.25 10.65 89.15Q10.31 89.04 9.72 88.90Q9.13 88.76 8.97 88.70L8.97 88.70L8.19 88.70Q5.36 87.87 4.12 86.59Q2.88 85.31 2.88 83.34L2.88 83.34Q2.88 82.04 3.36 81.00Q3.85 79.96 4.65 79.30Q5.45 78.63 6.53 78.18Q7.61 77.74 8.73 77.55Q9.85 77.36 11.05 77.36L11.05 77.36Q13.17 77.36 14.98 78.07Q16.80 78.78 17.74 79.91L17.74 79.91Q18.07 80.25 18.28 80.77Q18.49 81.29 18.55 81.59Q18.61 81.90 18.70 82.61L18.70 82.61L18.33 83.14L16.12 83.14Q15.76 83.14 14.91 83.11Q14.07 83.08 13.60 83.08ZM19.30 82.77L19.30 82.77L19.30 78.09L34.44 78.09Q34.65 78.13 34.70 78.25Q34.76 78.37 34.76 78.61L34.76 78.61L34.76 82.77Q34.73 83.08 34.39 83.08L34.39 83.08L30.70 83.08L30.70 95.06Q30.70 95.07 30.68 95.12Q30.67 95.17 30.67 95.19Q30.67 95.20 30.66 95.24Q30.64 95.28 30.63 95.29Q30.62 95.30 30.61 95.33Q30.59 95.37 30.57 95.37Q30.55 95.38 30.52 95.40Q30.49 95.42 30.46 95.43Q30.42 95.45 30.38 95.45Q30.33 95.46 30.28 95.47L30.28 95.47L29.45 95.47Q27.78 95.47 27.78 95.37L27.78 95.37Q27.68 95.37 27.47 95.38Q27.26 95.39 27.16 95.39L27.16 95.39L26.12 95.39Q25.82 95.39 25.26 95.41Q24.71 95.42 24.40 95.42L24.40 95.42L23.67 95.42L23.15 95.06L23.15 92.24Q23.16 91.49 23.26 89.02Q23.36 86.54 23.36 85.11L23.36 85.11L23.36 84.78Q23.36 84.67 23.37 84.45Q23.38 84.23 23.38 84.12L23.38 84.12Q23.38 84.01 23.37 83.65Q23.36 83.29 23.36 83.19L23.36 83.19L20.10 83.19Q19.82 83.19 19.56 83.09Q19.30 82.99 19.30 82.77ZM35.75 81.05L35.75 81.08Q35.69 80.82 35.69 79.60L35.69 79.60Q35.69 78.19 35.95 77.93L35.95 77.93L43.03 77.93L43.03 88.86Q43.03 90.55 44.02 90.55L44.02 90.55Q44.44 90.55 44.71 90.18Q44.98 89.81 44.98 89.30L44.98 89.30L44.98 87.38Q45.06 81.68 45.06 81.63L45.06 81.63Q45.06 79.36 45.01 78.35L45.01 78.35Q45.01 77.98 45.38 77.83L45.38 77.83L52.61 77.83L52.61 79.86Q52.44 84.79 52.40 86.21L52.40 86.21L52.40 87.01Q52.40 87.17 52.39 87.43Q52.38 87.69 52.38 87.79L52.38 87.79Q52.38 88.24 52.40 88.42L52.40 88.42L52.40 89.43Q52.40 91.24 52.04 92.04L52.04 92.04L52.04 92.09Q51.62 93.06 50.84 93.77Q50.06 94.48 49.06 94.88Q48.06 95.28 47.00 95.45Q45.95 95.63 44.78 95.63L44.78 95.63Q44.41 95.63 44.23 95.55L44.23 95.55L43.92 95.55Q43.92 95.68 43.53 95.68L43.53 95.68L43.53 95.71Q43.24 95.72 41.86 95.58L41.86 95.58L41.26 95.58Q40.44 95.48 39.68 95.21Q38.92 94.94 38.21 94.44Q37.49 93.94 36.95 93.25Q36.41 92.56 36.07 91.57Q35.73 90.58 35.69 89.41L35.69 89.41Q35.71 88.73 35.70 87.53Q35.69 86.34 35.71 85.35Q35.72 84.37 35.77 83.45L35.77 83.45L35.77 83.08Q35.77 83.02 35.78 82.88Q35.80 82.73 35.80 82.67L35.80 82.67Q35.80 82.47 35.77 82.08Q35.75 81.69 35.75 81.50L35.75 81.50L35.75 81.05ZM58.54 77.88L61.88 77.88Q63.66 77.88 65.08 78.11Q66.51 78.35 67.82 78.95Q69.12 79.54 70.00 80.51Q70.87 81.47 71.38 83.01Q71.90 84.54 71.90 86.57L71.90 86.57Q71.90 88.05 71.54 89.34Q71.19 90.62 70.58 91.54Q69.97 92.47 69.18 93.19Q68.39 93.91 67.47 94.37Q66.55 94.82 65.62 95.07Q64.70 95.32 63.78 95.37L63.78 95.37L54.85 95.37L54.85 78.09Q54.89 78.09 54.99 78.10Q55.10 78.11 55.13 78.11L55.13 78.11Q55.69 78.11 56.83 78.00Q57.97 77.88 58.54 77.88L58.54 77.88ZM61.41 91.31L62.03 91.31Q62.70 91.31 63.20 91.09Q63.71 90.88 64.02 90.47Q64.32 90.07 64.52 89.63Q64.73 89.19 64.82 88.59Q64.91 87.99 64.94 87.54Q64.97 87.09 64.97 86.52L64.97 86.52L64.97 85.58Q64.96 85.49 64.89 84.70Q64.83 83.90 64.61 83.34L64.61 83.34Q64.40 82.94 64.15 82.65Q63.89 82.35 63.65 82.19Q63.40 82.03 63.07 81.94Q62.73 81.86 62.46 81.83Q62.19 81.81 61.80 81.81L61.80 81.81L61.80 82.09L61.41 82.09L61.41 91.31ZM73.56 94.98L73.56 79.13Q73.56 78.35 73.63 78.22L73.63 78.22Q73.74 78.03 74.00 78.03L74.00 78.03L74.32 78.03Q74.52 78.03 74.60 78.06L74.60 78.06L75.28 78.06Q76.59 78.06 79.25 78.00Q81.91 77.93 83.24 77.93L83.24 77.93L86.70 77.93Q87.04 77.97 87.04 78.27L87.04 78.27L87.04 82.61Q87.03 82.69 87.00 82.75Q86.96 82.81 86.94 82.83Q86.92 82.85 86.82 82.92Q86.72 82.99 86.68 83.03L86.68 83.03L80.64 83.03L80.64 84.64L81.21 84.64Q81.97 84.64 83.52 84.59Q85.06 84.54 85.90 84.54L85.90 84.54Q86.26 84.54 86.39 84.68Q86.52 84.83 86.52 85.09L86.52 85.09Q86.52 85.15 86.50 85.31Q86.47 85.46 86.47 85.53L86.47 85.53L86.47 86.02Q86.47 86.08 86.48 86.24Q86.50 86.40 86.50 86.52L86.50 86.52L86.50 86.88Q86.50 87.17 86.52 87.46Q86.55 87.74 86.55 87.95L86.55 87.95L86.55 88.29Q86.48 88.44 86.44 88.50Q86.40 88.55 86.31 88.55L86.31 88.55L86.31 88.52Q85.83 88.52 84.65 88.59Q83.48 88.65 82.77 88.65L82.77 88.65L80.69 88.65L80.69 90.32Q80.80 90.32 81.00 90.33Q81.21 90.34 81.32 90.34L81.32 90.34Q81.90 90.34 83.05 90.31Q84.19 90.27 84.70 90.27L84.70 90.27L86.37 90.27Q87.04 90.27 87.22 90.42L87.22 90.42Q87.29 90.50 87.33 90.58L87.33 90.58L87.33 94.74Q87.33 95.02 87.22 95.16Q87.12 95.30 86.83 95.32L86.83 95.32L73.95 95.32L73.56 94.98ZM101.62 78.03L106.07 78.03Q106.22 78.09 106.31 78.48Q106.39 78.88 106.40 79.48Q106.42 80.08 106.40 80.62Q106.39 81.17 106.37 81.74Q106.35 82.32 106.35 82.46L106.35 82.46Q106.33 82.98 106.33 83.92L106.33 83.92L106.33 85.30Q106.33 86.21 106.35 87.79Q106.38 89.38 106.38 90.14L106.38 90.14L106.38 94.87Q106.33 95.32 105.65 95.32L105.65 95.32L98.36 95.32Q98.13 95.26 97.76 94.22L97.76 94.22Q97.52 93.53 96.94 91.96Q96.36 90.38 95.94 89.19Q95.53 88.00 95.19 86.88L95.19 86.88L95.19 86.81L95.19 86.88Q95.15 87.74 95.11 89.44Q95.07 91.14 95.03 91.98L95.03 91.98L95.03 94.64Q95.03 95.03 94.94 95.18Q94.85 95.33 94.46 95.42L94.46 95.42L89.10 95.42L88.53 94.85Q88.59 92.69 88.63 88.08Q88.67 83.47 88.73 81.26L88.73 81.26L88.73 78.45Q88.86 77.98 89.05 77.98L89.05 77.98L89.05 78.03Q89.93 78.03 91.82 77.98Q93.72 77.93 94.67 77.93L94.67 77.93L96.85 77.93Q96.87 77.93 96.89 77.94L96.89 77.94Q97.13 78.03 97.15 78.15L97.15 78.15L97.17 78.24Q97.63 79.50 98.12 80.86Q98.60 82.21 99.26 84.13Q99.92 86.05 100.18 86.78L100.18 86.78L100.18 84.85Q100.45 80.27 100.45 78.35L100.45 78.35Q100.45 78.14 100.73 78.09Q101.02 78.03 101.62 78.03L101.62 78.03ZM107.63 82.77L107.63 82.77L107.63 78.09L122.77 78.09Q122.98 78.13 123.04 78.25Q123.09 78.37 123.09 78.61L123.09 78.61L123.09 82.77Q123.06 83.08 122.72 83.08L122.72 83.08L119.03 83.08L119.03 95.06Q119.03 95.07 119.01 95.12Q119.00 95.17 119.00 95.19Q119.00 95.20 118.99 95.24Q118.98 95.28 118.96 95.29Q118.95 95.30 118.94 95.33Q118.92 95.37 118.90 95.37Q118.88 95.38 118.85 95.40Q118.82 95.42 118.79 95.43Q118.75 95.45 118.71 95.45Q118.66 95.46 118.61 95.47L118.61 95.47L117.78 95.47Q116.11 95.47 116.11 95.37L116.11 95.37Q116.01 95.37 115.80 95.38Q115.59 95.39 115.49 95.39L115.49 95.39L114.45 95.39Q114.15 95.39 113.59 95.41Q113.04 95.42 112.73 95.42L112.73 95.42L112.00 95.42L111.48 95.06L111.48 92.24Q111.49 91.49 111.59 89.02Q111.69 86.54 111.69 85.11L111.69 85.11L111.69 84.78Q111.69 84.67 111.70 84.45Q111.71 84.23 111.71 84.12L111.71 84.12Q111.71 84.01 111.70 83.65Q111.69 83.29 111.69 83.19L111.69 83.19L108.43 83.19Q108.15 83.19 107.89 83.09Q107.63 82.99 107.63 82.77ZM140.34 78.09L141.67 78.09Q141.76 78.06 141.96 78.04Q142.16 78.02 142.22 78.01L142.22 78.01L143.76 85.93L145.79 77.98L154.94 77.98Q155.31 77.98 155.31 79.52L155.31 79.52L155.31 94.85Q155.28 95.06 155.19 95.19Q155.10 95.32 154.92 95.36Q154.75 95.41 154.65 95.41Q154.55 95.42 154.32 95.42L154.32 95.42Q153.50 95.42 151.83 95.45Q150.15 95.47 149.32 95.47L149.32 95.47Q148.67 95.07 148.67 92.48L148.67 92.48Q148.67 91.83 148.70 90.78Q148.72 89.73 148.72 89.23L148.72 89.23L148.72 88.08Q148.72 87.99 148.71 87.79Q148.70 87.59 148.70 87.48L148.70 87.48Q148.70 87.04 148.75 86.05L148.75 86.05L148.75 87.04Q148.57 87.81 148.05 89.38Q147.52 90.96 147.34 91.72L147.34 91.72L146.56 95.06Q146.35 95.42 145.26 95.42L145.26 95.42Q144.73 95.42 143.87 95.39Q143.02 95.37 142.58 95.37L142.58 95.37Q142.45 95.37 142.14 95.38Q141.83 95.39 141.75 95.39L141.75 95.39Q141.33 95.39 141.15 95.29Q140.97 95.19 140.89 94.87L140.89 94.87Q139.67 89.45 139.20 87.20L139.20 87.20L138.73 84.96Q138.55 88.74 138.55 92.97L138.55 92.97L138.55 95.26L132.40 95.26Q132.40 95.19 132.44 94.93Q132.48 94.66 132.48 94.64L132.48 94.64Q132.38 92.14 132.38 88.47L132.38 88.47Q132.38 87.36 132.37 85.52Q132.35 83.68 132.35 82.98L132.35 82.98L132.35 78.37Q132.35 78.20 132.40 78.12Q132.46 78.03 132.66 77.88L132.66 77.88L133.86 77.88Q134.51 77.88 134.80 77.85L134.80 77.85Q136.11 77.85 137.99 77.97Q139.87 78.09 140.34 78.09L140.34 78.09ZM148.75 85.95L148.75 85.97L148.75 85.95ZM167.85 92.71L163.84 92.71Q163.75 93.01 163.67 93.50Q163.58 93.99 163.51 94.27Q163.44 94.55 163.27 94.85Q163.10 95.16 162.76 95.30Q162.41 95.45 161.86 95.45L161.86 95.45L156.24 95.45L156.24 95.00Q156.93 92.93 158.25 88.65Q159.57 84.37 160.30 82.17L160.30 82.17L160.30 82.20Q160.75 80.94 161.60 78.24L161.60 78.24Q161.62 78.22 161.64 78.18L161.64 78.18Q161.76 77.98 161.86 77.88L161.86 77.88L168.89 77.93Q170.69 77.93 170.87 78.24L170.87 78.24L170.87 78.58Q170.90 78.70 171.16 79.18L171.16 79.18Q172.42 83.04 173.00 84.80L173.00 84.80L173.00 84.96Q173.06 85.33 173.24 85.82Q173.42 86.30 173.67 86.85Q173.93 87.40 174.03 87.72L174.03 87.72L174.55 89.59Q175.01 91.10 175.89 93.62L175.89 93.62L175.89 93.60L175.89 93.86Q175.93 94.04 176.09 94.35Q176.24 94.66 176.28 94.79L176.28 94.79Q176.28 95.16 176.13 95.26Q175.98 95.37 175.55 95.37L175.55 95.37L169.52 95.37Q169.30 95.34 169.23 95.33Q169.17 95.32 169.03 95.28Q168.89 95.24 168.83 95.17Q168.77 95.11 168.76 95.00L168.76 95.00L168.27 93.03Q168.22 92.78 168.16 92.75Q168.11 92.71 167.85 92.71L167.85 92.71ZM164.47 88.13L164.47 88.08L164.47 88.13ZM167.33 86.52L167.33 86.52Q167.25 86.15 167.10 85.34Q166.95 84.53 166.81 83.92Q166.67 83.32 166.50 82.80L166.50 82.80L166.50 82.17Q166.39 81.90 166.13 81.78L166.13 81.78L166.13 81.81Q165.82 81.87 165.51 83.55L165.51 83.55L165.51 84.18Q165.48 84.27 165.39 84.35Q165.30 84.42 165.30 84.44L165.30 84.44Q164.87 86.34 164.60 87.51L164.60 87.51Q164.60 87.64 164.53 87.96Q164.47 88.29 164.47 88.34L164.47 88.34L167.69 88.34Q167.69 88.00 167.46 87.12L167.46 87.12L167.46 86.83Q167.45 86.79 167.39 86.68Q167.33 86.57 167.33 86.52ZM189.92 78.03L194.37 78.03Q194.53 78.09 194.61 78.48Q194.70 78.88 194.71 79.48Q194.72 80.08 194.71 80.62Q194.70 81.17 194.68 81.74Q194.66 82.32 194.66 82.46L194.66 82.46Q194.63 82.98 194.63 83.92L194.63 83.92L194.63 85.30Q194.63 86.21 194.66 87.79Q194.68 89.38 194.68 90.14L194.68 90.14L194.68 94.87Q194.63 95.32 193.95 95.32L193.95 95.32L186.67 95.32Q186.43 95.26 186.07 94.22L186.07 94.22Q185.82 93.53 185.24 91.96Q184.66 90.38 184.25 89.19Q183.83 88.00 183.49 86.88L183.49 86.88L183.49 86.81L183.49 86.88Q183.45 87.74 183.41 89.44Q183.37 91.14 183.34 91.98L183.34 91.98L183.34 94.64Q183.34 95.03 183.24 95.18Q183.15 95.33 182.76 95.42L182.76 95.42L177.40 95.42L176.83 94.85Q176.89 92.69 176.93 88.08Q176.97 83.47 177.04 81.26L177.04 81.26L177.04 78.45Q177.17 77.98 177.35 77.98L177.35 77.98L177.35 78.03Q178.23 78.03 180.13 77.98Q182.02 77.93 182.97 77.93L182.97 77.93L185.16 77.93Q185.17 77.93 185.20 77.94L185.20 77.94Q185.43 78.03 185.46 78.15L185.46 78.15L185.47 78.24Q185.94 79.50 186.42 80.86Q186.90 82.21 187.57 84.13Q188.23 86.05 188.49 86.78L188.49 86.78L188.49 84.85Q188.75 80.27 188.75 78.35L188.75 78.35Q188.75 78.14 189.04 78.09Q189.32 78.03 189.92 78.03L189.92 78.03ZM207.28 92.71L203.27 92.71Q203.18 93.01 203.10 93.50Q203.01 93.99 202.94 94.27Q202.87 94.55 202.70 94.85Q202.53 95.16 202.18 95.30Q201.84 95.45 201.29 95.45L201.29 95.45L195.67 95.45L195.67 95.00Q196.36 92.93 197.68 88.65Q199.00 84.37 199.73 82.17L199.73 82.17L199.73 82.20Q200.17 80.94 201.03 78.24L201.03 78.24Q201.05 78.22 201.07 78.18L201.07 78.18Q201.19 77.98 201.29 77.88L201.29 77.88L208.32 77.93Q210.12 77.93 210.30 78.24L210.30 78.24L210.30 78.58Q210.32 78.70 210.58 79.18L210.58 79.18Q211.85 83.04 212.43 84.80L212.43 84.80L212.43 84.96Q212.48 85.33 212.67 85.82Q212.85 86.30 213.10 86.85Q213.36 87.40 213.46 87.72L213.46 87.72L213.98 89.59Q214.44 91.10 215.32 93.62L215.32 93.62L215.32 93.60L215.32 93.86Q215.36 94.04 215.52 94.35Q215.67 94.66 215.71 94.79L215.71 94.79Q215.71 95.16 215.56 95.26Q215.41 95.37 214.98 95.37L214.98 95.37L208.94 95.37Q208.72 95.34 208.66 95.33Q208.59 95.32 208.46 95.28Q208.32 95.24 208.26 95.17Q208.20 95.11 208.19 95.00L208.19 95.00L207.70 93.03Q207.64 92.78 207.59 92.75Q207.54 92.71 207.28 92.71L207.28 92.71ZM203.90 88.13L203.90 88.08L203.90 88.13ZM206.76 86.52L206.76 86.52Q206.68 86.15 206.53 85.34Q206.38 84.53 206.24 83.92Q206.10 83.32 205.93 82.80L205.93 82.80L205.93 82.17Q205.82 81.90 205.56 81.78L205.56 81.78L205.56 81.81Q205.25 81.87 204.94 83.55L204.94 83.55L204.94 84.18Q204.91 84.27 204.82 84.35Q204.73 84.42 204.73 84.44L204.73 84.44Q204.30 86.34 204.03 87.51L204.03 87.51Q204.03 87.64 203.96 87.96Q203.90 88.29 203.90 88.34L203.90 88.34L207.12 88.34Q207.12 88.00 206.89 87.12L206.89 87.12L206.89 86.83Q206.88 86.79 206.82 86.68Q206.76 86.57 206.76 86.52ZM233.85 93.08L233.85 94.22Q233.75 94.70 232.09 95.09Q230.43 95.47 228.78 95.63Q227.14 95.78 226.17 95.78L226.17 95.78Q225.16 95.78 224.41 95.73Q223.66 95.68 222.63 95.50Q221.59 95.33 220.64 94.91Q219.69 94.48 218.86 93.83L218.86 93.83L218.31 93.36Q218.09 93.21 217.87 92.90L217.87 92.90L217.46 92.35Q215.89 89.89 215.89 86.62L215.89 86.62Q215.89 83.38 217.53 81.11L217.53 81.11L217.90 80.66L217.90 80.48L217.90 80.51Q220.24 77.51 225.63 77.51L225.63 77.51Q226.41 77.51 227.33 77.65Q228.24 77.79 229.28 78.08Q230.31 78.37 231.24 78.95Q232.16 79.52 232.71 80.27L232.71 80.27Q232.98 80.64 233.12 81.09Q233.27 81.53 233.39 82.24Q233.51 82.95 233.59 83.29L233.59 83.29Q233.59 83.73 232.76 83.73L232.76 83.73L231.69 83.73Q231.33 83.73 230.20 83.70Q229.08 83.66 228.41 83.66L228.41 83.66L226.98 83.66Q226.80 83.59 226.65 83.25Q226.50 82.90 226.46 82.85L226.46 82.85L226.46 82.88Q226.23 82.35 225.42 82.35L225.42 82.35Q224.89 82.35 224.49 82.58Q224.09 82.81 223.88 83.14Q223.68 83.47 223.55 83.97Q223.43 84.48 223.40 84.89Q223.36 85.31 223.36 85.84L223.36 85.84Q223.36 86.02 223.38 86.35Q223.39 86.67 223.39 86.78L223.39 86.78L223.39 87.77Q223.39 88.24 223.42 88.59Q223.45 88.94 223.58 89.38Q223.71 89.82 223.95 90.11Q224.18 90.40 224.63 90.59Q225.07 90.79 225.68 90.79L225.68 90.79Q226.95 90.79 227.68 90.55L227.68 90.55L227.68 89.98Q227.68 89.88 227.67 89.71Q227.66 89.54 227.66 89.43L227.66 89.43Q227.66 89.41 227.67 89.30Q227.68 89.20 227.68 89.12L227.68 89.12L227.19 89.12Q227.08 89.12 226.93 89.13Q226.77 89.15 226.72 89.15L226.72 89.15L225.63 89.15L225.18 88.65Q225.16 88.52 225.16 88.26L225.16 88.26L225.16 87.46Q225.16 87.30 225.17 86.97Q225.18 86.65 225.18 86.44L225.18 86.44L225.18 86.08Q225.18 86.05 225.20 85.96Q225.21 85.87 225.21 85.79L225.21 85.79L225.21 85.69Q225.21 85.45 225.30 85.31Q225.39 85.17 225.65 85.01L225.65 85.01L226.88 85.01Q227.01 85.01 227.27 85.06L227.27 85.06L228.44 85.06Q229.74 85.11 230.36 85.11L230.36 85.11L231.61 85.11Q233.59 85.11 233.96 85.48L233.96 85.48Q233.96 86.73 233.90 89.28Q233.85 91.83 233.85 93.08L233.85 93.08ZM236.01 94.98L236.01 79.13Q236.01 78.35 236.08 78.22L236.08 78.22Q236.19 78.03 236.45 78.03L236.45 78.03L236.77 78.03Q236.97 78.03 237.05 78.06L237.05 78.06L237.73 78.06Q239.04 78.06 241.70 78.00Q244.37 77.93 245.69 77.93L245.69 77.93L249.15 77.93Q249.49 77.97 249.49 78.27L249.49 78.27L249.49 82.61Q249.48 82.69 249.45 82.75Q249.41 82.81 249.39 82.83Q249.38 82.85 249.27 82.92Q249.17 82.99 249.13 83.03L249.13 83.03L243.09 83.03L243.09 84.64L243.66 84.64Q244.42 84.64 245.97 84.59Q247.51 84.54 248.35 84.54L248.35 84.54Q248.71 84.54 248.84 84.68Q248.97 84.83 248.97 85.09L248.97 85.09Q248.97 85.15 248.95 85.31Q248.92 85.46 248.92 85.53L248.92 85.53L248.92 86.02Q248.92 86.08 248.93 86.24Q248.95 86.40 248.95 86.52L248.95 86.52L248.95 86.88Q248.95 87.17 248.97 87.46Q249.00 87.74 249.00 87.95L249.00 87.95L249.00 88.29Q248.93 88.44 248.89 88.50Q248.85 88.55 248.76 88.55L248.76 88.55L248.76 88.52Q248.28 88.52 247.10 88.59Q245.93 88.65 245.22 88.65L245.22 88.65L243.14 88.65L243.14 90.32Q243.25 90.32 243.45 90.33Q243.66 90.34 243.77 90.34L243.77 90.34Q244.35 90.34 245.50 90.31Q246.64 90.27 247.15 90.27L247.15 90.27L248.82 90.27Q249.49 90.27 249.67 90.42L249.67 90.42Q249.74 90.50 249.78 90.58L249.78 90.58L249.78 94.74Q249.78 95.02 249.67 95.16Q249.57 95.30 249.28 95.32L249.28 95.32L236.40 95.32L236.01 94.98ZM259.43 78.09L260.76 78.09Q260.85 78.06 261.05 78.04Q261.26 78.02 261.31 78.01L261.31 78.01L262.86 85.93L264.89 77.98L274.03 77.98Q274.40 77.98 274.40 79.52L274.40 79.52L274.40 94.85Q274.37 95.06 274.28 95.19Q274.19 95.32 274.01 95.36Q273.84 95.41 273.74 95.41Q273.64 95.42 273.41 95.42L273.41 95.42Q272.59 95.42 270.92 95.45Q269.25 95.47 268.41 95.47L268.41 95.47Q267.76 95.07 267.76 92.48L267.76 92.48Q267.76 91.83 267.79 90.78Q267.81 89.73 267.81 89.23L267.81 89.23L267.81 88.08Q267.81 87.99 267.80 87.79Q267.79 87.59 267.79 87.48L267.79 87.48Q267.79 87.04 267.84 86.05L267.84 86.05L267.84 87.04Q267.66 87.81 267.14 89.38Q266.62 90.96 266.43 91.72L266.43 91.72L265.65 95.06Q265.45 95.42 264.35 95.42L264.35 95.42Q263.82 95.42 262.97 95.39Q262.11 95.37 261.67 95.37L261.67 95.37Q261.54 95.37 261.23 95.38Q260.92 95.39 260.84 95.39L260.84 95.39Q260.42 95.39 260.24 95.29Q260.06 95.19 259.98 94.87L259.98 94.87Q258.76 89.45 258.29 87.20L258.29 87.20L257.82 84.96Q257.64 88.74 257.64 92.97L257.64 92.97L257.64 95.26L251.50 95.26Q251.50 95.19 251.54 94.93Q251.57 94.66 251.57 94.64L251.57 94.64Q251.47 92.14 251.47 88.47L251.47 88.47Q251.47 87.36 251.46 85.52Q251.44 83.68 251.44 82.98L251.44 82.98L251.44 78.37Q251.44 78.20 251.50 78.12Q251.55 78.03 251.76 77.88L251.76 77.88L252.95 77.88Q253.60 77.88 253.89 77.85L253.89 77.85Q255.21 77.85 257.09 77.97Q258.97 78.09 259.43 78.09L259.43 78.09ZM267.84 85.95L267.84 85.97L267.84 85.95ZM276.85 94.98L276.85 79.13Q276.85 78.35 276.91 78.22L276.91 78.22Q277.03 78.03 277.29 78.03L277.29 78.03L277.60 78.03Q277.81 78.03 277.89 78.06L277.89 78.06L278.56 78.06Q279.88 78.06 282.54 78.00Q285.20 77.93 286.53 77.93L286.53 77.93L289.99 77.93Q290.33 77.97 290.33 78.27L290.33 78.27L290.33 82.61Q290.31 82.69 290.28 82.75Q290.25 82.81 290.23 82.83Q290.21 82.85 290.11 82.92Q290.00 82.99 289.96 83.03L289.96 83.03L283.92 83.03L283.92 84.64L284.50 84.64Q285.25 84.64 286.80 84.59Q288.35 84.54 289.18 84.54L289.18 84.54Q289.55 84.54 289.68 84.68Q289.81 84.83 289.81 85.09L289.81 85.09Q289.81 85.15 289.78 85.31Q289.75 85.46 289.75 85.53L289.75 85.53L289.75 86.02Q289.75 86.08 289.77 86.24Q289.78 86.40 289.78 86.52L289.78 86.52L289.78 86.88Q289.78 87.17 289.81 87.46Q289.83 87.74 289.83 87.95L289.83 87.95L289.83 88.29Q289.77 88.44 289.73 88.50Q289.69 88.55 289.60 88.55L289.60 88.55L289.60 88.52Q289.12 88.52 287.94 88.59Q286.76 88.65 286.06 88.65L286.06 88.65L283.98 88.65L283.98 90.32Q284.08 90.32 284.29 90.33Q284.50 90.34 284.60 90.34L284.60 90.34Q285.19 90.34 286.33 90.31Q287.48 90.27 287.98 90.27L287.98 90.27L289.65 90.27Q290.33 90.27 290.51 90.42L290.51 90.42Q290.57 90.50 290.61 90.58L290.61 90.58L290.61 94.74Q290.61 95.02 290.51 95.16Q290.40 95.30 290.12 95.32L290.12 95.32L277.24 95.32L276.85 94.98ZM304.90 78.03L309.35 78.03Q309.51 78.09 309.59 78.48Q309.68 78.88 309.69 79.48Q309.70 80.08 309.69 80.62Q309.68 81.17 309.66 81.74Q309.64 82.32 309.64 82.46L309.64 82.46Q309.61 82.98 309.61 83.92L309.61 83.92L309.61 85.30Q309.61 86.21 309.64 87.79Q309.66 89.38 309.66 90.14L309.66 90.14L309.66 94.87Q309.61 95.32 308.93 95.32L308.93 95.32L301.65 95.32Q301.41 95.26 301.05 94.22L301.05 94.22Q300.80 93.53 300.22 91.96Q299.64 90.38 299.23 89.19Q298.81 88.00 298.47 86.88L298.47 86.88L298.47 86.81L298.47 86.88Q298.43 87.74 298.39 89.44Q298.36 91.14 298.32 91.98L298.32 91.98L298.32 94.64Q298.32 95.03 298.22 95.18Q298.13 95.33 297.74 95.42L297.74 95.42L292.38 95.42L291.81 94.85Q291.87 92.69 291.91 88.08Q291.95 83.47 292.02 81.26L292.02 81.26L292.02 78.45Q292.15 77.98 292.33 77.98L292.33 77.98L292.33 78.03Q293.22 78.03 295.11 77.98Q297.00 77.93 297.95 77.93L297.95 77.93L300.14 77.93Q300.15 77.93 300.18 77.94L300.18 77.94Q300.41 78.03 300.44 78.15L300.44 78.15L300.45 78.24Q300.92 79.50 301.40 80.86Q301.88 82.21 302.55 84.13Q303.21 86.05 303.47 86.78L303.47 86.78L303.47 84.85Q303.73 80.27 303.73 78.35L303.73 78.35Q303.73 78.14 304.02 78.09Q304.30 78.03 304.90 78.03L304.90 78.03ZM310.91 82.77L310.91 82.77L310.91 78.09L326.06 78.09Q326.27 78.13 326.32 78.25Q326.37 78.37 326.37 78.61L326.37 78.61L326.37 82.77Q326.35 83.08 326.01 83.08L326.01 83.08L322.31 83.08L322.31 95.06Q322.31 95.07 322.30 95.12Q322.29 95.17 322.29 95.19Q322.29 95.20 322.27 95.24Q322.26 95.28 322.25 95.29Q322.23 95.30 322.22 95.33Q322.21 95.37 322.19 95.37Q322.17 95.38 322.14 95.40Q322.10 95.42 322.07 95.43Q322.04 95.45 321.99 95.45Q321.95 95.46 321.90 95.47L321.90 95.47L321.06 95.47Q319.40 95.47 319.40 95.37L319.40 95.37Q319.29 95.37 319.08 95.38Q318.88 95.39 318.77 95.39L318.77 95.39L317.73 95.39Q317.43 95.39 316.88 95.41Q316.33 95.42 316.01 95.42L316.01 95.42L315.28 95.42L314.76 95.06L314.76 92.24Q314.78 91.49 314.87 89.02Q314.97 86.54 314.97 85.11L314.97 85.11L314.97 84.78Q314.97 84.67 314.99 84.45Q315.00 84.23 315.00 84.12L315.00 84.12Q315.00 84.01 314.99 83.65Q314.97 83.29 314.97 83.19L314.97 83.19L311.72 83.19Q311.43 83.19 311.17 83.09Q310.91 82.99 310.91 82.77Z"></path>
            </g>
        </g>
    </g>
    
    <!-- ITEM 6 -->
    <g>
        <defs>
            <clipPath id="clip-path-id-viewbox-item-6">
                <rect x="0.0" y="0.0" width="0.0" height="0.0"/>
            </clipPath>
        </defs>
        <g transform="translate(986.0 675.0) rotate(0.0 -105.5 132.5) scale(-Infinity Infinity)">
            <g clip-path="url(#clip-path-id-viewbox-item-6)" transform="translate(-0.0 -0.0)">
                
            </g>
        </g>
    </g>
    
    <!-- ITEM 7 -->
    <g>
        <defs>
            <clipPath id="clip-path-id-viewbox-item-7">
                <rect x="0.0" y="0.0" width="531.957" height="396.786"/>
            </clipPath>
        </defs>
        <g transform="translate(935.0 768.0) rotate(0.0 88.5 66.0) scale(0.3327336608034108 0.3326730277781978)">
            <g clip-path="url(#clip-path-id-viewbox-item-7)" transform="translate(-0.0 -0.0)">
                
<g>
	<path style="fill:#E5A024;" d="M372.192,396.786H24.594C11.011,396.786,0,385.775,0,372.192V24.594C0,11.011,11.011,0,24.594,0   h347.598c13.583,0,24.594,11.011,24.594,24.594v36.192c0,13.583-11.011,24.594-24.594,24.594   c-13.583,0-24.594-11.011-24.594-24.594V49.188H49.188v298.41h298.41v-78.581c0-13.583,11.011-24.594,24.594-24.594   c13.583,0,24.594,11.011,24.594,24.594v103.176C396.786,385.775,385.775,396.786,372.192,396.786z"></path>
	<path style="fill:#CF4327;" d="M216.17,321.263c-9.217,0-18.368-3.865-24.843-11.37L79.466,180.257   c-11.831-13.712-10.308-34.418,3.404-46.25c13.712-11.834,34.418-10.308,46.25,3.404l91.018,105.481L478.43,32.101   c14.032-11.451,34.689-9.358,46.14,4.672c11.451,14.031,9.359,34.689-4.672,46.14l-283.01,230.963   C230.807,318.838,223.467,321.263,216.17,321.263z"></path>
</g>

            </g>
        </g>
    </g>
    
    <!-- ITEM 8 -->
    <g>
        <defs>
            <clipPath id="clip-path-id-crop-item-8">
                
          <rect transform="scale(1.0200869565217392 0.990423469387755)" x="0.0" y="134.0" width="52.0" height="61.0" />
        
            </clipPath>
            
            <clipPath id="clip-path-id-viewbox-item-8">
                <rect x="0.0" y="0.0" width="46.924" height="194.123"/>
            </clipPath>
        </defs>
        <g clip-path="url(#clip-path-id-crop-item-8)" transform="translate(1032.0 364.0) rotate(89.99999999999994 23.0 98.0) scale(0.9803085840934277 1.0096691273058835)">
            <g clip-path="url(#clip-path-id-viewbox-item-8)" transform="translate(-0.0 -0.0)">
                
<g>
	<g>
		<g>
			<path style="fill:#e9e7db;" d="M23.462,194.123L23.462,194.123C10.504,194.123,0,183.619,0,170.661V23.462     C0,10.504,10.504,0,23.462,0h0C36.42,0,46.924,10.504,46.924,23.462v147.199C46.924,183.619,36.42,194.123,23.462,194.123z"></path>
		</g>
	</g>
</g>

            </g>
        </g>
    </g>
    
    <!-- ITEM 9 -->
    <g>
        <defs>
            <clipPath id="clip-path-id-crop-item-9">
                
          <rect transform="scale(1.0200869565217392 0.990423469387755)" x="-1.0" y="83.0" width="51.0" height="113.0" />
        
            </clipPath>
            
            <clipPath id="clip-path-id-viewbox-item-9">
                <rect x="0.0" y="0.0" width="46.924" height="194.123"/>
            </clipPath>
        </defs>
        <g clip-path="url(#clip-path-id-crop-item-9)" transform="translate(1055.0 560.0) rotate(89.99999999999994 -23.0 -98.0) scale(-0.9803085840934277 -1.0096691273058835)">
            <g clip-path="url(#clip-path-id-viewbox-item-9)" transform="translate(-0.0 -0.0)">
                
<g>
	<g>
		<g>
			<path style="fill:#e9e7db;" d="M23.462,194.123L23.462,194.123C10.504,194.123,0,183.619,0,170.661V23.462     C0,10.504,10.504,0,23.462,0h0C36.42,0,46.924,10.504,46.924,23.462v147.199C46.924,183.619,36.42,194.123,23.462,194.123z"></path>
		</g>
	</g>
</g>

            </g>
        </g>
    </g>
    
    <!-- ITEM 10 -->
    <g>
        <defs>
            <clipPath id="clip-path-id-crop-item-10">
                
          <rect transform="scale(1.0200869565217392 0.990423469387755)" x="0.0" y="134.0" width="52.0" height="61.0" />
        
            </clipPath>
            
            <clipPath id="clip-path-id-viewbox-item-10">
                <rect x="0.0" y="0.0" width="46.924" height="194.123"/>
            </clipPath>
        </defs>
        <g clip-path="url(#clip-path-id-crop-item-10)" transform="translate(1034.0 423.0) rotate(89.99999999999994 23.0 98.0) scale(0.9803085840934277 1.0096691273058835)">
            <g clip-path="url(#clip-path-id-viewbox-item-10)" transform="translate(-0.0 -0.0)">
                
<g>
	<g>
		<g>
			<path style="fill:#e9e7db;" d="M23.462,194.123L23.462,194.123C10.504,194.123,0,183.619,0,170.661V23.462     C0,10.504,10.504,0,23.462,0h0C36.42,0,46.924,10.504,46.924,23.462v147.199C46.924,183.619,36.42,194.123,23.462,194.123z"></path>
		</g>
	</g>
</g>

            </g>
        </g>
    </g>
    
    <!-- ITEM 11 -->
    <g>
        <defs>
            <clipPath id="clip-path-id-viewbox-item-11">
                <rect x="0.0" y="0.0" width="462.759" height="451.043"/>
            </clipPath>
        </defs>
        <g transform="translate(893.0 556.0) rotate(0.0 79.5 77.5) scale(0.3435913726151193 0.34364794487443545)">
            <g clip-path="url(#clip-path-id-viewbox-item-11)" transform="translate(-0.0 -0.0)">
                
<path style="fill:#FF564F;" d="M210.551,246.566c-3.539-2.574,24.886-136.853,46.045-237.441c-2.032-0.055-4.072-0.088-6.124-0.088  c-122.057,0-233.412,98.947-248.718,221.004c-15.306,122.057,71.232,221.003,193.289,221.003  c100.867,0,194.419-67.576,232.502-159.922C332.618,272.566,213.901,249.002,210.551,246.566z M338.608,367.781  c-29.585,26.729-75.939,59.226-128.758,62.246c-0.058,0.003-0.116,0.005-0.174,0.005c-1.579,0-2.901-1.233-2.993-2.829  c-0.094-1.654,1.17-3.072,2.824-3.166c51.031-2.917,96.13-34.573,124.977-60.616c31.437-28.38,50.946-56.454,51.14-56.734  c0.941-1.364,2.809-1.706,4.173-0.766s1.707,2.809,0.766,4.172C390.366,310.378,370.531,338.938,338.608,367.781z"></path>
<path style="fill:#FF9B19;" d="M390.45,56.775c-52.164,57.561-131.102,145.286-148.705,164.855c-1.11,1.234-0.567,3.032,0.962,3.206  l214.136,24.281c1.869-7.717,3.323-15.564,4.321-23.523C470.04,154.813,441.252,92.585,390.45,56.775z M443.146,228.609  c-0.189,1.518-1.481,2.63-2.974,2.63c-0.123,0-0.248-0.008-0.374-0.023c-1.644-0.205-2.811-1.703-2.606-3.348  c9.804-78.81-27.354-124.451-43.786-140.416c-0.636-0.618-0.985-0.958-1.23-1.238c-1.091-1.247-0.964-3.143,0.283-4.233  c1.247-1.09,3.141-0.964,4.232,0.281c0.15,0.167,0.458,0.461,0.897,0.887c12.188,11.843,22.326,25.963,30.132,41.967  C442.682,155.796,447.872,190.616,443.146,228.609z"></path>
<path style="fill:#2568EF;" d="M293.266,0l-62.63,207.729c-0.317,1.051,0.981,1.622,1.707,0.75l147.664-177.43  C355.003,14.506,325.565,3.653,293.266,0z M357.298,39.192c-0.457,0-0.92-0.125-1.335-0.388  c-27.997-17.739-56.134-19.197-56.416-19.21c-1.379-0.062-2.447-1.229-2.386-2.608c0.061-1.379,1.231-2.45,2.606-2.387  c1.199,0.053,29.699,1.497,58.872,19.981c1.166,0.739,1.513,2.283,0.773,3.45C358.937,38.781,358.126,39.192,357.298,39.192z"></path>

            </g>
        </g>
    </g>
    
    <!-- ITEM 12 -->
    <g>
        <defs>
            <clipPath id="clip-path-id-crop-item-12">
                
          <rect transform="scale(1.0200869565217392 0.990423469387755)" x="-1.0" y="83.0" width="51.0" height="113.0" />
        
            </clipPath>
            
            <clipPath id="clip-path-id-viewbox-item-12">
                <rect x="0.0" y="0.0" width="46.924" height="194.123"/>
            </clipPath>
        </defs>
        <g clip-path="url(#clip-path-id-crop-item-12)" transform="translate(1057.0 619.0) rotate(89.99999999999994 -23.0 -98.0) scale(-0.9803085840934277 -1.0096691273058835)">
            <g clip-path="url(#clip-path-id-viewbox-item-12)" transform="translate(-0.0 -0.0)">
                
<g>
	<g>
		<g>
			<path style="fill:#e9e7db;" d="M23.462,194.123L23.462,194.123C10.504,194.123,0,183.619,0,170.661V23.462     C0,10.504,10.504,0,23.462,0h0C36.42,0,46.924,10.504,46.924,23.462v147.199C46.924,183.619,36.42,194.123,23.462,194.123z"></path>
		</g>
	</g>
</g>

            </g>
        </g>
    </g>
    
</svg>