<?xml version="1.0" encoding="UTF-8"?><svg version="1.1" xmlns="http://www.w3.org/2000/svg" xmlns:xlink="http://www.w3.org/1999/xlink" viewBox="0 0 1200 800" width="1200" height="800" x="0px" y="0px">
    
    
    <!-- ITEM 0 -->
    <g>
        <defs>
            <clipPath id="clip-path-id-viewbox-item-0">
                <rect x="0.0" y="0.0" width="885.24" height="787.42"/>
            </clipPath>
        </defs>
        <g transform="translate(70.0 181.0) rotate(0.0 311.5 277.0) scale(0.7037639510189327 0.7035635366132433)">
            <g clip-path="url(#clip-path-id-viewbox-item-0)" transform="translate(-0.0 -0.0)">
                
<g>
	<g>
		<g>
			<g>
				<g>
					<path style="fill:#262103;" d="M403.03,750.878V197.123h46.281v553.755c0,12.78-10.36,23.14-23.14,23.14h0       C413.391,774.018,403.03,763.658,403.03,750.878z"/>
				</g>
			</g>
		</g>
	</g>
	<g>
		<g>
			<g>
				<path style="fill:#09936F;" d="M604.653,787.42H247.689v-49.174c0-39.938,32.376-72.314,72.314-72.314h212.336      c39.938,0,72.314,32.376,72.314,72.314V787.42z"/>
			</g>
		</g>
	</g>
	<g>
		<g>
			<g>
				<path style="fill:#262103;" d="M604.653,787.42H247.689v-49.174c0-39.938,32.376-72.314,72.314-72.314h212.336      c39.938,0,72.314,32.376,72.314,72.314V787.42z"/>
			</g>
		</g>
	</g>
	<g>
		<g>
			<g>
				<path style="fill:#2654A4;" d="M852.342,512.948H129.201C57.845,512.948,0,455.102,0,383.747V0h723.141      c71.356,0,129.201,57.845,129.201,129.201V512.948z"/>
			</g>
		</g>
	</g>
	<g>
		<g>
			<g>
				<circle style="fill:#E9E7DB;" cx="786.804" cy="456.382" r="22.524"/>
			</g>
		</g>
	</g>
	<g>
		<g>
			<g>
				<polygon style="fill:#262103;" points="885.241,543.677 740.095,543.677 740.095,531.07 872.634,531.07 872.634,413.005       885.241,413.005     "/>
			</g>
		</g>
	</g>
</g>

            </g>
        </g>
    </g>
    
    <!-- ITEM 1 -->
    <g>
        <defs>
            <clipPath id="clip-path-id-viewbox-item-1">
                <rect x="0.0" y="0.0" width="192.837" height="294.559"/>
            </clipPath>
        </defs>
        <g transform="translate(278.0 210.0) rotate(0.0 98.0 151.0) scale(1.0164024538859244 1.025261492604198)">
            <g clip-path="url(#clip-path-id-viewbox-item-1)" transform="translate(-0.0 -0.0)">
                
<g>
	<g>
		<g>
			<g>
				<path style="fill:#FFCC51;" d="M60.368,125.505H15.052V81.474c0-44.925,36.549-81.474,81.474-81.474      s81.474,36.549,81.474,81.474v41.46h-45.316v-41.46c0-19.938-16.22-36.157-36.157-36.157s-36.157,16.22-36.157,36.157V125.505z"/>
			</g>
		</g>
	</g>
	<g>
		<g>
			<g>
				<path style="fill:#09936F;" d="M0,101.079v97.062c0,53.25,43.168,96.419,96.419,96.419l0,0      c53.251,0,96.419-43.168,96.419-96.419v-97.062H0z"/>
			</g>
		</g>
	</g>
	<g>
		<g>
			<g>
				<circle style="fill:#262103;" cx="96.419" cy="166.215" r="33.425"/>
			</g>
		</g>
	</g>
	<g>
		<g>
			<g>
				<polygon style="fill:#262103;" points="86.777,170.715 69.421,235.637 123.416,235.637 98.347,166.858     "/>
			</g>
		</g>
	</g>
	<g>
		<g>
			<g>
				<path style="fill:#262103;" d="M67.564,89.506c-0.071-0.698-1.638-17.224,8.023-27.484c5.185-5.504,12.328-8.112,21.201-7.736      l-0.525,12.596c-5.119-0.215-8.87,1.014-11.469,3.753c-4.743,5.002-4.991,14.409-4.688,17.612L67.564,89.506z"/>
			</g>
		</g>
	</g>
</g>

            </g>
        </g>
    </g>
    
    <!-- ITEM 2 -->
    <g>
        <defs>
            <clipPath id="clip-path-id-crop-item-2">
                
          <rect transform="scale(1.6810827067669174 1.67491059602649)" x="0.0" y="168.0" width="133.0" height="134.0"/>
        
            </clipPath>
            
            <clipPath id="clip-path-id-viewbox-item-2">
                <rect x="0.0" y="0.0" width="223.584" height="505.823"/>
            </clipPath>
        </defs>
        <g clip-path="url(#clip-path-id-crop-item-2)" transform="translate(478.0 532.0) rotate(89.99999999999999 66.5 -151.0) scale(0.5948547302132532 -0.5970467930481611)">
            <g clip-path="url(#clip-path-id-viewbox-item-2)" transform="translate(-0.0 -0.0)">
                
<g>
	<g>
		<g>
			<g>
				<path style="fill:#ffcc51;" d="M111.792,325.038L111.792,325.038c-12.958,0-23.462-10.504-23.462-23.462V23.462      C88.33,10.504,98.835,0,111.792,0h0c12.958,0,23.462,10.504,23.462,23.462v278.115      C135.254,314.534,124.75,325.038,111.792,325.038z"/>
			</g>
		</g>
	</g>
	<g>
		<g>
			<g>
				<rect x="122.666" y="26.354" style="fill:#ffcc51;" width="62.994" height="105.418"/>
			</g>
		</g>
	</g>
	<g>
		<g>
			<g>
				<path style="fill:#ffcc51;" d="M111.792,505.823C50.15,505.823,0,455.674,0,394.031S50.15,282.239,111.792,282.239      s111.792,50.149,111.792,111.792S173.435,505.823,111.792,505.823z M111.792,327.555c-36.654,0-66.476,29.821-66.476,66.476      s29.821,66.476,66.476,66.476s66.476-29.821,66.476-66.476S148.447,327.555,111.792,327.555z"/>
			</g>
		</g>
	</g>
	<g>
		<g>
			<g>
				<path style="fill:#262103;" d="M163.734,394.031h-12.607c0-21.689-17.645-39.334-39.334-39.334V342.09      C140.433,342.09,163.734,365.39,163.734,394.031z"/>
			</g>
		</g>
	</g>
	<g>
		<g>
			<g>
				<rect x="65.796" y="35.782" style="fill:#262103;" width="12.607" height="228.834"/>
			</g>
		</g>
	</g>
</g>

            </g>
        </g>
    </g>
    
    <!-- ITEM 3 -->
    <g>
        <defs>
            <clipPath id="clip-path-id-viewbox-item-3">
                <rect x="0.0" y="0.0" width="796.07" height="1146.36"/>
            </clipPath>
        </defs>
        <g transform="translate(1084.0 76.0) rotate(0.0 -227.5 327.5) scale(-0.5715577775823734 0.5713737394884679)">
            <g clip-path="url(#clip-path-id-viewbox-item-3)" transform="translate(-0.0 -0.0)">
                <path d="M82.84,684,65.13,661.18C10.38,590.66,21.68,494.06,90.35,445.42l232.89-165,48.39,62.33C469.17,468.41,449,640.52,326.68,727.19h0C251.75,780.28,142.57,760.93,82.84,684Z" style="fill:#09936f;"/><path d="M38.61,662.6A165.32,165.32,0,0,1,4.81,539.68c5.39-42.56,26.38-79.94,59.1-105.26l.2-.15L197.89,339.5l6.94,9.79L71.15,444C41,467.34,21.7,501.86,16.72,541.19A153.42,153.42,0,0,0,48.09,655.25Z" style="fill:#262103;"/><ellipse cx="322.81" cy="337.42" rx="110.61" ry="102.77" style="fill:#ffcc51;"/><path d="M389.49,89c-22.76,58.93,39,137.7,39,137.7S527.24,209.93,550,151,511,13.29,511,13.29,412.25,30.07,389.49,89Z" style="fill:#e9e7db;"/><path d="M438.29,253.62,435.19,242c27.17-7.26,109.84-29.33,131.22-84.69C581,119.54,568,69,527.61,7L537.67.42c6.14,9.44,24.84,38.17,36.24,70.27,12.34,34.76,13.58,65.37,3.69,91C554,222.72,466.91,246,438.29,253.62Z" style="fill:#262103;"/><ellipse cx="494.85" cy="90.47" rx="22.12" ry="23.81" transform="translate(232.17 519.5) rotate(-68.88)" style="fill:#262103;"/><path d="M117.38,980.37,119,1094c.42,29.34,26.37,52.8,58,52.41l162-2c28.73-.36,38-36.06,12.63-48.57Z" style="fill:#09936f;"/><path d="M607.21,626.2c-57.24,0-108.54-7.43-152.8-22.15-45.62-15.18-84.36-38.19-115.14-68.39-75.59-74.17-76.35-163.94-76.18-173.93L400,364s0-.4,0-1.16c0,1.74,1.27,43.11,36.81,76.73C474.19,474.94,539.87,492,626.69,489a68.44,68.44,0,0,1,4.82,136.79Q619.19,626.2,607.21,626.2Z" style="fill:#262103;"/><ellipse cx="667.13" cy="546.74" rx="93.02" ry="86.43" style="fill:#e9e7db;"/><path d="M329.26,772.31c43.88-63.37-27.86-136.06-138.79-139-1.27,0-2.55-.06-3.83-.08h0c-1.28,0-2.56,0-3.83,0C71.83,633.3-2,704.12,39.93,768.6h0c52.34,80.42,80,77.69,78.67,164.15L117,1038c-.33,21.93,27.87,40.07,63,40.52h0c35.11.45,63.83-17,64.16-38.89l1.56-105.24c1.29-86.46,28.82-83,83.53-162.06Z" style="fill:#262103;"/><path d="M274.37,1029.24l-12-.18,1.41-94.77c.57-38.65,6.29-62.08,20.38-83.58l10,6.58c-14.72,22.45-18,46.17-18.42,77.18Z" style="fill:#262103;"/><path d="M789,465.49c10-44.32-20.37-89.11-68.06-100.16s-94.69,15.8-105.18,60Z" style="fill:#e9e7db;"/><path d="M561.27,654.39c-35.33,0-63.46-4.8-83.21-9.8-32.66-8.28-50-18.76-50.7-19.21l6.27-10.23-3.13,5.12,3.13-5.12c.16.1,16.87,10.15,48,18,28.71,7.2,75.92,13.93,137.74,5L621.05,650A418.74,418.74,0,0,1,561.27,654.39Z" style="fill:#262103;"/><path d="M786.83,397.36c-18-29.49-44.34-45-78.15-46.05a128.23,128.23,0,0,0-46.68,7.5l-4.5-11.12a138,138,0,0,1,51.12-8.39c26.34.74,63.07,10.33,88.45,51.79Z" style="fill:#262103;"/><circle cx="331.52" cy="362.84" r="66.52" style="fill:#262103;"/>
            </g>
        </g>
    </g>
    
    <!-- ITEM 4 -->
    <g>
        <defs>
            <clipPath id="clip-path-id-crop-item-4">
                
          <rect transform="scale(1.6810827067669174 1.67491059602649)" x="53.0" y="1.0" width="80.0" height="167.0"/>
        
            </clipPath>
            
            <clipPath id="clip-path-id-viewbox-item-4">
                <rect x="0.0" y="0.0" width="223.584" height="505.823"/>
            </clipPath>
        </defs>
        <g clip-path="url(#clip-path-id-crop-item-4)" transform="translate(484.0 532.0) rotate(89.99999999999999 66.5 -151.0) scale(0.5948547302132532 -0.5970467930481611)">
            <g clip-path="url(#clip-path-id-viewbox-item-4)" transform="translate(-0.0 -0.0)">
                
<g>
	<g>
		<g>
			<g>
				<path style="fill:#ffcc51;" d="M111.792,325.038L111.792,325.038c-12.958,0-23.462-10.504-23.462-23.462V23.462      C88.33,10.504,98.835,0,111.792,0h0c12.958,0,23.462,10.504,23.462,23.462v278.115      C135.254,314.534,124.75,325.038,111.792,325.038z"/>
			</g>
		</g>
	</g>
	<g>
		<g>
			<g>
				<rect x="122.666" y="26.354" style="fill:#ffcc51;" width="62.994" height="105.418"/>
			</g>
		</g>
	</g>
	<g>
		<g>
			<g>
				<path style="fill:#ffcc51;" d="M111.792,505.823C50.15,505.823,0,455.674,0,394.031S50.15,282.239,111.792,282.239      s111.792,50.149,111.792,111.792S173.435,505.823,111.792,505.823z M111.792,327.555c-36.654,0-66.476,29.821-66.476,66.476      s29.821,66.476,66.476,66.476s66.476-29.821,66.476-66.476S148.447,327.555,111.792,327.555z"/>
			</g>
		</g>
	</g>
	<g>
		<g>
			<g>
				<path style="fill:#262103;" d="M163.734,394.031h-12.607c0-21.689-17.645-39.334-39.334-39.334V342.09      C140.433,342.09,163.734,365.39,163.734,394.031z"/>
			</g>
		</g>
	</g>
	<g>
		<g>
			<g>
				<rect x="65.796" y="35.782" style="fill:#262103;" width="12.607" height="228.834"/>
			</g>
		</g>
	</g>
</g>

            </g>
        </g>
    </g>
    
    <!-- ITEM 5 -->
    <g>
        <defs>
            <clipPath id="clip-path-id-viewbox-item-5">
                <rect x="0.0" y="0.0" width="46.924" height="194.123"/>
            </clipPath>
        </defs>
        <g transform="translate(785.0 63.0) rotate(90.0 14.5 64.5) scale(0.6180206291023783 0.6645271297064232)">
            <g clip-path="url(#clip-path-id-viewbox-item-5)" transform="translate(-0.0 -0.0)">
                
<g>
	<g>
		<g>
			<path style="fill:#262103;" d="M23.462,194.123L23.462,194.123C10.504,194.123,0,183.619,0,170.661V23.462     C0,10.504,10.504,0,23.462,0h0C36.42,0,46.924,10.504,46.924,23.462v147.199C46.924,183.619,36.42,194.123,23.462,194.123z"/>
		</g>
	</g>
</g>

            </g>
        </g>
    </g>
    
    <!-- ITEM 6 -->
    <g>
        <defs>
            <clipPath id="clip-path-id-viewbox-item-6">
                <rect x="0.0" y="0.0" width="1154.773" height="12.0"/>
            </clipPath>
        </defs>
        <g transform="translate(412.0 728.0) rotate(0.0 350.0 3.5) scale(0.606179742685359 0.5833333333333334)">
            <g clip-path="url(#clip-path-id-viewbox-item-6)" transform="translate(-0.0 -0.0)">
                
<g>
	<g>
		<g>
			<rect x="0" y="0" style="fill:#262103;" width="1154.773" height="12"/>
		</g>
	</g>
</g>

            </g>
        </g>
    </g>
    
</svg>