<svg id="Capa_1" enable-background="new 0 0 509.982 509.982" height="512" viewBox="0 0 509.982 509.982" width="512" xmlns="http://www.w3.org/2000/svg"><g><g><g><g id="XMLID_310_"><g><path d="m500.659 344.974-132.35-75.04-33.448-5.267-79.392 45.892-.19 23.465-.5 33.253 91.497 52.794 48.103-6.967 106.32-61.9c2.39-1.4 2.37-4.86-.04-6.23z" fill="#e19974"/><path d="m262.279 305.897-79.521-49.292-40.129 13.54-131.98 74.83c-2.41 1.37-2.43 4.83-.03 6.23l105.75 61.58h.01l.001-.001 54.052-3.836s83.787-51.133 85.036-52.738-.19-22.186-.19-22.186z" fill="#e19974"/><path d="m368.309 269.934-113.03 64.09-112.65-63.88 111.25-63.08c1.1-.63 2.45-.63 3.55 0z" fill="#e8ad8c"/><path d="m180.949 402.521c-6.406 3.919-10.516 6.427-10.516 6.427l-54.052 3.836-.001.001h-.01l-105.75-61.58c-2.4-1.4-2.38-4.86.03-6.23l131.98-74.83 40.129-13.54 29.593 18.344-88.841 50.551c-16.523 9.402-16.724 33.146-.362 42.826z" fill="#dc8758"/><path d="m394.189 412.784.19.32-136.92 79.72c-1.11.65-2.49.65-3.61 0l-137.47-80.04 138.9-78.76z" fill="#e8ad8c"/><g fill="#e19974"><path d="m196.606 411.632.001-.001-.001.001h-.01l-38.573-22.462-41.644 23.613 137.47 80.04c1.12.65 2.5.65 3.61 0l39.297-22.88z"/><path d="m222.856 268.993 71.896-40.766-37.323-21.163c-1.1-.63-2.45-.63-3.55 0l-111.25 63.08 39.095 22.169z"/></g></g></g><path d="m420.5 139.651h-35.709v-18.996c0-38.737 31.402-70.139 70.139-70.139h30.31c2.982 0 5.4 2.417 5.4 5.4v13.597c-.001 38.735-31.403 70.138-70.14 70.138z" fill="#bbec6c"/><path d="m358.291 172.429h28.321v-21.661c0-27.753-22.498-50.252-50.252-50.252h-23.971c-2.402 0-4.349 1.947-4.349 4.349v17.311c0 27.755 22.498 50.253 50.251 50.253z" fill="#bbec6c"/><path d="m336.545 122.178v-17.312c0-2.046 1.418-3.75 3.321-4.214-1.16-.08-2.326-.135-3.506-.135h-23.971c-2.402 0-4.349 1.947-4.349 4.349v17.312c0 27.753 22.498 50.252 50.252 50.252h28.321v-.005c-27.669-.101-50.068-22.556-50.068-50.247z" fill="#a2e62e"/><path d="m412.197 242.792h-25.585v-15.297c0-17.356 14.07-31.426 31.426-31.426h18.918c3.682 0 6.667 2.985 6.667 6.667v8.63c0 17.356-14.07 31.426-31.426 31.426z" fill="#bbec6c"/><path d="m107.162 250.778h-17.705c-19.159 0-34.69-15.531-34.69-34.69v-11.355c0-3.507 2.843-6.35 6.35-6.35h11.355c19.159 0 34.69 15.531 34.69 34.69z" fill="#bbec6c"/><path d="m71.347 216.088v-11.355c0-2.974 2.047-5.463 4.808-6.153-1.211-.128-2.439-.196-3.684-.196h-11.355c-3.507 0-6.35 2.843-6.35 6.35v11.355c0 19.159 15.531 34.69 34.69 34.69h16.58c-19.158-.001-34.689-15.532-34.689-34.691z" fill="#a2e62e"/><g fill="#bbec6c"><path d="m125.097 234.012h-17.935v-15.001c0-13.707 11.112-24.819 24.819-24.819h11.709c3.439 0 6.226 2.787 6.226 6.226v8.775c0 13.707-11.112 24.819-24.819 24.819z"/><path d="m236.585 422.746h18.194v-14.142c0-9.66-7.831-17.491-17.491-17.491h-11.455c-3.722 0-6.739 3.017-6.739 6.739v7.403c0 9.66 7.831 17.491 17.491 17.491z"/><path d="m236.585 164.016h18.194v-14.142c0-9.66-7.831-17.491-17.491-17.491h-11.455c-3.722 0-6.739 3.017-6.739 6.739v7.403c0 9.66 7.831 17.491 17.491 17.491z"/><path d="m272.973 177.863h-18.194v-14.142c0-9.66 7.831-17.491 17.491-17.491h11.455c3.722 0 6.739 3.017 6.739 6.739v7.403c0 9.66-7.831 17.491-17.491 17.491z"/><path d="m271.777 422.746h-16.998v-11.549c0-8.864 7.185-16.049 16.049-16.049h12.073c2.72 0 4.925 2.205 4.925 4.925v6.624c0 8.864-7.185 16.049-16.049 16.049z"/></g><circle cx="32.786" cy="41.958" fill="#f37c7c" r="25.285"/></g></g><g><path d="m504.36 338.45-110.248-62.511v-25.647h18.085c21.464 0 38.926-17.463 38.926-38.927v-8.63c0-7.812-6.355-14.167-14.167-14.167h-18.918c-9.016 0-17.32 3.09-23.926 8.255 0 0-.172-50.935-.472-53.315h28.681c11.275 0 22.178-2.385 32.402-7.088 3.764-1.73 5.411-6.185 3.68-9.947-1.729-3.763-6.182-5.41-9.947-3.68-8.245 3.792-17.038 5.715-26.135 5.715h-28.209v-11.497c0-34.539 28.1-62.639 62.639-62.639h28.21v11.496c0 14.133-4.61 27.481-13.332 38.604-2.556 3.26-1.985 7.974 1.274 10.53 3.26 2.555 7.974 1.985 10.53-1.274 10.813-13.79 16.527-30.34 16.527-47.86v-13.595c0-7.112-5.787-12.899-12.9-12.899h-30.31c-41.184 0-74.964 32.237-77.473 72.8-10.579-11.752-25.898-19.156-42.918-19.156h-23.972c-6.533 0-11.849 5.315-11.849 11.85v17.312c0 31.844 25.907 57.751 57.751 57.751h20.821v87.505l-116.833-66.245v-15.825h10.694c13.779 0 24.99-11.211 24.99-24.991v-7.403c0-7.851-6.388-14.238-14.238-14.238h-11.455c-4.12 0-8.006 1.008-11.435 2.781-3.448-9.679-12.699-16.629-23.547-16.629h-11.455c-7.851 0-14.238 6.388-14.238 14.239v7.403c0 13.779 11.211 24.99 24.99 24.99h10.694v6.348 24.319l-132.618 75.195v-26.599-9.267h10.436c17.821 0 32.319-14.498 32.319-32.318v-8.775c0-7.569-6.158-13.727-13.727-13.727h-11.707c-12.506 0-23.367 7.144-28.739 17.561-7.703-8.219-18.644-13.37-30.771-13.37h-11.354c-7.637 0-13.85 6.213-13.85 13.85v11.355c0 23.264 18.927 42.19 42.19 42.19h10.204v27.604l-29.24 16.579c-3.604 2.043-4.868 6.62-2.825 10.224 2.043 3.603 6.621 4.866 10.224 2.825l21.842-12.384v48.669c0 4.143 3.357 7.5 7.5 7.5s7.5-3.357 7.5-7.5v-57.175l27.965-15.856 97.447 55.253-123.652 70.111-96.154-55.986 27.205-15.425c3.604-2.043 4.868-6.62 2.825-10.224-2.044-3.604-6.622-4.868-10.224-2.825l-33.122 18.78c-3.444 1.953-5.599 5.626-5.621 9.586-.022 3.959 2.09 7.656 5.512 9.648l105.797 61.6c.007.004.014.008.021.012l137.415 80.01c1.721 1.002 3.65 1.503 5.58 1.503s3.86-.501 5.581-1.503l178.978-104.21c3.58-2.084 4.792-6.676 2.708-10.255-2.085-3.58-6.679-4.794-10.255-2.708l-38.148 22.212-124.034-70.328 97.824-55.467 10.803 6.125v56.625c0 4.143 3.357 7.5 7.5 7.5s7.5-3.357 7.5-7.5v-48.118l96.933 54.961-28.377 16.523c-3.58 2.084-4.792 6.676-2.708 10.255 1.394 2.393 3.906 3.728 6.488 3.728 1.281 0 2.58-.328 3.767-1.02l34.255-19.945c3.422-1.992 5.534-5.689 5.512-9.648-.023-3.96-2.177-7.633-5.622-9.586zm-86.322-134.882h18.085v7.797c0 13.193-10.733 23.927-23.926 23.927h-18.085v-7.797c0-13.193 10.734-23.927 23.926-23.927zm-59.747-38.639c-23.573 0-42.751-19.178-42.751-42.751v-14.161h20.82c23.573 0 42.752 19.179 42.752 42.752v14.16zm-243.63 54.082c0-9.55 7.77-17.319 17.319-17.319h10.436v7.502c0 9.55-7.77 17.318-17.319 17.318h-10.436zm-25.204 24.267c-14.993 0-27.19-12.197-27.19-27.19v-10.205h10.204c14.993 0 27.19 12.197 27.19 27.19v10.205zm182.814-89.547h10.693v6.642c0 5.509-4.481 9.991-9.99 9.991h-10.694v-6.643c-.001-5.509 4.482-9.99 9.991-9.99zm-45.676-7.206v-6.643h10.693c5.509 0 9.991 4.482 9.991 9.991v6.642h-10.694c-5.509.001-9.99-4.481-9.99-9.99zm152.92 266.557-123.858 72.117-124.231-72.334 123.854-70.225zm-124.236-87.686-97.447-55.253 89.448-50.717v50.717c0 4.143 3.357 7.5 7.5 7.5s7.5-3.357 7.5-7.5v-51.711l90.824 51.498z"/><path d="m236.585 430.246h10.694v17.124c0 4.143 3.357 7.5 7.5 7.5s7.5-3.357 7.5-7.5v-17.124h9.498c12.985 0 23.549-10.563 23.549-23.549v-6.624c0-6.851-5.574-12.425-12.425-12.425h-12.073c-5.415 0-10.405 1.842-14.387 4.925-4.588-5.472-11.47-8.96-19.153-8.96h-11.455c-7.851 0-14.238 6.388-14.238 14.239v7.403c0 13.78 11.211 24.991 24.99 24.991zm34.243-27.597h9.498v4.049c0 4.714-3.835 8.549-8.549 8.549h-9.498v-4.049c0-4.715 3.835-8.549 8.549-8.549zm-44.233-4.036h10.693c5.509 0 9.991 4.481 9.991 9.99v6.643h-10.694c-5.509 0-9.99-4.481-9.99-9.99z"/><path d="m32.786 74.743c15.497 0 28.508-10.812 31.909-25.286h39.359l77.788 77.789c1.465 1.464 3.385 2.196 5.304 2.196s3.839-.732 5.304-2.196c2.929-2.93 2.929-7.678 0-10.607l-79.985-79.985c-1.407-1.406-3.314-2.196-5.304-2.196h-42.465c-3.402-14.475-16.413-25.286-31.91-25.286-18.078 0-32.786 14.707-32.786 32.785s14.708 32.786 32.786 32.786zm0-50.571c9.807 0 17.785 7.979 17.785 17.785 0 9.808-7.979 17.786-17.785 17.786-9.807 0-17.786-7.978-17.786-17.786 0-9.807 7.979-17.785 17.786-17.785z"/><path d="m107.161 90.863h-40.895c-4.143 0-7.5 3.357-7.5 7.5s3.357 7.5 7.5 7.5h40.896c4.143 0 7.5-3.357 7.5-7.5s-3.358-7.5-7.501-7.5z"/><path d="m107.161 121.984h-85.358c-4.143 0-7.5 3.357-7.5 7.5s3.357 7.5 7.5 7.5h85.358c4.143 0 7.5-3.357 7.5-7.5s-3.357-7.5-7.5-7.5z"/><path d="m107.161 153.105h-85.358c-4.143 0-7.5 3.357-7.5 7.5s3.357 7.5 7.5 7.5h85.358c4.143 0 7.5-3.357 7.5-7.5s-3.357-7.5-7.5-7.5z"/><path d="m21.803 105.863h17.415c4.143 0 7.5-3.357 7.5-7.5s-3.357-7.5-7.5-7.5h-17.415c-4.143 0-7.5 3.357-7.5 7.5s3.357 7.5 7.5 7.5z"/></g></g></svg>